<?xml version="1.0" encoding="UTF-8"?>
<svg version="1.1" xmlns="http://www.w3.org/2000/svg" width="478" height="522">
<path d="M0 0 C5.12457325 4.35872374 5.12457325 4.35872374 7 7 C7 8.32 7 9.64 7 11 C5.171875 12.74609375 5.171875 12.74609375 2.75 14.4375 C-0.78011985 17.00889028 -3.35065761 19.50286804 -6 23 C-6.66 23 -7.32 23 -8 23 C-8.268125 23.845625 -8.53625 24.69125 -8.8125 25.5625 C-10 29 -10 29 -11.5625 32.4375 C-15.40262929 41.95434216 -14.890671 53.24795606 -12 63 C-10.79308503 65.75471432 -9.42219708 68.34523212 -8 71 C-8 71.66 -8 72.32 -8 73 C-7.34 73 -6.68 73 -6 73 C-5.7525 73.78375 -5.505 74.5675 -5.25 75.375 C-3.80895638 78.4011916 -3.02833711 78.80701872 0 80 C0.99 80.66 1.98 81.32 3 82 C3 82.66 3 83.32 3 84 C3.928125 84.28875 4.85625 84.5775 5.8125 84.875 C9 86 9 86 12 88 C12 99.75338657 4.65099067 111.61036612 -2 121 C-2.66 121 -3.32 121 -4 121 C-4.22171875 121.69996094 -4.4434375 122.39992188 -4.671875 123.12109375 C-6.3071859 126.66587061 -8.60925359 129.24829973 -11.25 132.0625 C-11.71535156 132.57876953 -12.18070313 133.09503906 -12.66015625 133.62695312 C-17.71686036 139.09460151 -23.38893348 143.3580309 -30.91796875 144.40625 C-40.16462616 144.67138713 -47.46278787 142.59264397 -56.06640625 139.41015625 C-67.99357561 135.00225878 -78.84957971 137.3942253 -90.3125 142.1875 C-97.65242884 144.94263271 -106.22455496 145.58271893 -113.734375 143.09375 C-115.9375 142 -115.9375 142 -119 140 C-119 139.34 -119 138.68 -119 138 C-119.556875 137.773125 -120.11375 137.54625 -120.6875 137.3125 C-123.66159588 135.62449964 -125.72008865 133.53323483 -128 131 C-128 130.34 -128 129.68 -128 129 C-128.66 129 -129.32 129 -130 129 C-131.81499442 126.87333987 -133.48076951 124.75449189 -135.125 122.5 C-135.86097412 121.49199341 -135.86097412 121.49199341 -136.61181641 120.46362305 C-141.64077503 113.38422009 -145.42679988 105.89099271 -149 98 C-149.48210937 96.97261719 -149.96421875 95.94523437 -150.4609375 94.88671875 C-160.29336974 72.86802958 -162.90815696 45.27718744 -154.8125 22.375 C-152.38507963 16.38591818 -149.33325062 10.83534011 -145 6 C-144.34 6 -143.68 6 -143 6 C-142.79375 5.443125 -142.5875 4.88625 -142.375 4.3125 C-137.77408679 -3.42539948 -127.79823749 -7.37649438 -119.62890625 -10.140625 C-107.21730448 -13.07986331 -96.13035714 -11.09083382 -84.43310547 -6.49047852 C-74.15015182 -2.53804994 -66.4279732 -3.6741539 -56.25 -7.4375 C-36.3842228 -14.57278982 -17.10644314 -13.28747705 0 0 Z " fill="#F8A511" transform="translate(211,219)"/>
<path d="M0 0 C39.6 0 79.2 0 120 0 C120.061875 14.89125 120.12375 29.7825 120.1875 45.125 C120.22846802 52.16932373 120.22846802 52.16932373 120.27026367 59.35595703 C120.28381348 65.10522461 120.28381348 65.10522461 120.28633118 67.79953003 C120.29092796 69.67512142 120.30145858 71.55070413 120.31672668 73.42623901 C120.33873426 76.27275925 120.34171642 79.11873927 120.34057617 81.96533203 C120.3513705 82.79626436 120.36216482 83.62719669 120.37328625 84.48330879 C120.346968 89.4021048 119.68686229 92.71962553 117 97 C112.52511186 101.18618568 108.18617709 101.12186177 102.25 101.0625 C101.07953125 101.05347656 99.9090625 101.04445313 98.703125 101.03515625 C97.36507812 101.01775391 97.36507812 101.01775391 96 101 C96.0314209 102.39907593 96.0314209 102.39907593 96.06347656 103.82641602 C96.13197396 107.31349726 96.18195446 110.79985541 96.21972656 114.28735352 C96.23974363 115.79170062 96.26696627 117.29597089 96.30175781 118.80004883 C96.35071945 120.97236162 96.37306653 123.14363906 96.390625 125.31640625 C96.4220459 127.27235718 96.4220459 127.27235718 96.45410156 129.26782227 C95.81145634 134.54960585 93.87221137 138.29298375 89.875 141.9375 C84.73883667 143.83564732 79.17528774 143.72509591 74 142 C74 141.34 74 140.68 74 140 C73.38125 139.7525 72.7625 139.505 72.125 139.25 C69.48141967 137.69495275 69.05352994 136.87219988 68 134 C67.83213678 131.42465327 67.76682626 128.96245607 67.8046875 126.390625 C67.8075174 125.66381531 67.81034729 124.93700562 67.81326294 124.18817139 C67.82442477 121.87527749 67.84952149 119.56277612 67.875 117.25 C67.88503499 115.67839102 67.89415994 114.10677596 67.90234375 112.53515625 C67.92264641 108.68983264 67.96180112 104.84535377 68 101 C62.72 101 57.44 101 52 101 C52.04640625 103.31257813 52.0928125 105.62515625 52.140625 108.0078125 C52.17187065 110.26169645 52.19612967 112.51555576 52.21972656 114.76953125 C52.23977222 116.32921244 52.26701657 117.88881913 52.30175781 119.44824219 C52.35059126 121.69745314 52.37303815 123.9456659 52.390625 126.1953125 C52.41127014 126.8861795 52.43191528 127.57704651 52.45318604 128.28884888 C52.45549315 133.3305902 51.12458393 136.10331531 48 140 C44.18683028 143.36456152 40.357435 143.56174713 35.44921875 143.4296875 C31.43772783 142.72591716 29.70325899 140.98781257 27 138 C27 137.34 27 136.68 27 136 C26.34 136 25.68 136 25 136 C24.15937224 131.63106263 23.88267044 127.5164802 23.90234375 123.0703125 C23.90556641 121.78125 23.90878906 120.4921875 23.91210938 119.1640625 C23.92046267 117.81770764 23.92892759 116.47135348 23.9375 115.125 C23.9425217 113.75520996 23.94708343 112.38541815 23.95117188 111.015625 C23.96292746 107.6770381 23.97936036 104.33854185 24 101 C22.66304077 101.01848999 22.66304077 101.01848999 21.29907227 101.03735352 C20.12916748 101.04694092 18.9592627 101.05652832 17.75390625 101.06640625 C16.5944751 101.07873291 15.43504395 101.09105957 14.24047852 101.10375977 C9.84918518 100.96315104 7.67342006 100.42289408 4 98 C0.11304545 92.50048933 -0.56954655 88.488043 -0.45410156 81.85180664 C-0.4545837 80.948954 -0.45506584 80.04610136 -0.45556259 79.11588955 C-0.45259358 76.2135676 -0.42221114 73.31229267 -0.390625 70.41015625 C-0.38473869 68.6103159 -0.38066116 66.8104687 -0.37841797 65.01062012 C-0.35750633 58.36114184 -0.30166111 51.71181047 -0.25 45.0625 C-0.1675 30.191875 -0.085 15.32125 0 0 Z " fill="#F9A514" transform="translate(269,225)"/>
<path d="M0 0 C2.265625 0.16796875 2.265625 0.16796875 5 1 C6.984375 3.36328125 6.984375 3.36328125 8.75 6.3125 C9.34296875 7.27800781 9.9359375 8.24351562 10.546875 9.23828125 C11.78975872 11.60042853 12.42594069 13.4362566 13 16 C13.81573486 15.69799683 13.81573486 15.69799683 14.64794922 15.38989258 C20.13075057 13.44867819 25.34349211 12.26854697 31.125 11.6875 C31.94468262 11.60411377 32.76436523 11.52072754 33.60888672 11.43481445 C44.51266597 10.49848177 54.77390197 12.05308497 65 16 C65.26167969 15.29488281 65.52335937 14.58976563 65.79296875 13.86328125 C67.08590246 10.79622492 68.59233338 8.03664515 70.3125 5.1875 C70.88613281 4.21167969 71.45976562 3.23585937 72.05078125 2.23046875 C74 0 74 0 76.73046875 -0.32421875 C77.47941406 -0.21722656 78.22835937 -0.11023438 79 0 C79.70703125 1.65625 79.70703125 1.65625 80 4 C78.63671875 6.65625 78.63671875 6.65625 76.6875 9.5 C74.58434434 12.60567408 72.58228994 15.59446227 71 19 C71.7940625 19.48210937 72.588125 19.96421875 73.40625 20.4609375 C74.4271875 21.09257812 75.448125 21.72421875 76.5 22.375 C77.5209375 23.00148437 78.541875 23.62796875 79.59375 24.2734375 C80.3878125 24.84320313 81.181875 25.41296875 82 26 C82 26.66 82 27.32 82 28 C83.32 28.66 84.64 29.32 86 30 C86 30.66 86 31.32 86 32 C86.66 32 87.32 32 88 32 C96.8146843 43.94006068 99 52.79385607 99 68 C59.4 68 19.8 68 -21 68 C-21 53.78472935 -19.31946695 45.00388162 -11 34 C-10.48566406 33.2575 -9.97132813 32.515 -9.44140625 31.75 C-8.96574219 31.1725 -8.49007813 30.595 -8 30 C-7.34 30 -6.68 30 -6 30 C-6 29.34 -6 28.68 -6 28 C-3.69921875 26.0546875 -3.69921875 26.0546875 -0.6875 23.875 C0.29863281 23.15054688 1.28476562 22.42609375 2.30078125 21.6796875 C5 20 5 20 8 20 C7.34 18.02 6.68 16.04 6 14 C5.34 14 4.68 14 4 14 C3.12808053 12.61518672 2.27809616 11.21654754 1.4375 9.8125 C0.96183594 9.03519531 0.48617188 8.25789062 -0.00390625 7.45703125 C-1.19605797 4.51639033 -0.88855164 2.99553637 0 0 Z M8.25 37.1875 C6.7157021 38.99648167 6.7157021 38.99648167 7.25 41.625 C7.77745645 43.9312407 7.77745645 43.9312407 9 45 C10.99958364 45.04080783 13.00045254 45.04254356 15 45 C15.76716851 42.14921909 15.76716851 42.14921909 16 39 C14.87359395 37.03959519 14.87359395 37.03959519 13 36 C10.0612603 35.71924929 10.0612603 35.71924929 8.25 37.1875 Z M63.25 37.125 C61.66725699 39.07035975 61.66725699 39.07035975 62.3125 42.1875 C62.539375 43.115625 62.76625 44.04375 63 45 C65.31 45 67.62 45 70 45 C70.76716851 42.14921909 70.76716851 42.14921909 71 39 C69.87359395 37.03959519 69.87359395 37.03959519 68 36 C65.07385347 35.7296212 65.07385347 35.7296212 63.25 37.125 Z " fill="#F9A515" transform="translate(290,154)"/>
<path d="M0 0 C3.62011046 2.33296007 5.89022378 4.96794755 7.8125 8.8125 C7.91912227 10.75139426 7.96134372 12.69395738 7.97363281 14.63574219 C7.98324036 15.8575116 7.9928479 17.07928101 8.00274658 18.33807373 C8.00759547 19.67850559 8.01187408 21.01893962 8.015625 22.359375 C8.02137795 23.7321981 8.02713566 25.10502118 8.03289795 26.47784424 C8.04340994 29.35958226 8.04925073 32.24129238 8.05273438 35.12304688 C8.05820768 38.80617646 8.08220941 42.48893421 8.11070633 46.17194748 C8.12938438 49.00991877 8.13454112 51.84780161 8.13607025 54.68582916 C8.14055074 56.7009764 8.15917612 58.71607621 8.17803955 60.73114014 C8.17503845 61.96551819 8.17203735 63.19989624 8.16894531 64.47167969 C8.17259094 65.55374695 8.17623657 66.63581421 8.17999268 67.75067139 C7.66353945 72.05359048 6.17538863 75.45886175 3.0859375 78.52734375 C-1.37908443 81.40296487 -4.70279077 82.54395589 -10.00390625 81.59765625 C-13.78152266 80.23933622 -16.62748097 77.87537991 -19.1875 74.8125 C-20.26426801 71.58219597 -20.33384852 69.19830589 -20.36450195 65.79980469 C-20.38375481 63.94207428 -20.38375481 63.94207428 -20.40339661 62.04681396 C-20.41156547 60.69267173 -20.41900892 59.33852494 -20.42578125 57.984375 C-20.42985678 57.30081184 -20.4339323 56.61724869 -20.43813133 55.9129715 C-20.45897556 52.29338383 -20.47328317 48.67383387 -20.48266602 45.05419922 C-20.49371463 41.32737013 -20.52810035 37.60114072 -20.56783772 33.87452316 C-20.5940651 30.99876851 -20.60236331 28.12315529 -20.60594749 25.24729156 C-20.61079935 23.87423919 -20.62237334 22.50119254 -20.64098549 21.12825775 C-20.8120217 7.67313434 -20.8120217 7.67313434 -16.1875 1.8125 C-10.8710974 -1.84991068 -6.02437626 -2.24437547 0 0 Z " fill="#F8A71A" transform="translate(413.1875,224.1875)"/>
<path d="M0 0 C3.39593209 2.26395473 4.80914281 4.32719163 6.8125 7.875 C7.33389282 11.01707458 7.33389282 11.01707458 7.36181641 14.41186523 C7.38088043 15.69016708 7.39994446 16.96846893 7.41958618 18.2855072 C7.41906327 19.66820385 7.41718891 21.05090054 7.4140625 22.43359375 C7.42184625 23.86556999 7.43051762 25.29754166 7.44003296 26.72950745 C7.45491805 29.72452797 7.45440415 32.71907681 7.44384766 35.71411133 C7.43225873 39.53886358 7.46612966 43.36167847 7.512537 47.1861105 C7.54210336 50.14174039 7.54374323 53.09690839 7.53751755 56.05265999 C7.53853933 57.46199444 7.54892783 58.87135633 7.56914139 60.28054619 C7.72461011 72.63335093 7.72461011 72.63335093 3.92333984 77.20336914 C0.57793382 80.41483613 -2.40830129 81.55150933 -6.9375 82.375 C-11.78723678 81.62888665 -15.75290621 79.38515485 -19.1875 75.875 C-21.76857541 69.31407653 -21.49352968 62.72130376 -21.48828125 55.75 C-21.49256638 54.48913574 -21.4968515 53.22827148 -21.50126648 51.92919922 C-21.50699636 49.26971385 -21.50846099 46.61061835 -21.50317383 43.95117188 C-21.49737504 40.55857526 -21.51433528 37.16652386 -21.5375185 33.77401733 C-21.5558649 30.51601605 -21.55206937 27.25804359 -21.55078125 24 C-21.559991 22.78940918 -21.56920074 21.57881836 -21.57868958 20.33154297 C-21.54452177 14.08864069 -21.34025428 9.33330303 -18.1875 3.875 C-12.72494555 -1.31442672 -7.204418 -2.54273576 0 0 Z " fill="#F8A619" transform="translate(258.1875,224.125)"/>
<path d="M0 0 C2.03150244 9.60346609 -0.71907873 18.86437986 -5.29296875 27.41796875 C-12.45783768 38.25544784 -22.00220137 47.2428912 -35 50 C-38.05307585 50.21343691 -40.93355868 50.14602102 -44 50 C-44.64393556 35.90496606 -40.96782878 25.59867218 -31.8125 14.8125 C-23.84552878 6.3328029 -11.98054329 -0.56738456 0 0 Z " fill="#F8A513" transform="translate(181,159)"/>
<path d="M0 0 C39.6 0 79.2 0 120 0 C120.061875 14.89125 120.12375 29.7825 120.1875 45.125 C120.22846802 52.16932373 120.22846802 52.16932373 120.27026367 59.35595703 C120.28381348 65.10522461 120.28381348 65.10522461 120.28633118 67.79953003 C120.29092796 69.67512142 120.30145858 71.55070413 120.31672668 73.42623901 C120.33873426 76.27275925 120.34171642 79.11873927 120.34057617 81.96533203 C120.3513705 82.79626436 120.36216482 83.62719669 120.37328625 84.48330879 C120.34706235 89.384472 119.72553159 92.75490177 117 97 C116.01 97.495 116.01 97.495 115 98 C115.4640625 96.7315625 115.4640625 96.7315625 115.9375 95.4375 C117.85920917 89.22020563 118.15571738 83.05419609 118.20532227 76.58618164 C118.21535499 75.76262649 118.22538771 74.93907133 118.23572445 74.09055996 C118.26689431 71.44711986 118.29179105 68.80366464 118.31640625 66.16015625 C118.33482958 64.51916031 118.3536673 62.87816898 118.3729248 61.23718262 C118.44113062 55.17900945 118.50133791 49.12074837 118.5625 43.0625 C118.706875 29.511875 118.85125 15.96125 119 2 C80.39 2 41.78 2 2 2 C2.144375 16.416875 2.28875 30.83375 2.4375 45.6875 C2.48060303 50.23619873 2.52370605 54.78489746 2.56811523 59.47143555 C2.61137817 63.5561973 2.61137817 63.5561973 2.65589905 67.64094543 C2.67509394 69.45737483 2.6924223 71.27382455 2.70826721 73.09028625 C2.73266144 75.84500625 2.76301618 78.59960327 2.79467773 81.35424805 C2.80333312 82.56388608 2.80333312 82.56388608 2.81216335 83.79796124 C2.86262232 87.6481037 3.06924947 91.25603727 4 95 C4.9590625 95.185625 4.9590625 95.185625 5.9375 95.375 C6.618125 95.58125 7.29875 95.7875 8 96 C8.33 96.66 8.66 97.32 9 98 C11.72220383 98.31330467 14.3322843 98.51264983 17.0625 98.625 C20.9915625 98.810625 20.9915625 98.810625 25 99 C25 109.23 25 119.46 25 130 C24.67 130 24.34 130 24 130 C24 120.43 24 110.86 24 101 C19.71 101 15.42 101 11 101 C6.28731422 99.76745141 4.64962899 98.91913644 1.8447876 94.95066833 C-0.50524906 90.60909716 -0.5385068 86.70375482 -0.45410156 81.85180664 C-0.4545837 80.948954 -0.45506584 80.04610136 -0.45556259 79.11588955 C-0.45259358 76.2135676 -0.42221114 73.31229267 -0.390625 70.41015625 C-0.38473869 68.6103159 -0.38066116 66.8104687 -0.37841797 65.01062012 C-0.35750633 58.36114184 -0.30166111 51.71181047 -0.25 45.0625 C-0.1675 30.191875 -0.085 15.32125 0 0 Z " fill="#E8AF47" transform="translate(269,225)"/>
<path d="M0 0 C1.43341734 2.86683468 0.52001943 4.4382224 -0.3125 7.5 C-1.79553388 12.99807682 -2.87359278 18.36796391 -4 24 C34.61 24 73.22 24 113 24 C112.67 17.73 112.34 11.46 112 5 C115.89804409 12.79608818 115 16.09096236 115 26 C75.4 26 35.8 26 -5 26 C-5 11.35231317 -5 11.35231317 -3.0625 6.25 C-2.52302734 4.77273437 -2.52302734 4.77273437 -1.97265625 3.265625 C-1 1 -1 1 0 0 Z " fill="#F5BB4F" transform="translate(274,196)"/>
<path d="M0 0 C2.265625 0.16796875 2.265625 0.16796875 5 1 C6.984375 3.36328125 6.984375 3.36328125 8.75 6.3125 C9.34296875 7.27800781 9.9359375 8.24351562 10.546875 9.23828125 C11.78975872 11.60042853 12.42594069 13.4362566 13 16 C13.53947266 15.79793945 14.07894531 15.59587891 14.63476562 15.38769531 C20.2573264 13.38378178 25.56916068 12.31115609 31.5 11.75 C32.29019531 11.65976563 33.08039063 11.56953125 33.89453125 11.4765625 C39.44112736 10.91373278 44.47910657 11.22707492 50 12 C50 12.33 50 12.66 50 13 C43.73 13 37.46 13 31 13 C31 13.66 31 14.32 31 15 C30.39671875 15.04898438 29.7934375 15.09796875 29.171875 15.1484375 C28.37265625 15.22320312 27.5734375 15.29796875 26.75 15.375 C25.96109375 15.44460937 25.1721875 15.51421875 24.359375 15.5859375 C21.90266802 16.01708144 20.20745044 16.87818092 18 18 C14.75 18.125 14.75 18.125 12 18 C11.6596875 18.804375 11.6596875 18.804375 11.3125 19.625 C9.56617944 22.78500863 7.3597151 25.2676983 5 28 C4.67 27.01 4.34 26.02 4 25 C3.236875 25.33 2.47375 25.66 1.6875 26 C-1 27 -1 27 -4 27 C-2.56967163 25.82455195 -1.13046758 24.65989738 0.3125 23.5 C1.11300781 22.8503125 1.91351563 22.200625 2.73828125 21.53125 C5 20 5 20 8 20 C7.34 18.02 6.68 16.04 6 14 C5.34 14 4.68 14 4 14 C3.12808053 12.61518672 2.27809616 11.21654754 1.4375 9.8125 C0.96183594 9.03519531 0.48617188 8.25789062 -0.00390625 7.45703125 C-1.19605797 4.51639033 -0.88855164 2.99553637 0 0 Z " fill="#F6A61F" transform="translate(290,154)"/>
<path d="M0 0 C4.93254963 4.77343513 4.93254963 4.77343513 5.14044189 8.55389404 C5.1472699 9.63277893 5.1540979 10.71166382 5.16113281 11.82324219 C5.17074036 13.0450116 5.1803479 14.26678101 5.19024658 15.52557373 C5.19509547 16.86600559 5.19937408 18.20643962 5.203125 19.546875 C5.20887795 20.9196981 5.21463566 22.29252118 5.22039795 23.66534424 C5.23090994 26.54708226 5.23675073 29.42879238 5.24023438 32.31054688 C5.24570768 35.99367646 5.26970941 39.67643421 5.29820633 43.35944748 C5.31688438 46.19741877 5.32204112 49.03530161 5.32357025 51.87332916 C5.32805074 53.8884764 5.34667612 55.90357621 5.36553955 57.91864014 C5.36253845 59.15301819 5.35953735 60.38739624 5.35644531 61.65917969 C5.36009094 62.74124695 5.36373657 63.82331421 5.36749268 64.93817139 C4.85103945 69.24109048 3.36288863 72.64636175 0.2734375 75.71484375 C-4.36812424 78.70416232 -7.5417021 79.46312183 -13.01953125 78.6875 C-15 78 -15 78 -18 75 C-11.07 75.495 -11.07 75.495 -4 76 C-3.67 74.68 -3.34 73.36 -3 72 C-1.35 72 0.3 72 2 72 C2 49.56 2 27.12 2 4 C0.68 4.33 -0.64 4.66 -2 5 C-1.34 3.35 -0.68 1.7 0 0 Z " fill="#EFB653" transform="translate(416,227)"/>
<path d="M0 0 C0.33 0 0.66 0 1 0 C1.00808685 1.08106018 1.01617371 2.16212036 1.02450562 3.27593994 C1.10195278 13.4583714 1.18968852 23.64066901 1.28752708 33.82292557 C1.33749674 39.05786737 1.38382681 44.29278893 1.421875 49.52783203 C1.45871922 54.57887801 1.50507698 59.62975489 1.55806351 64.68065643 C1.57661202 66.60875231 1.59171829 68.53688444 1.60334396 70.46503448 C1.6201985 73.16338968 1.64923172 75.86135718 1.68115234 78.55957031 C1.68331253 79.35870346 1.68547272 80.15783661 1.68769836 80.98118591 C1.74683869 84.88836907 2.07025972 87.60848821 4 91 C4 92.32 4 93.64 4 95 C4.9590625 95.185625 4.9590625 95.185625 5.9375 95.375 C6.618125 95.58125 7.29875 95.7875 8 96 C8.33 96.66 8.66 97.32 9 98 C11.72220383 98.31330467 14.3322843 98.51264983 17.0625 98.625 C20.9915625 98.810625 20.9915625 98.810625 25 99 C25 109.23 25 119.46 25 130 C24.67 130 24.34 130 24 130 C24 120.43 24 110.86 24 101 C19.71 101 15.42 101 11 101 C6.28731422 99.76745141 4.64962899 98.91913644 1.8447876 94.95066833 C-0.50522422 90.60914305 -0.53860331 86.70382224 -0.45410156 81.85180664 C-0.45468567 80.96320953 -0.45526978 80.07461243 -0.45587158 79.15908813 C-0.45310037 76.24237042 -0.42205418 73.32669389 -0.390625 70.41015625 C-0.38315918 68.37992409 -0.37746786 66.3496847 -0.37347412 64.31944275 C-0.35824469 58.99115905 -0.31898591 53.66331556 -0.2746582 48.33520508 C-0.2336475 42.89215041 -0.21545072 37.44902421 -0.1953125 32.00585938 C-0.15248918 21.3370468 -0.08427036 10.66856009 0 0 Z " fill="#FEE0A9" transform="translate(269,225)"/>
<path d="M0 0 C0.74894531 0.10699219 1.49789063 0.21398437 2.26953125 0.32421875 C2.9765625 1.98046875 2.9765625 1.98046875 3.26953125 4.32421875 C1.90625 6.98046875 1.90625 6.98046875 -0.04296875 9.82421875 C-2.14612441 12.92989283 -4.14817881 15.91868102 -5.73046875 19.32421875 C-3.75046875 20.64421875 -1.77046875 21.96421875 0.26953125 23.32421875 C-0.39046875 23.65421875 -1.05046875 23.98421875 -1.73046875 24.32421875 C-8.29296875 21.98046875 -8.29296875 21.98046875 -10.73046875 18.32421875 C-13.05346005 17.67562797 -13.05346005 17.67562797 -15.73046875 17.32421875 C-17.67197798 16.81853551 -19.60954528 16.2974867 -21.54296875 15.76171875 C-22.51878906 15.49230469 -23.49460937 15.22289062 -24.5 14.9453125 C-25.23605469 14.74035156 -25.97210938 14.53539062 -26.73046875 14.32421875 C-26.73046875 13.99421875 -26.73046875 13.66421875 -26.73046875 13.32421875 C-21.19389581 12.89832852 -16.83380892 14.41897175 -11.73046875 16.32421875 C-11.46878906 15.61910156 -11.20710938 14.91398438 -10.9375 14.1875 C-9.64456629 11.12044367 -8.13813537 8.3608639 -6.41796875 5.51171875 C-5.84433594 4.53589844 -5.27070313 3.56007812 -4.6796875 2.5546875 C-2.73046875 0.32421875 -2.73046875 0.32421875 0 0 Z " fill="#EFC15F" transform="translate(366.73046875,153.67578125)"/>
<path d="M0 0 C-3.59462331 2.25998595 -6.56595675 2.20868087 -10.75 2.125 C-11.92046875 2.10695313 -13.0909375 2.08890625 -14.296875 2.0703125 C-15.63492187 2.03550781 -15.63492187 2.03550781 -17 2 C-16.97905273 2.93271729 -16.95810547 3.86543457 -16.93652344 4.82641602 C-16.86802604 8.31349726 -16.81804554 11.79985541 -16.78027344 15.28735352 C-16.76025637 16.79170062 -16.73303373 18.29597089 -16.69824219 19.80004883 C-16.64928055 21.97236162 -16.62693347 24.14363906 -16.609375 26.31640625 C-16.58842773 27.62037354 -16.56748047 28.92434082 -16.54589844 30.26782227 C-17.18854366 35.54960585 -19.12778863 39.29298375 -23.125 42.9375 C-28.26116333 44.83564732 -33.82471226 44.72509591 -39 43 C-39 42.34 -39 41.68 -39 41 C-39.66 40.67 -40.32 40.34 -41 40 C-39.88625 39.690625 -38.7725 39.38125 -37.625 39.0625 C-34.2054845 38.17673517 -34.2054845 38.17673517 -32 37 C-29.64018187 37.93578995 -27.30368736 38.93347808 -25 40 C-24.67 39.01 -24.34 38.02 -24 37 C-23.34 37 -22.68 37 -22 37 C-21.87625 36.21625 -21.7525 35.4325 -21.625 34.625 C-21 32 -21 32 -19 30 C-18.62703444 26.99027343 -18.62703444 26.99027343 -18.5859375 23.4609375 C-18.54726563 22.15898437 -18.50859375 20.85703125 -18.46875 19.515625 C-18.43729237 18.13542138 -18.40604509 16.75521296 -18.375 15.375 C-18.33682066 13.98695459 -18.29776895 12.59893289 -18.2578125 11.2109375 C-18.16327057 7.80742815 -18.07772103 4.40392835 -18 1 C-15.93769732 0.8309093 -13.8751477 0.66482867 -11.8125 0.5 C-10.08966797 0.36078125 -10.08966797 0.36078125 -8.33203125 0.21875 C-5.53927574 0.0354038 -2.79680188 -0.04213637 0 0 Z " fill="#F6C05E" transform="translate(382,324)"/>
<path d="M0 0 C0.33 0 0.66 0 1 0 C1.01030746 0.78482758 1.02061493 1.56965515 1.03123474 2.37826538 C1.12910777 9.76522328 1.23160753 17.15209546 1.33933926 24.53891563 C1.39456444 28.33678642 1.44798378 32.1346649 1.49731445 35.93261719 C1.54496401 39.59607367 1.597307 43.25943546 1.65294075 46.92277908 C1.67336163 48.32222773 1.69207517 49.72170235 1.70907402 51.12119675 C1.73312361 53.07744014 1.76374122 55.03359949 1.79467773 56.98974609 C1.81022202 58.1044931 1.8257663 59.21924011 1.84178162 60.36776733 C1.82581145 62.97890829 1.82581145 62.97890829 3 65 C3.99 65.33 4.98 65.66 6 66 C6.6875 68.0625 6.6875 68.0625 7 70 C6.01 70.495 6.01 70.495 5 71 C2.15966519 69.39047694 1.10740613 68.26812846 -0.1184082 65.20800781 C-1.60724821 59.50205622 -1.26484881 53.58664605 -1.23046875 47.734375 C-1.23001053 46.46402405 -1.22955231 45.1936731 -1.2290802 43.88482666 C-1.2260669 41.20856082 -1.21929394 38.53264467 -1.20581055 35.85644531 C-1.18875291 32.42775753 -1.18499866 28.99921705 -1.18575573 25.57049179 C-1.18541864 22.29177164 -1.17658513 19.01308235 -1.16796875 15.734375 C-1.16685593 14.50313904 -1.1657431 13.27190308 -1.16459656 12.00335693 C-1.15821671 10.86497375 -1.15183685 9.72659058 -1.14526367 8.55371094 C-1.14145187 7.55112244 -1.13764008 6.54853394 -1.13371277 5.51556396 C-1 3 -1 3 0 0 Z " fill="#F6C271" transform="translate(238,232)"/>
<path d="M0 0 C1.33332095 2.6666419 0.67102033 4.16680303 0 7 C-0.66 7 -1.32 7 -2 7 C-2.33 9.97 -2.66 12.94 -3 16 C-3.66 16 -4.32 16 -5 16 C-5 30.19 -5 44.38 -5 59 C-10.95425188 47.09149624 -9.40147876 26.59234307 -6 14 C-1.91433278 1.91433278 -1.91433278 1.91433278 0 0 Z " fill="#EFAC33" transform="translate(60,234)"/>
<path d="M0 0 C0 0.33 0 0.66 0 1 C-0.85380249 1.02187378 -0.85380249 1.02187378 -1.72485352 1.04418945 C-4.33803828 1.11929165 -6.95003099 1.21574189 -9.5625 1.3125 C-10.45775391 1.33505859 -11.35300781 1.35761719 -12.27539062 1.38085938 C-17.94705502 1.60938798 -21.89625131 2.55149272 -27 5 C-28.94328271 5.19114256 -30.8867257 5.38146065 -32.83203125 5.55078125 C-35.53543537 6.11094607 -37.58101768 7.24002421 -40 8.5625 C-44.69100138 11.06002388 -47.72361279 11.7537696 -53 11 C-53.66 10.01 -54.32 9.02 -55 8 C-54.27039063 7.92523438 -53.54078125 7.85046875 -52.7890625 7.7734375 C-44.87299098 6.77659886 -37.76941174 4.79291285 -30.27001953 2.12060547 C-20.25984021 -1.42609888 -10.4447894 -1.85685145 0 0 Z " fill="#F4BD5B" transform="translate(189,208)"/>
<path d="M0 0 C0.33 0.66 0.66 1.32 1 2 C1.66 2 2.32 2 3 2 C3 2.99 3 3.98 3 5 C3.66 5.33 4.32 5.66 5 6 C4.04882866 7.1725131 3.08882991 8.33787015 2.125 9.5 C1.59132812 10.1496875 1.05765625 10.799375 0.5078125 11.46875 C-0.23855469 12.22671875 -0.23855469 12.22671875 -1 13 C-1.66 13 -2.32 13 -3 13 C-3.4021875 14.36125 -3.4021875 14.36125 -3.8125 15.75 C-4.89576294 18.71471963 -5.98359457 20.6169754 -8 23 C-8 20.03 -8 17.06 -8 14 C-7.01 14 -6.02 14 -5 14 C-4.67 13.01 -4.34 12.02 -4 11 C-3.34 11 -2.68 11 -2 11 C-2 9.68 -2 8.36 -2 7 C-1.34 7 -0.68 7 0 7 C0 6.34 0 5.68 0 5 C-1.32 5 -2.64 5 -4 5 C-4.103125 5.61875 -4.20625 6.2375 -4.3125 6.875 C-5 9 -5 9 -8 11 C-8.3125 8.8125 -8.3125 8.8125 -8 6 C-5.43879574 2.95424358 -3.79480342 1.26493447 0 0 Z " fill="#F7A416" transform="translate(206,229)"/>
<path d="M0 0 C1.48831242 0.00667405 2.97660807 0.01863442 4.46484375 0.03515625 C5.22345703 0.03966797 5.98207031 0.04417969 6.76367188 0.04882812 C8.64326246 0.06064945 10.52281274 0.07858547 12.40234375 0.09765625 C12.40234375 0.75765625 12.40234375 1.41765625 12.40234375 2.09765625 C7.12234375 2.09765625 1.84234375 2.09765625 -3.59765625 2.09765625 C-3.55125 4.41023438 -3.50484375 6.7228125 -3.45703125 9.10546875 C-3.4257856 11.3593527 -3.40152658 13.61321201 -3.37792969 15.8671875 C-3.35788403 17.42686869 -3.33063968 18.98647538 -3.29589844 20.54589844 C-3.24706499 22.79510939 -3.2246181 25.04332215 -3.20703125 27.29296875 C-3.18638611 27.98383575 -3.16574097 28.67470276 -3.14447021 29.38650513 C-3.14216382 34.42667448 -4.44961664 37.21622561 -7.59765625 41.09765625 C-10.16015625 43.03515625 -10.16015625 43.03515625 -12.59765625 44.09765625 C-13.58765625 43.76765625 -14.57765625 43.43765625 -15.59765625 43.09765625 C-14.93765625 42.10765625 -14.27765625 41.11765625 -13.59765625 40.09765625 C-10.97265625 39.91015625 -10.97265625 39.91015625 -8.59765625 40.09765625 C-8.26765625 38.77765625 -7.93765625 37.45765625 -7.59765625 36.09765625 C-6.93765625 36.09765625 -6.27765625 36.09765625 -5.59765625 36.09765625 C-5.5726001 35.04263916 -5.54754395 33.98762207 -5.52172852 32.90063477 C-5.42781516 28.99994997 -5.32755591 25.09945 -5.2253418 21.19897461 C-5.18193186 19.50826326 -5.14026136 17.81750634 -5.1003418 16.12670898 C-5.04278531 13.70152019 -4.97904976 11.2765621 -4.9140625 8.8515625 C-4.89735001 8.09114151 -4.88063751 7.33072052 -4.86341858 6.54725647 C-4.68065654 0.12705365 -4.68065654 0.12705365 0 0 Z " fill="#F3BF65" transform="translate(324.59765625,323.90234375)"/>
<path d="M0 0 C2.62386487 3.06117568 3 3.73173127 3 8 C3.639375 8.12375 4.27875 8.2475 4.9375 8.375 C5.618125 8.58125 6.29875 8.7875 7 9 C7.33 9.66 7.66 10.32 8 11 C10.72220383 11.31330467 13.3322843 11.51264983 16.0625 11.625 C19.9915625 11.810625 19.9915625 11.810625 24 12 C24 22.23 24 32.46 24 43 C23.67 43 23.34 43 23 43 C23 33.43 23 23.86 23 14 C18.71 14 14.42 14 10 14 C5.82987934 12.79951072 3.82824944 11.98855579 1.0625 8.6875 C-0.15340328 5.61197994 -0.22876421 3.27895374 0 0 Z " fill="#F6CF80" transform="translate(270,312)"/>
<path d="M0 0 C0.66 0.33 1.32 0.66 2 1 C2 1.99 2 2.98 2 4 C1.01 4.33 0.02 4.66 -1 5 C-0.96219702 7.37233611 -0.96219702 7.37233611 0 10 C2.95849927 12.33414647 2.95849927 12.33414647 6 14 C5.01 14.495 5.01 14.495 4 15 C-2.5625 12.65625 -2.5625 12.65625 -5 9 C-7.3229913 8.35140922 -7.3229913 8.35140922 -10 8 C-11.94150923 7.49431676 -13.87907653 6.97326795 -15.8125 6.4375 C-16.78832031 6.16808594 -17.76414062 5.89867187 -18.76953125 5.62109375 C-19.87361328 5.31365234 -19.87361328 5.31365234 -21 5 C-21 4.67 -21 4.34 -21 4 C-14.99769998 3.51332703 -9.68299011 5.30117022 -4 7 C-3.71125 6.030625 -3.4225 5.06125 -3.125 4.0625 C-2 1 -2 1 0 0 Z " fill="#F2B447" transform="translate(361,163)"/>
<path d="M0 0 C4.75 1.875 4.75 1.875 7 3 C7 9.62768396 5.10458274 14.47833452 2.1875 20.3125 C1.84396484 21.00601562 1.50042969 21.69953125 1.14648438 22.4140625 C-0.81299405 26.20067183 -2.74389324 29.15365049 -6 32 C-6.44117322 27.50003317 -6.52867608 25.65388883 -3.625 22.0625 C-1 20 -1 20 1 20 C1 18.35 1 16.7 1 15 C1.66 15 2.32 15 3 15 C3 13.68 3 12.36 3 11 C3.66 11 4.32 11 5 11 C5 8.69 5 6.38 5 4 C3.35 4 1.7 4 0 4 C0 2.68 0 1.36 0 0 Z " fill="#EFB95C" transform="translate(216,304)"/>
<path d="M0 0 C0 0.33 0 0.66 0 1 C-6.27 1 -12.54 1 -19 1 C-19 1.66 -19 2.32 -19 3 C-19.90492188 3.07347656 -19.90492188 3.07347656 -20.828125 3.1484375 C-21.62734375 3.22320312 -22.4265625 3.29796875 -23.25 3.375 C-24.03890625 3.44460937 -24.8278125 3.51421875 -25.640625 3.5859375 C-28.09580281 4.01681308 -29.8010595 4.86388074 -32 6 C-34.75 6.125 -34.75 6.125 -37 6 C-37.33 4.35 -37.66 2.7 -38 1 C-37.67 1.99 -37.34 2.98 -37 4 C-35.845 3.54625 -34.69 3.0925 -33.5 2.625 C-22.6490778 -0.96349395 -11.26104779 -1.57825291 0 0 Z " fill="#F3BE61" transform="translate(340,166)"/>
<path d="M0 0 C-0.69867188 0.40992188 -1.39734375 0.81984375 -2.1171875 1.2421875 C-3.02726562 1.78101563 -3.93734375 2.31984375 -4.875 2.875 C-5.77992187 3.40867188 -6.68484375 3.94234375 -7.6171875 4.4921875 C-10.06603282 5.91975352 -10.06603282 5.91975352 -12 8 C-13.29866452 8.47700416 -14.61364686 8.91066003 -15.9375 9.3125 C-19.89213389 10.69733569 -21.06997567 12.24153156 -23 16 C-23.99 16 -24.98 16 -26 16 C-26 15.34 -26 14.68 -26 14 C-25.34 14 -24.68 14 -24 14 C-23.79375 13.443125 -23.5875 12.88625 -23.375 12.3125 C-19.58568528 5.93956161 -7.47651818 -3.04068921 0 0 Z " fill="#F2C168" transform="translate(92,211)"/>
<path d="M0 0 C1.33332095 2.6666419 0.67102033 4.16680303 0 7 C-0.66 7 -1.32 7 -2 7 C-2.33 9.97 -2.66 12.94 -3 16 C-3.66 16 -4.32 16 -5 16 C-5.66 25.57 -6.32 35.14 -7 45 C-7.33 45 -7.66 45 -8 45 C-8.29871488 29.13492106 -7.56596678 15.75626681 -1 1 C-0.67 0.67 -0.34 0.34 0 0 Z " fill="#F5C063" transform="translate(60,234)"/>
<path d="M0 0 C0.66 1.32 1.32 2.64 2 4 C-2.93335134 9.23539325 -7.4093567 13.96830408 -14 17 C-14.99 17 -15.98 17 -17 17 C-17 16.01 -17 15.02 -17 14 C-15.68 14 -14.36 14 -13 14 C-13 13.34 -13 12.68 -13 12 C-11.68 12 -10.36 12 -9 12 C-9 11.34 -9 10.68 -9 10 C-8.01 10 -7.02 10 -6 10 C-6.33 9.01 -6.66 8.02 -7 7 C-5.35 6.67 -3.7 6.34 -2 6 C-2 5.01 -2 4.02 -2 3 C-1.34 3 -0.68 3 0 3 C0 2.01 0 1.02 0 0 Z " fill="#F3B94E" transform="translate(169,189)"/>
<path d="M0 0 C0.66 0 1.32 0 2 0 C1.12806162 3.81473043 -0.45745502 5.67122056 -3.5625 7.875 C-7.56681568 10.19867224 -10.50401316 10.32686539 -15.01953125 9.6875 C-17 9 -17 9 -20 6 C-13.07 6.495 -13.07 6.495 -6 7 C-5.67 5.68 -5.34 4.36 -5 3 C-3.35 3 -1.7 3 0 3 C0 2.01 0 1.02 0 0 Z " fill="#F0BF5C" transform="translate(418,296)"/>
<path d="M0 0 C7.18880205 1.72458635 14.12347338 4.30909633 21 7 C17.34811918 8.07174763 14.73567172 7.76411467 11 7 C11 6.34 11 5.68 11 5 C10.32453125 4.86722656 9.6490625 4.73445312 8.953125 4.59765625 C8.06109375 4.42105469 7.1690625 4.24445313 6.25 4.0625 C5.36828125 3.88847656 4.4865625 3.71445313 3.578125 3.53515625 C2.07897361 3.22396876 0.58418785 2.88401934 -0.890625 2.47265625 C-3.10962658 1.97543552 -5.05676919 1.88611978 -7.328125 1.90234375 C-8.52695313 1.90717773 -8.52695313 1.90717773 -9.75 1.91210938 C-10.9875 1.92467773 -10.9875 1.92467773 -12.25 1.9375 C-13.09046875 1.94201172 -13.9309375 1.94652344 -14.796875 1.95117188 C-16.86461401 1.96292039 -18.93231624 1.98085478 -21 2 C-15.22015392 -1.85323072 -6.72241906 -0.90140428 0 0 Z " fill="#F2BF64" transform="translate(113,208)"/>
<path d="M0 0 C2.31 0 4.62 0 7 0 C7.33 1.65 7.66 3.3 8 5 C8.78375 4.95875 9.5675 4.9175 10.375 4.875 C13 5 13 5 15 7 C17.89223503 7.46396693 17.89223503 7.46396693 21.125 7.625 C22.76855469 7.73714844 22.76855469 7.73714844 24.4453125 7.8515625 C25.28835937 7.90054687 26.13140625 7.94953125 27 8 C27 8.33 27 8.66 27 9 C11.25512528 9.738041 11.25512528 9.738041 4 5 C4 4.34 4 3.68 4 3 C2.68 2.34 1.36 1.68 0 1 C0 0.67 0 0.34 0 0 Z " fill="#EFB954" transform="translate(88,354)"/>
<path d="M0 0 C-0.33 1.32 -0.66 2.64 -1 4 C-1.845625 3.7834375 -2.69125 3.566875 -3.5625 3.34375 C-13.60092687 0.8797725 -21.77854544 0.8270462 -32 2 C-32 1.34 -32 0.68 -32 0 C-21.24025434 -1.43463275 -10.77676405 -1.18798974 0 0 Z " fill="#F3BD66" transform="translate(160,355)"/>
<path d="M0 0 C2.625 1.6875 2.625 1.6875 3.625 4.6875 C0.655 4.1925 0.655 4.1925 -2.375 3.6875 C-2.375 2.6975 -2.375 1.7075 -2.375 0.6875 C-9.31990614 0.86433789 -13.79762143 2.56905424 -19.375 6.6875 C-17.82957111 3.35624217 -16.50689166 1.68052197 -13.375 -0.3125 C-8.55468844 -1.91927052 -4.74416439 -1.84495282 0 0 Z " fill="#F0BE64" transform="translate(258.375,224.3125)"/>
<path d="M0 0 C9 10.66666667 9 10.66666667 9 15 C8.34 15 7.68 15 7 15 C6.34 14.01 5.68 13.02 5 12 C3.35 12.66 1.7 13.32 0 14 C-0.33 12.02 -0.66 10.04 -1 8 C-0.01 8 0.98 8 2 8 C2 6.68 2 5.36 2 4 C1.34 4 0.68 4 0 4 C0 2.68 0 1.36 0 0 Z " fill="#F8AD2D" transform="translate(377,186)"/>
<path d="M0 0 C1.8313116 5.48036953 0.5065431 11.37174337 0 17 C6.435 16.505 6.435 16.505 13 16 C10.33684806 18.66315194 8.34655932 18.94426493 4.640625 19.09765625 C3.85171875 19.08605469 3.0628125 19.07445312 2.25 19.0625 C1.45078125 19.05347656 0.6515625 19.04445312 -0.171875 19.03515625 C-0.77515625 19.02355469 -1.3784375 19.01195312 -2 19 C-2.19818283 12.29481414 -2.30844801 6.34823202 0 0 Z " fill="#EEBD58" transform="translate(139,190)"/>
<path d="M0 0 C1.32 0.33 2.64 0.66 4 1 C-3.07989332 6.76880196 -10.16130655 6.67314553 -19 6 C-22.21018776 5.25554627 -24.94282411 4.2650383 -28 3 C-28 2.67 -28 2.34 -28 2 C-26.741875 1.95875 -25.48375 1.9175 -24.1875 1.875 C-23.47980469 1.85179687 -22.77210938 1.82859375 -22.04296875 1.8046875 C-20 2 -20 2 -17 4 C-14.02550392 4.24219315 -14.02550392 4.24219315 -10.8125 4.125 C-9.72582031 4.10695313 -8.63914063 4.08890625 -7.51953125 4.0703125 C-6.68808594 4.04710937 -5.85664063 4.02390625 -5 4 C-5 3.34 -5 2.68 -5 2 C-3.35 2 -1.7 2 0 2 C0 1.34 0 0.68 0 0 Z " fill="#EFBC62" transform="translate(188,357)"/>
<path d="M0 0 C7.86532806 1.28939804 16.55092687 3.8403882 21.8203125 10.1953125 C22.40425781 11.08863281 22.40425781 11.08863281 23 12 C20.23723823 11.47731534 17.6739124 10.89130413 15 10 C14.34 9.01 13.68 8.02 13 7 C10.94074861 6.27617533 10.94074861 6.27617533 9 6 C9 5.34 9 4.68 9 4 C4.545 3.01 4.545 3.01 0 2 C0 1.34 0 0.68 0 0 Z " fill="#F0BB56" transform="translate(189,209)"/>
<path d="M0 0 C0.66 0.33 1.32 0.66 2 1 C1.04882866 2.1725131 0.08882991 3.33787015 -0.875 4.5 C-1.67550781 5.47453125 -1.67550781 5.47453125 -2.4921875 6.46875 C-2.98976562 6.9740625 -3.48734375 7.479375 -4 8 C-4.66 8 -5.32 8 -6 8 C-6.4021875 9.36125 -6.4021875 9.36125 -6.8125 10.75 C-7.89576294 13.71471963 -8.98359457 15.6169754 -11 18 C-11 15.03 -11 12.06 -11 9 C-10.01 9 -9.02 9 -8 9 C-7.67 8.01 -7.34 7.02 -7 6 C-6.34 6 -5.68 6 -5 6 C-5 4.68 -5 3.36 -5 2 C-2.625 0.9375 -2.625 0.9375 0 0 Z " fill="#F2BB53" transform="translate(209,234)"/>
<path d="M0 0 C4.6875 3.515625 4.6875 3.515625 6 5 C6 6.32 6 7.64 6 9 C3.69 10.32 1.38 11.64 -1 13 C-1 12.01 -1 11.02 -1 10 C-0.01 10 0.98 10 2 10 C1.67 9.34 1.34 8.68 1 8 C0.01 7.67 -0.98 7.34 -2 7 C-2 6.34 -2 5.68 -2 5 C-1.34 4.67 -0.68 4.34 0 4 C0 2.68 0 1.36 0 0 Z " fill="#F4B239" transform="translate(212,221)"/>
<path d="M0 0 C2.66735273 2.48952921 4.55746343 4.63408134 6 8 C4.35 7.67 2.7 7.34 1 7 C1.350625 7.763125 1.70125 8.52625 2.0625 9.3125 C3 12 3 12 2 15 C1.34 13.02 0.68 11.04 0 9 C-0.66 9 -1.32 9 -2 9 C-2.66 7.02 -3.32 5.04 -4 3 C-3.01 3 -2.02 3 -1 3 C-1 3.99 -1 4.98 -1 6 C-0.34 6 0.32 6 1 6 C0.67 4.02 0.34 2.04 0 0 Z " fill="#F2BD59" transform="translate(296,159)"/>
<path d="M0 0 C1.53616498 7.26187082 0.07979208 12.94985735 -2 20 C-2.33 20 -2.66 20 -3 20 C-3 17.36 -3 14.72 -3 12 C-2.34 12 -1.68 12 -1 12 C-1 8.7 -1 5.4 -1 2 C-2.98 2.33 -4.96 2.66 -7 3 C-7 2.34 -7 1.68 -7 1 C-4.53721199 -0.231394 -2.7204945 -0.07159196 0 0 Z " fill="#EEC97F" transform="translate(181,159)"/>
<path d="M0 0 C0.33 0 0.66 0 1 0 C1.32494469 4.65754061 0.90547505 7.29301459 -2 11 C-4.4375 12.875 -4.4375 12.875 -7 14 C-9.3125 13.6875 -9.3125 13.6875 -11 13 C-9.35 12.67 -7.7 12.34 -6 12 C-5.67 10.35 -5.34 8.7 -5 7 C-4.34 7 -3.68 7 -3 7 C-2.87625 6.21625 -2.7525 5.4325 -2.625 4.625 C-2 2 -2 2 0 0 Z " fill="#F1BC54" transform="translate(363,354)"/>
<path d="M0 0 C1.44375026 2.88750053 0.51131592 4.54057073 -0.3125 7.625 C-0.59351563 8.69492188 -0.87453125 9.76484375 -1.1640625 10.8671875 C-1.43992187 11.90101563 -1.71578125 12.93484375 -2 14 C-2.3992277 15.58248087 -2.79567636 17.16566963 -3.1875 18.75 C-3.455625 19.8225 -3.72375 20.895 -4 22 C-4.33 22 -4.66 22 -5 22 C-5.51408746 14.28868816 -3.89072156 8.15134329 -1 1 C-0.67 0.67 -0.34 0.34 0 0 Z " fill="#EEBB55" transform="translate(274,196)"/>
<path d="M0 0 C-4.98927411 2.99356446 -8.32354367 3.56764563 -14 3 C-14.66 2.01 -15.32 1.02 -16 0 C-13.7089095 -0.19441368 -11.41709663 -0.38033135 -9.125 -0.5625 C-7.21074219 -0.71912109 -7.21074219 -0.71912109 -5.2578125 -0.87890625 C-2 -1 -2 -1 0 0 Z " fill="#F2B341" transform="translate(150,216)"/>
<path d="M0 0 C0.99 0.33 1.98 0.66 3 1 C3.09765625 7.15234375 3.09765625 7.15234375 3 9 C2 10 2 10 -0.06640625 10.09765625 C-0.89011719 10.08605469 -1.71382813 10.07445312 -2.5625 10.0625 C-3.38878906 10.05347656 -4.21507812 10.04445312 -5.06640625 10.03515625 C-5.70449219 10.02355469 -6.34257812 10.01195312 -7 10 C-6.67 8.68 -6.34 7.36 -6 6 C-6 6.66 -6 7.32 -6 8 C-3.69 8 -1.38 8 1 8 C1.20970559 3.85906302 1.20970559 3.85906302 0 0 Z " fill="#F1BF5C" transform="translate(359,191)"/>
<path d="M0 0 C0.8125 1.625 0.8125 1.625 1 4 C-1.57896024 7.98566582 -2.68894669 9.65368403 -7.3125 10.875 C-8.6428125 10.936875 -8.6428125 10.936875 -10 11 C-9.34 9.68 -8.68 8.36 -8 7 C-6.35 7 -4.7 7 -3 7 C-2.67 5.68 -2.34 4.36 -2 3 C-1.34 3 -0.68 3 0 3 C0 2.01 0 1.02 0 0 Z " fill="#EEB84C" transform="translate(319,357)"/>
<path d="M0 0 C1.32 0.66 2.64 1.32 4 2 C2.87895467 3.31587941 1.75303035 4.62760353 0.625 5.9375 C-0.00148437 6.66839844 -0.62796875 7.39929688 -1.2734375 8.15234375 C-3 10 -3 10 -5 11 C-4.67 9.02 -4.34 7.04 -4 5 C-3.01 5 -2.02 5 -1 5 C-0.67 3.35 -0.34 1.7 0 0 Z " fill="#F3BB4E" transform="translate(198,346)"/>
<path d="M0 0 C-0.33 1.32 -0.66 2.64 -1 4 C-1.66 4 -2.32 4 -3 4 C-3.4021875 5.175625 -3.4021875 5.175625 -3.8125 6.375 C-5 9 -5 9 -8 11 C-8.40060526 7.49470398 -8.15413141 6.2260594 -6.125 3.25 C-3.05555556 0 -3.05555556 0 0 0 Z " fill="#EFB84A" transform="translate(210,336)"/>
<path d="M0 0 C-1.04800781 0.61488281 -1.04800781 0.61488281 -2.1171875 1.2421875 C-3.02726562 1.78101563 -3.93734375 2.31984375 -4.875 2.875 C-6.23238281 3.67550781 -6.23238281 3.67550781 -7.6171875 4.4921875 C-10.06603282 5.91975352 -10.06603282 5.91975352 -12 8 C-14.125 7.625 -14.125 7.625 -16 7 C-15.401875 6.7525 -14.80375 6.505 -14.1875 6.25 C-11.88865928 5.13730711 -11.88865928 5.13730711 -10.5625 3 C-7.55567121 -0.84874085 -4.47482153 -1.32059489 0 0 Z " fill="#F3B23E" transform="translate(92,211)"/>
<path d="M0 0 C2.475 0.99 2.475 0.99 5 2 C5 2.66 5 3.32 5 4 C6.32 4.66 7.64 5.32 9 6 C9 6.66 9 7.32 9 8 C7.35 8 5.7 8 4 8 C4 7.01 4 6.02 4 5 C3.01 5 2.02 5 1 5 C0.67 3.35 0.34 1.7 0 0 Z " fill="#F2B951" transform="translate(367,178)"/>
<path d="M0 0 C0.66 0 1.32 0 2 0 C2 1.65 2 3.3 2 5 C2.66 5 3.32 5 4 5 C4.33 8.96 4.66 12.92 5 17 C-0.55263158 5.89473684 -0.55263158 5.89473684 0 0 Z " fill="#F1C169" transform="translate(55,294)"/>
<path d="M0 0 C0.66 0 1.32 0 2 0 C2.09765625 6.15234375 2.09765625 6.15234375 2 8 C1 9 1 9 -0.84765625 9.09765625 C-2.8984375 9.06510417 -4.94921875 9.03255208 -7 9 C-7.33 7.68 -7.66 6.36 -8 5 C-5.36 5.66 -2.72 6.32 0 7 C0 4.69 0 2.38 0 0 Z " fill="#F3C565" transform="translate(305,192)"/>
<path d="M0 0 C0.99 0 1.98 0 3 0 C3.36923077 5.53846154 3.36923077 5.53846154 1.5 7.875 C0.7575 8.431875 0.7575 8.431875 0 9 C0 8.34 0 7.68 0 7 C-0.66 7 -1.32 7 -2 7 C-1.42415568 4.61435923 -0.77772405 2.33317216 0 0 Z " fill="#F2AB33" transform="translate(365,155)"/>
<path d="M0 0 C0.66 0 1.32 0 2 0 C1.54300722 5.02692063 -0.99241748 8.14896261 -4 12 C-5.2077558 8.37673261 -4.54311128 7.35853631 -3 4 C-2.34 4 -1.68 4 -1 4 C-0.67 2.68 -0.34 1.36 0 0 Z " fill="#EEB957" transform="translate(176,179)"/>
<path d="M0 0 C0 0.66 0 1.32 0 2 C-2.64 2.33 -5.28 2.66 -8 3 C-8 3.99 -8 4.98 -8 6 C-9.98 6 -11.96 6 -14 6 C-12.67613295 3.3522659 -11.36742791 3.0592562 -8.6875 1.875 C-7.90761719 1.52179688 -7.12773437 1.16859375 -6.32421875 0.8046875 C-4 0 -4 0 0 0 Z " fill="#EFB54F" transform="translate(173,161)"/>
<path d="M0 0 C1.65 0.33 3.3 0.66 5 1 C5.33 2.32 5.66 3.64 6 5 C4 5 4 5 2.375 3.5 C1.92125 3.005 1.4675 2.51 1 2 C1.33 3.98 1.66 5.96 2 8 C0.4375 6.8125 0.4375 6.8125 -1 5 C-0.6875 2.3125 -0.6875 2.3125 0 0 Z " fill="#EEC167" transform="translate(290,154)"/>
<path d="M0 0 C0.66 0.33 1.32 0.66 2 1 C1.01 2.485 1.01 2.485 0 4 C-0.99 4 -1.98 4 -3 4 C-3.33 5.32 -3.66 6.64 -4 8 C-5.65 8.33 -7.3 8.66 -9 9 C-8.06725891 7.87105124 -7.12859878 6.74699124 -6.1875 5.625 C-5.66542969 4.99851563 -5.14335937 4.37203125 -4.60546875 3.7265625 C-3 2 -3 2 0 0 Z " fill="#F3C268" transform="translate(157,167)"/>
<path d="M0 0 C0.25 2.75 0.25 2.75 0 6 C-2 8.375 -2 8.375 -4 10 C-4.36814024 3.49618902 -4.36814024 3.49618902 -2.5625 1.0625 C-1 0 -1 0 0 0 Z " fill="#F3B644" transform="translate(214,326)"/>
<path d="M0 0 C3.3 0 6.6 0 10 0 C9.67 1.32 9.34 2.64 9 4 C6.03 3.01 3.06 2.02 0 1 C0 0.67 0 0.34 0 0 Z " fill="#F5B84F" transform="translate(150,355)"/>
<path d="M0 0 C6.15234375 0.5859375 6.15234375 0.5859375 8 1 C8.33 1.66 8.66 2.32 9 3 C8.21625 2.95875 7.4325 2.9175 6.625 2.875 C3.83883881 2.71271266 3.83883881 2.71271266 2 5 C1.34 6.32 0.68 7.64 0 9 C0 6.03 0 3.06 0 0 Z " fill="#F2B94D" transform="translate(296,188)"/>
<path d="M0 0 C2.475 0.495 2.475 0.495 5 1 C4.67 3.31 4.34 5.62 4 8 C3.34 8 2.68 8 2 8 C1.34 5.36 0.68 2.72 0 0 Z " fill="#F3A721" transform="translate(297,166)"/>
<path d="M0 0 C-2.26969744 2.26969744 -3.97395487 2.99131829 -7 4 C-8.32 4 -9.64 4 -11 4 C-11 3.34 -11 2.68 -11 2 C-7.17010894 0.19769832 -4.21878192 -0.19622241 0 0 Z " fill="#EFB956" transform="translate(128,357)"/>
<path d="M0 0 C2.50037734 2.17424117 3.43628586 3.73045798 4 7 C4.66 7 5.32 7 6 7 C6 7.66 6 8.32 6 9 C5.34 9 4.68 9 4 9 C3.67 9.66 3.34 10.32 3 11 C0 4.5 0 4.5 0 0 Z " fill="#F2C160" transform="translate(199,285)"/>
<path d="M0 0 C4.6875 3.515625 4.6875 3.515625 6 5 C6 6.32 6 7.64 6 9 C5.01 9.33 4.02 9.66 3 10 C2.690625 8.906875 2.38125 7.81375 2.0625 6.6875 C1.41662103 4.44592006 0.7376883 2.2130649 0 0 Z " fill="#F1C76E" transform="translate(212,221)"/>
<path d="M0 0 C2.38672669 2.96283313 4.7353371 5.94270509 7 9 C6.67 9.66 6.34 10.32 6 11 C5.01 10.67 4.02 10.34 3 10 C2.67 8.02 2.34 6.04 2 4 C1.34 4 0.68 4 0 4 C0 2.68 0 1.36 0 0 Z " fill="#F2C161" transform="translate(377,186)"/>
<path d="M0 0 C1.98 0.99 1.98 0.99 4 2 C4 2.66 4 3.32 4 4 C4.66 4 5.32 4 6 4 C6.33 5.65 6.66 7.3 7 9 C6.34 8.67 5.68 8.34 5 8 C5 7.34 5 6.68 5 6 C4.34 6 3.68 6 3 6 C0 2.53846154 0 2.53846154 0 0 Z " fill="#EFBA5E" transform="translate(78,342)"/>
<path d="M0 0 C0.66 0.33 1.32 0.66 2 1 C-0.20866368 4.4873637 -2.04746952 5.81424086 -6 7 C-6.99 7 -7.98 7 -9 7 C-6.03 4.69 -3.06 2.38 0 0 Z " fill="#F3BE62" transform="translate(295,174)"/>
<path d="M0 0 C0.66 0.33 1.32 0.66 2 1 C1.02433888 2.16959987 0.044375 3.33561177 -0.9375 4.5 C-1.48277344 5.1496875 -2.02804688 5.799375 -2.58984375 6.46875 C-3.05519531 6.9740625 -3.52054688 7.479375 -4 8 C-4.33 8 -4.66 8 -5 8 C-5 6.02 -5 4.04 -5 2 C-2.625 0.9375 -2.625 0.9375 0 0 Z " fill="#F2D075" transform="translate(209,234)"/>
<path d="M0 0 C0.99 0.495 0.99 0.495 2 1 C2 1.66 2 2.32 2 3 C2.639375 3.28875 3.27875 3.5775 3.9375 3.875 C6 5 6 5 7 7 C3 7 3 7 1.25 5.75 C0 4 0 4 0 0 Z " fill="#F0C165" transform="translate(205,294)"/>
<path d="M0 0 C7.50769231 -0.36923077 7.50769231 -0.36923077 10 1.5 C10.495 2.2425 10.495 2.2425 11 3 C9.741875 2.87625 8.48375 2.7525 7.1875 2.625 C6.12595703 2.52058594 6.12595703 2.52058594 5.04296875 2.4140625 C3 2 3 2 0 0 Z " fill="#F2BB52" transform="translate(160,359)"/>
<path d="M0 0 C1.33332095 2.6666419 0.67102033 4.16680303 0 7 C-0.66 7 -1.32 7 -2 7 C-2.33 7.99 -2.66 8.98 -3 10 C-3.33 9.34 -3.66 8.68 -4 8 C-3.22265625 6.0546875 -3.22265625 6.0546875 -2.0625 3.875 C-1.49208984 2.78832031 -1.49208984 2.78832031 -0.91015625 1.6796875 C-0.60980469 1.12539062 -0.30945312 0.57109375 0 0 Z " fill="#F6CB6E" transform="translate(60,234)"/>
<path d="M0 0 C1.37562854 1.28965176 2.70766393 2.62689293 4 4 C4 4.66 4 5.32 4 6 C3.34 6 2.68 6 2 6 C2 5.34 2 4.68 2 4 C0.68 4.33 -0.64 4.66 -2 5 C-1.34 3.35 -0.68 1.7 0 0 Z " fill="#F2B348" transform="translate(416,227)"/>
<path d="M0 0 C-3.03525486 2.02350324 -4.19426202 2.32124018 -7.6875 2.625 C-8.49574219 2.69976562 -9.30398437 2.77453125 -10.13671875 2.8515625 C-10.75160156 2.90054688 -11.36648437 2.94953125 -12 3 C-4.82142857 -1.78571429 -4.82142857 -1.78571429 0 0 Z " fill="#EFC15F" transform="translate(156,213)"/>
<path d="M0 0 C1.32 0.33 2.64 0.66 4 1 C4 3.64 4 6.28 4 9 C3.67 9 3.34 9 3 9 C3 7.35 3 5.7 3 4 C2.34 4 1.68 4 1 4 C0.67 2.68 0.34 1.36 0 0 Z " fill="#F2A82E" transform="translate(304,188)"/>
<path d="M0 0 C0.6875 1.75 0.6875 1.75 1 4 C-0.3125 6.25 -0.3125 6.25 -2 8 C-2.66 8 -3.32 8 -4 8 C-2.87548273 5.0280615 -1.77706209 2.66559313 0 0 Z " fill="#F0BD5E" transform="translate(147,176)"/>
<path d="M0 0 C3.68754757 0.49831724 5.60490662 1.10067643 8 4 C5.125 3.6875 5.125 3.6875 2 3 C1.34 2.01 0.68 1.02 0 0 Z " fill="#EFBD5C" transform="translate(298,364)"/>
<path d="M0 0 C0.33 0 0.66 0 1 0 C1.36923077 5.53846154 1.36923077 5.53846154 -0.5 7.875 C-1.2425 8.431875 -1.2425 8.431875 -2 9 C-2.125 5.625 -2.125 5.625 -2 2 C-1.34 1.34 -0.68 0.68 0 0 Z " fill="#F3B145" transform="translate(363,354)"/>
<path d="M0 0 C0.99 0 1.98 0 3 0 C3.66 1.98 4.32 3.96 5 6 C4.01 6 3.02 6 2 6 C1.34 4.02 0.68 2.04 0 0 Z " fill="#F4BD5C" transform="translate(68,327)"/>
<path d="M0 0 C0.66 0 1.32 0 2 0 C0.75023244 3.65316671 0.32901247 4.78065836 -3 7 C-3 6.01 -3 5.02 -3 4 C-3.66 3.67 -4.32 3.34 -5 3 C-3.35 3 -1.7 3 0 3 C0 2.01 0 1.02 0 0 Z " fill="#F2C460" transform="translate(418,296)"/>
<path d="M0 0 C1.32 0.33 2.64 0.66 4 1 C4.33 2.32 4.66 3.64 5 5 C4.01 5.495 4.01 5.495 3 6 C2.34 5.67 1.68 5.34 1 5 C0.375 2.4375 0.375 2.4375 0 0 Z " fill="#EEAD34" transform="translate(240,297)"/>
<path d="M0 0 C1.25541557 3.76624671 0.37061958 5.37188934 -1 9 C-1.33 9 -1.66 9 -2 9 C-2 6.36 -2 3.72 -2 1 C-1.34 0.67 -0.68 0.34 0 0 Z " fill="#F1C058" transform="translate(180,170)"/>
</svg>
