<?xml version="1.0" encoding="UTF-8"?>
<svg version="1.1" xmlns="http://www.w3.org/2000/svg" width="534" height="468">
<path d="M0 0 C1.09517506 -0.00382555 2.19035011 -0.00765109 3.31871229 -0.01159257 C6.96566279 -0.02186007 10.61245402 -0.01794231 14.25941467 -0.01396179 C16.88340398 -0.01831168 19.50739202 -0.02349576 22.13137817 -0.02944946 C28.50518087 -0.04216118 34.87894138 -0.04399462 41.25275462 -0.0416492 C46.43596962 -0.03986212 51.61917186 -0.04162402 56.80238533 -0.04587364 C57.91128427 -0.04676643 57.91128427 -0.04676643 59.04258521 -0.04767724 C60.54466283 -0.04888906 62.04674045 -0.0501032 63.54881806 -0.05131962 C77.61659294 -0.06218132 91.68434381 -0.06003902 105.75212003 -0.05393478 C118.60600444 -0.04876542 131.45981307 -0.06002398 144.31368249 -0.07903299 C157.53181441 -0.09842995 170.7499105 -0.10666423 183.96805674 -0.10290974 C191.38115437 -0.1010007 198.7941875 -0.10345638 206.20727348 -0.11762428 C213.17834085 -0.13081334 220.14925428 -0.1282529 227.12032127 -0.11521339 C229.67483827 -0.11284944 232.22936596 -0.11557575 234.7838707 -0.12383652 C238.27853352 -0.13432051 241.77268908 -0.12618947 245.26733398 -0.11352539 C246.27124567 -0.12089968 247.27515736 -0.12827396 248.30949062 -0.13587171 C261.57226022 -0.0351867 271.3283293 4.33359441 281.57215881 12.57319641 C287.19302159 19.68193463 290.29565924 28.00685991 291.24403381 36.97554016 C291.33007874 37.77983459 291.41612366 38.58412903 291.504776 39.41279602 C291.56826233 40.02260315 291.63174866 40.63241028 291.69715881 41.26069641 C304.90390888 34.40525343 304.90390888 34.40525343 317.88465881 27.13569641 C323.37719008 23.95513761 328.96193675 21.07082372 334.65126038 18.26679993 C339.35484012 15.94521967 344.00866038 13.54573297 348.63465881 11.07319641 C349.25695374 10.74198792 349.87924866 10.41077942 350.520401 10.0695343 C354.71046927 7.8264631 358.82110237 5.47214743 362.86512756 2.97554016 C365.18742083 2.06940014 366.35188677 2.58320037 368.69715881 3.26069641 C368.76663723 11.5534155 368.81995882 19.8460132 368.85259533 28.1389513 C368.86825842 31.98961472 368.88950804 35.84007916 368.92347717 39.69062805 C368.95604828 43.4059107 368.97400698 47.12100185 368.98179054 50.83641624 C368.98733815 52.25463056 368.99817126 53.67283428 369.01434898 55.09096718 C369.03609071 57.07558109 369.03738394 59.06038727 369.03773499 61.04512024 C369.04772774 62.74055717 369.04772774 62.74055717 369.05792236 64.47024536 C368.69715881 67.26069641 368.69715881 67.26069641 367.28831482 69.08042908 C365.54377175 70.3744739 363.81653375 71.40215044 361.88075256 72.38960266 C361.12576477 72.7797052 360.37077698 73.16980774 359.59291077 73.57173157 C358.78168762 73.98471497 357.97046448 74.39769836 357.13465881 74.82319641 C350.5284285 78.23697239 343.98824257 81.7355606 337.50965881 85.38569641 C331.35231776 88.84077495 325.13299684 92.10374276 318.80140686 95.22651672 C306.33225059 101.38511022 294.10867401 107.99360447 281.97718811 114.78926086 C276.98226772 117.57672555 271.9298765 120.19610877 266.79481506 122.71772766 C256.00688231 128.09128811 245.43743764 133.89884814 234.93690491 139.8105011 C230.92691783 142.05993842 226.88498061 144.19589148 222.76234436 146.2311554 C218.93785931 148.13774642 215.16422092 150.14193815 211.38465881 152.13569641 C210.55667786 152.57188293 209.7286969 153.00806946 208.87562561 153.45747375 C202.78617615 156.67146554 196.7233684 159.92935358 190.69715881 163.26069641 C192.67715881 164.25069641 194.65715881 165.24069641 196.69715881 166.26069641 C196.69715881 166.92069641 196.69715881 167.58069641 196.69715881 168.26069641 C197.9075885 168.36704407 197.9075885 168.36704407 199.14247131 168.47554016 C203.77845627 169.49953244 207.43701602 171.54412593 211.57215881 173.82319641 C213.27452128 174.74127842 214.97765862 175.65792494 216.68153381 176.57319641 C217.52780334 177.02952454 218.37407288 177.48585266 219.24598694 177.95600891 C222.73770486 179.81454881 226.27420768 181.57509225 229.82215881 183.32319641 C236.14489833 186.45124684 242.38553165 189.71698666 248.60804749 193.039505 C252.75107607 195.24700964 256.91915446 197.38092603 261.13465881 199.44819641 C264.68292367 201.20072235 268.08202958 203.05411564 271.44715881 205.13569641 C277.61889841 208.92155584 284.10728803 212.04035801 290.60047913 215.22846985 C293.97426964 216.88943705 297.33518196 218.57598257 300.69715881 220.26069641 C302.00959353 220.91707697 303.32209389 221.57332627 304.63465881 222.22944641 C314.66590881 227.24507141 314.66590881 227.24507141 324.69715881 232.26069641 C324.69715881 232.92069641 324.69715881 233.58069641 324.69715881 234.26069641 C325.69295959 234.38251282 325.69295959 234.38251282 326.70887756 234.50679016 C330.68443618 235.50977423 333.93483937 237.35123383 337.50965881 239.32319641 C339.02174958 240.14262334 340.53479548 240.96028983 342.04872131 241.77632141 C343.20162659 242.3979718 343.20162659 242.3979718 344.37782288 243.03218079 C348.64923694 245.29468137 352.99214095 247.41556497 357.34291077 249.52070618 C368.17395176 254.83631978 368.17395176 254.83631978 369.35191345 258.04319763 C369.75715248 260.64603359 369.82438707 263.12489599 369.82655334 265.76020813 C369.82970551 266.86170197 369.83285767 267.9631958 369.83610535 269.09806824 C369.833069 270.8762645 369.833069 270.8762645 369.82997131 272.69038391 C369.8314064 274.52501694 369.8314064 274.52501694 369.83287048 276.39671326 C369.83355101 278.98402457 369.83170558 281.5713376 369.82752991 284.15864563 C369.82218909 288.11327468 369.82747451 292.06778969 369.83387756 296.02241516 C369.83321658 298.53673833 369.831935 301.05106142 369.82997131 303.56538391 C369.83199554 304.74679962 369.83401978 305.92821533 369.83610535 307.14543152 C369.83295319 308.25322968 369.82980103 309.36102783 369.82655334 310.50239563 C369.82535995 311.95656387 369.82535995 311.95656387 369.82414246 313.44010925 C369.68882072 316.4459038 369.24786018 319.30507098 368.69715881 322.26069641 C363.97589719 322.77253412 361.02009246 321.03870098 357.13465881 318.63569641 C355.88493902 317.89084768 354.63360917 317.14869426 353.38075256 316.40913391 C352.75926331 316.04142883 352.13777405 315.67372375 351.49745178 315.2948761 C348.95258648 313.83297626 346.33628232 312.54306247 343.69715881 311.26069641 C339.26238894 309.09048988 334.96524755 306.73929851 330.69715881 304.26069641 C325.46293948 301.22343319 320.1509055 298.43105623 314.71669006 295.76850891 C310.32272427 293.57436817 306.01683845 291.22443155 301.70497131 288.87397766 C298.72918127 287.27787209 295.72451538 285.75630092 292.69715881 284.26069641 C292.61079163 284.98772766 292.52442444 285.71475891 292.43544006 286.46382141 C291.33357884 294.34869992 289.0451871 301.05349048 285.69715881 308.26069641 C285.03715881 308.26069641 284.37715881 308.26069641 283.69715881 308.26069641 C283.45094788 309.01221985 283.20473694 309.76374329 282.95106506 310.53804016 C280.00114328 316.94332204 272.49123605 320.91224219 266.11621189 323.4145298 C257.41514571 326.45809745 248.66966827 326.56432265 239.5372467 326.57954407 C238.12806453 326.58886235 236.71888774 326.5990263 235.30971718 326.6099596 C231.48267497 326.63719169 227.65566935 326.65239151 223.82855582 326.66537547 C219.74181348 326.6812957 215.6551423 326.70830341 211.56845093 326.7338562 C203.68586806 326.78130163 195.8032713 326.81817113 187.92061478 326.85086864 C181.57969172 326.87731655 175.23879683 326.90751053 168.89790344 326.94029236 C146.58101794 327.05536031 124.26411187 327.15143163 101.94708157 327.23347217 C96.59474493 327.25326362 91.2424165 327.2745536 85.89009094 327.2971344 C71.36354862 327.35828841 56.83706376 327.41025645 42.31040955 327.43592834 C38.1789802 327.4432313 34.04759279 327.45450934 29.91618347 327.46925354 C25.15439787 327.48567913 20.39270821 327.49201354 15.63089561 327.49001884 C13.94275101 327.49076376 12.25460361 327.49475838 10.56647682 327.50255013 C-4.71496958 327.56876061 -22.08477486 327.61949178 -34.30284119 317.26069641 C-34.30284119 316.60069641 -34.30284119 315.94069641 -34.30284119 315.26069641 C-34.96284119 315.26069641 -35.62284119 315.26069641 -36.30284119 315.26069641 C-36.30284119 314.60069641 -36.30284119 313.94069641 -36.30284119 313.26069641 C-36.96284119 313.26069641 -37.62284119 313.26069641 -38.30284119 313.26069641 C-51.24679692 297.96717776 -47.5678418 272.07505611 -47.65293884 253.54804993 C-47.66966845 250.87770942 -47.69460861 248.20917317 -47.73497009 245.53926086 C-47.79366065 241.65085396 -47.81155703 237.76281187 -47.82627869 233.87397766 C-47.84894806 232.68129776 -47.87161743 231.48861786 -47.89497375 230.25979614 C-47.87382196 222.02790058 -47.87382196 222.02790058 -44.92295837 218.0629425 C-42.38273284 216.31564984 -39.97610872 214.86627339 -37.17784119 213.57319641 C-35.58262634 212.80942688 -35.58262634 212.80942688 -33.95518494 212.03022766 C-33.07709167 211.60991272 -33.07709167 211.60991272 -32.18125916 211.18110657 C-28.65898337 209.4552189 -25.20460486 207.59949159 -21.74034119 205.76069641 C-16.00852749 202.72603357 -10.2639253 199.71871191 -4.49815369 196.74897766 C-3.61484123 196.2935408 -3.61484123 196.2935408 -2.71368408 195.8289032 C0.191063 194.33121605 3.0971431 192.83634444 6.0059967 191.34663391 C12.45369942 188.02274937 18.74754856 184.51833804 24.99330139 180.82978821 C28.45208494 178.82260068 31.97695294 177.0082202 35.57215881 175.26069641 C36.92643787 174.59425809 38.28060205 173.92758627 39.63465881 173.26069641 C40.30497131 172.93198547 40.97528381 172.60327454 41.66590881 172.26460266 C43.70479241 171.25692365 45.73338305 170.23096875 47.75965881 169.19819641 C48.40177307 168.8720636 49.04388733 168.54593079 49.70545959 168.20991516 C51.47173059 167.31176428 53.23682455 166.41129977 55.00184631 165.51069641 C57.69715881 164.26069641 57.69715881 164.26069641 59.69715881 164.26069641 C59.69715881 163.60069641 59.69715881 162.94069641 59.69715881 162.26069641 C59.16348694 162.10214172 58.62981506 161.94358704 58.07997131 161.78022766 C51.94847579 159.86015726 46.37256367 157.25835284 40.69715881 154.26069641 C40.69715881 153.60069641 40.69715881 152.94069641 40.69715881 152.26069641 C39.98301819 152.14854797 39.26887756 152.03639954 38.53309631 151.92085266 C35.48070514 151.21030981 33.10764294 150.12995086 30.32215881 148.69819641 C29.27286194 148.16065735 28.22356506 147.62311829 27.14247131 147.06929016 C22.83526844 144.80825282 18.54294999 142.52038568 14.25721741 140.21894836 C10.51531798 138.21378145 6.75322034 136.26746426 2.94715881 134.38569641 C-3.09829065 131.3954741 -9.05232917 128.242018 -15.01036072 125.08247375 C-20.88040647 121.98001864 -26.79377413 118.98007481 -32.78819275 116.12446594 C-33.96107734 115.55262914 -35.12234757 114.95609832 -36.26820374 114.3318634 C-38.31573529 113.21468347 -38.31573529 113.21468347 -40.59938049 112.30619812 C-43.41567597 110.8961134 -45.22780543 109.64897406 -47.30284119 107.26069641 C-48.62283126 102.04593799 -48.42503724 96.89838383 -48.28721619 91.56538391 C-48.27802734 90.01088614 -48.27241121 88.45636355 -48.27018738 86.90184021 C-48.25639906 83.64451794 -48.21325279 80.38942982 -48.14659119 77.13276672 C-48.06216598 72.9905664 -48.02899678 68.85013033 -48.01554489 64.70715141 C-47.99994235 60.72217543 -47.95640853 56.73762621 -47.91221619 52.75288391 C-47.90657402 52.00777431 -47.90093185 51.26266472 -47.89511871 50.49497604 C-47.76714712 37.40209493 -46.73771773 22.89046383 -37.77159119 12.48335266 C-36.30284119 11.26069641 -36.30284119 11.26069641 -34.30284119 11.26069641 C-34.30284119 10.60069641 -34.30284119 9.94069641 -34.30284119 9.26069641 C-32.35446223 8.11854323 -30.39347523 6.9978912 -28.42784119 5.88569641 C-26.79202087 4.94596985 -26.79202087 4.94596985 -25.12315369 3.98725891 C-17.28839268 0.08272548 -8.57921749 -0.0322257 0 0 Z M203.35682678 61.35249329 C201.05745463 61.36239343 198.75808227 61.37224396 196.45870972 61.38204956 C190.30961686 61.40840894 184.16052718 61.43544871 178.01143789 61.4626255 C171.55065172 61.49105922 165.08986276 61.51884661 158.6290741 61.54670715 C147.81517886 61.5934244 137.00128539 61.64052948 126.18739319 61.6879425 C115.06402194 61.73671134 103.94064968 61.78523864 92.817276 61.83345032 C92.12813684 61.83643731 91.43899768 61.83942431 90.72897552 61.84250182 C87.27072343 61.85748976 83.81247132 61.87247305 80.3542192 61.88745403 C51.80186258 62.01114745 23.24950957 62.13565856 -5.30284119 62.26069641 C-3.8878727 65.09063338 -2.24572164 65.14512081 0.69715881 66.26069641 C3.0434725 67.38591175 5.3734829 68.52816413 7.69715881 69.69819641 C8.3806842 70.0409259 9.06420959 70.3836554 9.76844788 70.73677063 C16.61791378 74.18893802 23.40517313 77.75867602 30.19276428 81.33052063 C35.61758336 84.18239716 41.07002094 86.96280917 46.56434631 89.67866516 C50.72054325 91.77749279 54.83205 93.95766009 58.94715881 96.13569641 C64.9123497 99.29266441 70.89883435 102.39102545 76.94715881 105.38569641 C82.2180044 107.99776777 87.44516198 110.67777039 92.63465881 113.44819641 C93.25735657 113.78029114 93.88005432 114.11238586 94.5216217 114.45454407 C98.69254751 116.6916719 102.80594214 119.01428642 106.86512756 121.44819641 C108.97256075 122.53097305 108.97256075 122.53097305 112.69715881 122.26069641 C112.69715881 122.92069641 112.69715881 123.58069641 112.69715881 124.26069641 C117.15215881 125.74569641 117.15215881 125.74569641 121.69715881 127.26069641 C121.69715881 127.92069641 121.69715881 128.58069641 121.69715881 129.26069641 C125.64641562 128.70963732 129.04636055 127.8713427 132.69715881 126.26069641 C132.69715881 125.60069641 132.69715881 124.94069641 132.69715881 124.26069641 C133.24629944 124.14854797 133.79544006 124.03639954 134.36122131 123.92085266 C142.5760881 121.59925987 150.14775737 116.47668119 157.49476624 112.21894836 C162.01641615 109.61261219 166.61770009 107.25143522 171.30262756 104.95600891 C175.63695294 102.79134008 179.91550631 100.52735526 184.19715881 98.26069641 C189.35560285 95.53034614 194.5171125 92.82728376 199.75965881 90.26069641 C204.7372358 87.80657071 209.55403281 85.11300862 214.38465881 82.38569641 C221.00509704 78.65489952 227.71019682 75.27540723 234.61561584 72.10688782 C241.13584641 69.10335925 247.4250119 65.75128252 253.69715881 62.26069641 C253.69715881 61.93069641 253.69715881 61.60069641 253.69715881 61.26069641 C236.91675075 61.24847689 220.13705761 61.27716439 203.35682678 61.35249329 Z M118.87294006 198.47163391 C117.93546936 198.9700177 116.99799866 199.46840149 116.03211975 199.98188782 C115.03470764 200.52764465 114.03729553 201.07340149 113.00965881 201.63569641 C111.97744202 202.18789856 110.94522522 202.74010071 109.88172913 203.30903625 C107.78910375 204.42932082 105.69906823 205.55445712 103.61170959 206.68452454 C100.40914784 208.41645105 97.19311736 210.12112536 93.97206116 211.8183136 C91.94187843 212.88847985 89.91501908 213.96473892 87.88856506 215.04194641 C84.88183305 216.63750165 81.86769109 218.21817242 78.84950256 219.79194641 C68.57426932 225.14749338 68.57426932 225.14749338 58.50965881 230.88569641 C51.44284346 235.08439005 44.0717225 238.64243033 36.69715881 242.26069641 C27.87548225 246.61683433 19.13561443 251.09994554 10.44398499 255.70942688 C5.56102185 258.29620082 0.64867726 260.80749536 -4.30284119 263.26069641 C-4.30284119 263.59069641 -4.30284119 263.92069641 -4.30284119 264.26069641 C80.83715881 264.26069641 165.97715881 264.26069641 253.69715881 264.26069641 C250.56076133 261.12429893 247.49887728 259.51434695 243.57215881 257.63569641 C242.1207551 256.92656309 240.67026277 256.21556195 239.22059631 255.50288391 C238.09862854 254.95132629 238.09862854 254.95132629 236.95399475 254.3886261 C233.33297399 252.57889915 229.76596623 250.67079137 226.19715881 248.76069641 C220.77675477 245.86730595 215.32858928 243.04929483 209.82215881 240.32319641 C201.54426271 236.22055941 193.38079095 231.91114402 185.21522522 227.59028625 C180.88191784 225.30221257 176.53914934 223.03223588 172.19715881 220.76069641 C165.40269504 217.20351009 158.61014292 213.64273383 151.82215881 210.07319641 C151.04670715 209.66593323 150.27125549 209.25867004 149.4723053 208.83906555 C145.74309197 206.87738309 142.02268361 204.90164327 138.31825256 202.89350891 C137.28837219 202.33699646 137.28837219 202.33699646 136.23768616 201.76924133 C134.9611343 201.07802521 133.68656094 200.38313665 132.41444397 199.68379211 C126.98144024 196.74433427 124.47693815 195.44481482 118.87294006 198.47163391 Z " fill="#F8A411" transform="translate(102.30284118652344,65.73930358886719)"/>
<path d="M0 0 C33.43655721 -0.02287743 66.87311247 -0.04050386 100.30967577 -0.05106533 C104.25511589 -0.05231607 108.200556 -0.05361039 112.14599609 -0.05493164 C112.93147854 -0.05519395 113.71696098 -0.05545626 114.52624592 -0.05572652 C127.25290338 -0.06008054 139.97955634 -0.06796663 152.70621112 -0.0771528 C165.7601334 -0.08649676 178.81405332 -0.09205719 191.86797881 -0.09408849 C199.92613645 -0.09546217 207.98428136 -0.09980441 216.04243508 -0.10791647 C222.21628904 -0.11381588 228.39013324 -0.11445707 234.56398964 -0.11310768 C237.10047547 -0.11338364 239.63696178 -0.115384 242.17344475 -0.11920547 C245.6271428 -0.12415524 249.08078563 -0.12299347 252.53448486 -0.12025452 C254.05198692 -0.12462378 254.05198692 -0.12462378 255.60014558 -0.12908131 C256.52424281 -0.12709026 257.44834004 -0.12509921 258.40044022 -0.12304783 C259.19785291 -0.12342755 259.9952656 -0.12380727 260.81684232 -0.1241985 C263.04458559 0.00253645 264.90096 0.23516611 267 1 C268.25 3.5625 268.25 3.5625 269 6 C264.25 9 264.25 9 262 9 C262 9.99 262 10.98 262 12 C260.02 12 258.04 12 256 12 C256 10.35 256 8.7 256 7 C255.195625 7.804375 254.39125 8.60875 253.5625 9.4375 C250.18257729 12.30922431 247.29608714 12.62138494 242.953125 12.76171875 C240.76394964 12.82520343 240.76394964 12.82520343 239 15 C238.01 15 237.02 15 236 15 C236 15.66 236 16.32 236 17 C235.34 17 234.68 17 234 17 C234 17.66 234 18.32 234 19 C233.443125 19.17015625 232.88625 19.3403125 232.3125 19.515625 C227.51814608 21.03815631 223.13752474 22.80716234 218.7265625 25.23046875 C217 26 217 26 214 26 C214 26.66 214 27.32 214 28 C210.52692308 30.10865385 210.52692308 30.10865385 207.859375 29.55859375 C207.24578125 29.37425781 206.6321875 29.18992188 206 29 C206.74552124 28.60844727 206.74552124 28.60844727 207.50610352 28.20898438 C209.85848854 26.97313679 212.21053763 25.73665176 214.5625 24.5 C215.42786377 24.04512207 216.29322754 23.59024414 217.18481445 23.12158203 C221.76352238 20.71226836 226.33441609 18.28984534 230.89160156 15.84008789 C239.17673805 11.38778439 247.56909227 7.16867324 256 3 C256.66 2.67 257.32 2.34 258 2 C130.29 2.495 130.29 2.495 0 3 C0 2.01 0 1.02 0 0 Z " fill="#9D6C46" transform="translate(96,126)"/>
<path d="M0 0 C1.09517506 -0.00382555 2.19035011 -0.00765109 3.31871229 -0.01159257 C6.96566279 -0.02186007 10.61245402 -0.01794231 14.25941467 -0.01396179 C16.88340398 -0.01831168 19.50739202 -0.02349576 22.13137817 -0.02944946 C28.50518087 -0.04216118 34.87894138 -0.04399462 41.25275462 -0.0416492 C46.43596962 -0.03986212 51.61917186 -0.04162402 56.80238533 -0.04587364 C57.91128427 -0.04676643 57.91128427 -0.04676643 59.04258521 -0.04767724 C60.54466283 -0.04888906 62.04674045 -0.0501032 63.54881806 -0.05131962 C77.61659294 -0.06218132 91.68434381 -0.06003902 105.75212003 -0.05393478 C118.60600444 -0.04876542 131.45981307 -0.06002398 144.31368249 -0.07903299 C157.53181441 -0.09842995 170.7499105 -0.10666423 183.96805674 -0.10290974 C191.38115437 -0.1010007 198.7941875 -0.10345638 206.20727348 -0.11762428 C213.17834085 -0.13081334 220.14925428 -0.1282529 227.12032127 -0.11521339 C229.67483827 -0.11284944 232.22936596 -0.11557575 234.7838707 -0.12383652 C238.27853352 -0.13432051 241.77268908 -0.12618947 245.26733398 -0.11352539 C246.27124567 -0.12089968 247.27515736 -0.12827396 248.30949062 -0.13587171 C261.57226022 -0.0351867 271.3283293 4.33359441 281.57215881 12.57319641 C287.19302159 19.68193463 290.29565924 28.00685991 291.24403381 36.97554016 C291.33007874 37.77983459 291.41612366 38.58412903 291.504776 39.41279602 C291.56826233 40.02260315 291.63174866 40.63241028 291.69715881 41.26069641 C292.20166565 40.98805969 292.70617249 40.71542297 293.22596741 40.43452454 C295.50574556 39.20561855 297.78888411 37.98309267 300.07215881 36.76069641 C301.26325256 36.11680969 301.26325256 36.11680969 302.47840881 35.45991516 C303.23895569 35.05386047 303.99950256 34.64780579 304.78309631 34.22944641 C305.83569641 33.66387024 305.83569641 33.66387024 306.90956116 33.08686829 C308.69715881 32.26069641 308.69715881 32.26069641 310.69715881 32.26069641 C310.69715881 32.92069641 310.69715881 33.58069641 310.69715881 34.26069641 C307.97371299 35.75057884 305.24250267 37.22563378 302.50965881 38.69819641 C301.74073303 39.11907532 300.97180725 39.53995422 300.17958069 39.97358704 C296.38217721 42.01082066 293.05120646 43.78079136 288.69715881 44.26069641 C288.44192444 42.70608704 288.44192444 42.70608704 288.18153381 41.12007141 C287.93757195 39.75013171 287.69273402 38.38034782 287.44715881 37.01069641 C287.3375885 36.32878235 287.22801819 35.64686829 287.11512756 34.94429016 C286.27119322 30.36927765 284.99961389 28.40073567 281.69715881 25.26069641 C281.30653381 22.90132141 281.30653381 22.90132141 281.44715881 20.51069641 C281.48325256 19.71147766 281.51934631 18.91225891 281.55653381 18.08882141 C281.60294006 17.48554016 281.64934631 16.88225891 281.69715881 16.26069641 C280.37715881 16.26069641 279.05715881 16.26069641 277.69715881 16.26069641 C277.36715881 15.37382141 277.03715881 14.48694641 276.69715881 13.57319641 C274.05950193 9.20457719 271.40753064 7.17973679 266.69715881 5.26069641 C263.28599777 4.52745619 259.92012669 4.02206159 256.45497131 3.62007141 C253.69715881 3.26069641 253.69715881 3.26069641 251.69715881 2.26069641 C249.08083262 2.16281658 246.49112901 2.12614917 243.87452698 2.13371277 C243.05619495 2.13215278 242.23786292 2.13059279 241.39473295 2.12898552 C238.63419547 2.12497684 235.87371239 2.12816537 233.11317444 2.13130188 C231.13804594 2.12994719 229.16291769 2.12816688 227.18778992 2.12599182 C221.79161785 2.12140886 216.3954648 2.12321494 210.99929237 2.12637091 C205.30088374 2.12890978 199.60247669 2.1265509 193.90406799 2.12498474 C184.27292086 2.12315924 174.64178135 2.12557067 165.01063538 2.13032532 C155.23523964 2.13509697 145.45985918 2.13521026 135.6844635 2.13032532 C59.68470188 2.05166577 59.68470188 2.05166577 -16.30284119 3.26069641 C-16.30284119 3.92069641 -16.30284119 4.58069641 -16.30284119 5.26069641 C-17.17295837 5.42505188 -17.17295837 5.42505188 -18.06065369 5.59272766 C-25.44325005 7.09117544 -32.17548165 9.43039242 -37.30284119 15.26069641 C-40.24613707 20.06333243 -42.37710409 24.6863655 -43.30284119 30.26069641 C-43.96284119 30.26069641 -44.62284119 30.26069641 -45.30284119 30.26069641 C-44.79694907 23.85272961 -41.94662941 17.35406283 -37.76377869 12.45991516 C-36.30284119 11.26069641 -36.30284119 11.26069641 -34.30284119 11.26069641 C-34.30284119 10.60069641 -34.30284119 9.94069641 -34.30284119 9.26069641 C-32.35446223 8.11854323 -30.39347523 6.9978912 -28.42784119 5.88569641 C-26.79202087 4.94596985 -26.79202087 4.94596985 -25.12315369 3.98725891 C-17.28839268 0.08272548 -8.57921749 -0.0322257 0 0 Z " fill="#935A48" transform="translate(102.30284118652344,65.73930358886719)"/>
<path d="M0 0 C-0.79019531 0.38929688 -1.58039063 0.77859375 -2.39453125 1.1796875 C-10.46687023 5.18356763 -18.46252156 9.31652456 -26.42504883 13.53466797 C-27.19228271 13.94088379 -27.9595166 14.34709961 -28.75 14.765625 C-29.42546875 15.12430664 -30.1009375 15.48298828 -30.796875 15.85253906 C-33.51491983 17.26818741 -36.25787312 18.63168477 -39 20 C-6.54855187 20.02279371 25.90289396 20.04049991 58.35434826 20.05106533 C62.18219573 20.05231609 66.01004318 20.05361041 69.83789062 20.05493164 C70.98101384 20.05532511 70.98101384 20.05532511 72.14723046 20.05572652 C84.50018059 20.06008239 96.85312608 20.06796948 109.20607345 20.0771528 C121.87352182 20.08649164 134.54096777 20.0920561 147.20841944 20.09408849 C155.03012017 20.09546324 162.85180779 20.09981123 170.67350449 20.10791647 C176.66281122 20.11380818 182.65210658 20.11445837 188.64141655 20.11310768 C191.10456485 20.11338401 193.56771363 20.11538921 196.03085899 20.11920547 C199.3801596 20.1241425 202.72940305 20.12299822 206.07870483 20.12025452 C207.06507097 20.12316736 208.0514371 20.1260802 209.06769311 20.12908131 C209.95994108 20.12709026 210.85218905 20.12509921 211.77147484 20.12304783 C212.54534487 20.12342755 213.3192149 20.12380727 214.11653554 20.1241985 C216.0904903 20.11616834 216.0904903 20.11616834 218 19 C218.66 19.33 219.32 19.66 220 20 C220 20.66 220 21.32 220 22 C197.55597889 22.13333066 175.11194238 22.26376179 152.66788673 22.39115143 C142.23594013 22.4504226 131.80399957 22.51049946 121.37207031 22.57275391 C65.91408703 22.90315991 10.45898345 23.0757644 -45 23 C-45 22.01 -45 21.02 -45 20 C-44.01 20 -43.02 20 -42 20 C-42 19.34 -42 18.68 -42 18 C-40.68 18 -39.36 18 -38 18 C-38 17.34 -38 16.68 -38 16 C-36.865625 15.566875 -35.73125 15.13375 -34.5625 14.6875 C-33.386875 14.130625 -32.21125 13.57375 -31 13 C-30.67 12.01 -30.34 11.02 -30 10 C-28.02 10 -26.04 10 -24 10 C-24 9.01 -24 8.02 -24 7 C-21.36 7 -18.72 7 -16 7 C-15.34 5.35 -14.68 3.7 -14 2 C-11.69 2 -9.38 2 -7 2 C-7 1.34 -7 0.68 -7 0 C-3.98968256 -0.93423645 -3.13349732 -1.04449911 0 0 Z " fill="#79555F" transform="translate(139,309)"/>
<path d="M0 0 C6.93 0.495 6.93 0.495 14 1 C14 1.66 14 2.32 14 3 C100.79 3 187.58 3 277 3 C277 3.33 277 3.66 277 4 C121.73024337 5.09892093 121.73024337 5.09892093 65.60317993 5.17724609 C61.47601875 5.18307679 57.34891077 5.19347097 53.22177124 5.20800781 C48.45928062 5.22440906 43.69688394 5.23092866 38.93436623 5.22919655 C37.2459545 5.2300232 35.55754018 5.23407212 33.86914635 5.24188805 C22.26689477 5.29213922 11.05367891 4.8992788 0 1 C0 0.67 0 0.34 0 0 Z " fill="#774E48" transform="translate(79,388)"/>
<path d="M0 0 C0.66 0.33 1.32 0.66 2 1 C-0.98671756 3.57189568 -3.13857796 5.21616433 -7 6 C-6.89231222 13.60637648 -6.77964162 21.21266542 -6.66066074 28.81887341 C-6.60556493 32.35097936 -6.55216687 35.88309378 -6.50268555 39.4152832 C-6.44568633 43.47876668 -6.38123675 47.54210262 -6.31640625 51.60546875 C-6.29969376 52.8702153 -6.28298126 54.13496185 -6.26576233 55.43803406 C-6.24581711 56.61888077 -6.22587189 57.79972748 -6.20532227 59.01635742 C-6.18977798 60.05338303 -6.1742337 61.09040863 -6.15821838 62.15885925 C-5.96721877 65.58865534 -5.34444408 68.75049941 -4.43359375 72.0546875 C-3.96188118 74.17101956 -3.97071522 75.96207166 -4.0625 78.125 C-4.13937162 83.25831581 -3.16453548 88.0195313 -2 93 C-1.34 93 -0.68 93 0 93 C0.33 92.01 0.66 91.02 1 90 C1 90.66 1 91.32 1 92 C3.475 91.01 3.475 91.01 6 90 C6.66 93.3 7.32 96.6 8 100 C8.66 100 9.32 100 10 100 C9.67 101.32 9.34 102.64 9 104 C9.66 104 10.32 104 11 104 C11.495 104.99 11.495 104.99 12 106 C13.485 106.99 13.485 106.99 15 108 C10.4923533 107.46968862 7.58045212 105.74778884 4 103 C4 102.34 4 101.68 4 101 C3.34 101 2.68 101 2 101 C2 100.34 2 99.68 2 99 C1.34 99 0.68 99 0 99 C-12.94395573 83.70648135 -9.26500061 57.8143597 -9.35009766 39.28735352 C-9.36682726 36.61701301 -9.39176742 33.94847675 -9.43212891 31.27856445 C-9.49081946 27.39015755 -9.50871584 23.50211546 -9.5234375 19.61328125 C-9.54610687 18.42060135 -9.56877625 17.22792145 -9.59213257 15.99909973 C-9.57097033 7.76313611 -9.57097033 7.76313611 -6.60400391 3.79760742 C-2.20348658 0.75982296 -2.20348658 0.75982296 0 0 Z " fill="#F09E12" transform="translate(64,280)"/>
<path d="M0 0 C3.79148763 1.46902657 7.46458708 3.10442433 11.125 4.875 C12.67574219 5.61363281 12.67574219 5.61363281 14.2578125 6.3671875 C17.13144035 8.07826505 18.2989115 9.16276454 20 12 C20.36749268 14.64254761 20.36749268 14.64254761 20.35644531 17.68310547 C20.35944641 18.82464081 20.36244751 19.96617615 20.36553955 21.14230347 C20.35319275 22.3715152 20.34084595 23.60072693 20.328125 24.8671875 C20.32625183 26.13466827 20.32437866 27.40214905 20.32244873 28.70803833 C20.31572445 31.38981105 20.30345226 34.07082507 20.28125 36.75244141 C20.25302543 40.17756417 20.24204311 43.60244952 20.2375679 47.02767754 C20.23239155 50.30754332 20.21785273 53.58735261 20.203125 56.8671875 C20.19887512 58.09235077 20.19462524 59.31751404 20.19024658 60.57980347 C20.18063904 61.72764313 20.17103149 62.87548279 20.16113281 64.05810547 C20.15430481 65.06308075 20.14747681 66.06805603 20.14044189 67.10348511 C19.9935085 70.13388256 19.55548915 73.01961768 19 76 C14.27881153 76.51182978 11.32289492 74.77815867 7.4375 72.375 C6.19690834 71.63533763 4.95468975 70.89839786 3.7109375 70.1640625 C3.09057617 69.79700195 2.47021484 69.42994141 1.83105469 69.05175781 C-1.80653426 66.96232672 -5.59028076 65.1651034 -9.35546875 63.3203125 C-12.65391451 61.67352569 -15.8268316 59.87505405 -19 58 C-15.93213795 57.05658001 -13.6073376 57.00305525 -10.4375 57.4375 C-7.89564107 57.77612876 -5.57385756 58 -3 58 C-3.33 59.98 -3.66 61.96 -4 64 C-0.58221234 65.63942647 -0.58221234 65.63942647 3.125 65.75 C5.27789956 64.96351898 5.27789956 64.96351898 8 63 C8.66 63.33 9.32 63.66 10 64 C10 64.66 10 65.32 10 66 C9.34 66 8.68 66 8 66 C8 66.66 8 67.32 8 68 C8.825 68.495 9.65 68.99 10.5 69.5 C11.325 69.995 12.15 70.49 13 71 C13 71.66 13 72.32 13 73 C14.32 73 15.64 73 17 73 C16.91536224 65.68884661 16.82038957 58.37790292 16.71247292 51.06705379 C16.66267411 47.67177804 16.61634379 44.27653093 16.578125 40.88110352 C16.53396113 36.97134346 16.47437849 33.06188928 16.4140625 29.15234375 C16.40251129 27.94166733 16.39096008 26.73099091 16.37905884 25.48362732 C16.2664713 17.04047344 16.2664713 17.04047344 14 9 C11.5246607 7.31712544 9.56994722 6.20184897 6.875 5.0625 C6.21628906 4.76021484 5.55757813 4.45792969 4.87890625 4.14648438 C3.26263071 3.40861945 1.63252649 2.70117652 0 2 C0 1.34 0 0.68 0 0 Z " fill="#C78036" transform="translate(452,312)"/>
<path d="M0 0 C1.3921875 0.3403125 1.3921875 0.3403125 2.8125 0.6875 C0.98488528 6.17034415 -4.6644132 9.32421923 -9.609375 11.99609375 C-15.10628168 14.51397215 -20.07469727 15.81439924 -26.15461731 15.80775452 C-27.12911835 15.80912918 -28.10361938 15.81050385 -29.10765076 15.81192017 C-30.16500931 15.80832489 -31.22236786 15.80472961 -32.31176758 15.80102539 C-33.43415833 15.80117142 -34.55654907 15.80131744 -35.71295166 15.8014679 C-39.41933125 15.80077176 -43.12566045 15.79299328 -46.83203125 15.78515625 C-49.40321322 15.78329101 -51.97439555 15.78186761 -54.545578 15.78086853 C-60.61925941 15.77744173 -66.69292005 15.76956183 -72.76659364 15.75951904 C-79.68314138 15.74833146 -86.59968999 15.74284079 -93.51624453 15.73782361 C-107.74000604 15.7273785 -121.96375238 15.70979555 -136.1875 15.6875 C-136.1875 15.3575 -136.1875 15.0275 -136.1875 14.6875 C-79.7575 14.1925 -79.7575 14.1925 -22.1875 13.6875 C-22.1875 13.0275 -22.1875 12.3675 -22.1875 11.6875 C-20.90875 11.543125 -19.63 11.39875 -18.3125 11.25 C-15.93057106 10.98107254 -14.34297309 10.76523654 -12.1875 9.6875 C-12.001875 8.7903125 -12.001875 8.7903125 -11.8125 7.875 C-10.98694477 4.98555668 -9.38398357 3.67142064 -7.1875 1.6875 C-6.8575 2.0175 -6.5275 2.3475 -6.1875 2.6875 C-5.630625 1.9140625 -5.630625 1.9140625 -5.0625 1.125 C-3.1875 -0.3125 -3.1875 -0.3125 0 0 Z " fill="#DC8B45" transform="translate(382.1875,375.3125)"/>
<path d="M0 0 C0.66 0.33 1.32 0.66 2 1 C0.89932004 1.81721717 -0.20569731 2.62859451 -1.3125 3.4375 C-1.92738281 3.88996094 -2.54226562 4.34242188 -3.17578125 4.80859375 C-5 6 -5 6 -8 7 C-8.99 8.2684375 -8.99 8.2684375 -10 9.5625 C-10.66 10.366875 -11.32 11.17125 -12 12 C-12.99 12 -13.98 12 -15 12 C-14.67 13.98 -14.34 15.96 -14 18 C-14.639375 18.28875 -15.27875 18.5775 -15.9375 18.875 C-18.15206079 19.82823451 -18.15206079 19.82823451 -19 22 C-19.99 22 -20.98 22 -22 22 C-22 21.34 -22 20.68 -22 20 C-22.99 20.33 -23.98 20.66 -25 21 C-27.56634861 21.22718496 -30.11678107 21.41608184 -32.6875 21.5625 C-33.7403418 21.62727539 -33.7403418 21.62727539 -34.81445312 21.69335938 C-36.54275206 21.7991736 -38.2713511 21.90006581 -40 22 C-30.40729752 14.43294101 -18.71194414 9.18715359 -7.76171875 3.87255859 C-6.04136321 3.02048671 -4.34816657 2.11426221 -2.65625 1.20703125 C-1.7796875 0.80871094 -0.903125 0.41039062 0 0 Z " fill="#F2A014" transform="translate(152,234)"/>
<path d="M0 0 C-0.79019531 0.38929688 -1.58039063 0.77859375 -2.39453125 1.1796875 C-10.4082481 5.15449106 -18.34662534 9.25532966 -26.24926758 13.44677734 C-27.01005615 13.84977051 -27.77084473 14.25276367 -28.5546875 14.66796875 C-29.21968262 15.02141357 -29.88467773 15.3748584 -30.56982422 15.73901367 C-34.02618725 17.5324751 -37.51713344 19.25856672 -41 21 C-15.26 21.33 10.48 21.66 37 22 C37 22.33 37 22.66 37 23 C9.94 23 -17.12 23 -45 23 C-45 22.01 -45 21.02 -45 20 C-44.01 20 -43.02 20 -42 20 C-42 19.34 -42 18.68 -42 18 C-40.68 18 -39.36 18 -38 18 C-38 17.34 -38 16.68 -38 16 C-36.865625 15.566875 -35.73125 15.13375 -34.5625 14.6875 C-33.386875 14.130625 -32.21125 13.57375 -31 13 C-30.67 12.01 -30.34 11.02 -30 10 C-28.02 10 -26.04 10 -24 10 C-24 9.01 -24 8.02 -24 7 C-21.36 7 -18.72 7 -16 7 C-15.34 5.35 -14.68 3.7 -14 2 C-11.69 2 -9.38 2 -7 2 C-7 1.34 -7 0.68 -7 0 C-3.98968256 -0.93423645 -3.13349732 -1.04449911 0 0 Z " fill="#A1634C" transform="translate(139,309)"/>
<path d="M0 0 C0.33 0 0.66 0 1 0 C1.33 23.76 1.66 47.52 2 72 C2.66 72 3.32 72 4 72 C4.0825 73.11375 4.165 74.2275 4.25 75.375 C4.4975 76.57125 4.745 77.7675 5 79 C6.91764174 80.3762794 6.91764174 80.3762794 9 81 C9.33 81.66 9.66 82.32 10 83 C5.48315917 81.73948628 2.32061549 80.35228556 -1 77 C-1.60800171 73.86392212 -1.60800171 73.86392212 -1.58349609 70.12353516 C-1.58583252 69.4400853 -1.58816895 68.75663544 -1.59057617 68.05247498 C-1.59218864 65.797222 -1.55817515 63.54402483 -1.5234375 61.2890625 C-1.51664453 59.71732317 -1.51192447 58.14557364 -1.50918579 56.57382202 C-1.49577552 52.43621807 -1.4514932 48.29947249 -1.40161133 44.16217041 C-1.36628292 40.79389874 -1.35314288 37.42571492 -1.34119225 34.05729103 C-1.32635859 30.03032796 -1.30117742 26.00345501 -1.2734375 21.9765625 C-1.26852673 21.21243671 -1.26361595 20.44831093 -1.25855637 19.66102982 C-1.24217484 17.48567374 -1.21876535 15.31051526 -1.19287109 13.13525391 C-1.18001068 11.89933502 -1.16715027 10.66341614 -1.15390015 9.39004517 C-1.00815577 6.17965176 -0.60246775 3.15348854 0 0 Z " fill="#9A705A" transform="translate(56,96)"/>
<path d="M0 0 C0.06947842 8.29271909 0.12280001 16.58531679 0.15543652 24.87825489 C0.1710996 28.72891831 0.19234923 32.57938275 0.22631836 36.42993164 C0.25888946 40.14521429 0.27684817 43.86030544 0.28463173 47.57571983 C0.29017934 48.99393415 0.30101244 50.41213787 0.31719017 51.83027077 C0.3389319 53.81488467 0.34022513 55.79969086 0.34057617 57.78442383 C0.34723801 58.91471512 0.35389984 60.04500641 0.36076355 61.20954895 C0 64 0 64 -1.41386414 65.8132782 C-4.18623651 67.88752342 -6.88768606 69.44384303 -10 71 C-10.99 70.67 -11.98 70.34 -13 70 C-11.515 69.505 -11.515 69.505 -10 69 C-10 68.34 -10 67.68 -10 67 C-6.04 66.01 -6.04 66.01 -2 65 C-2 44.21 -2 23.42 -2 2 C-4.64 2.66 -7.28 3.32 -10 4 C-4.75 -1.425 -4.75 -1.425 0 0 Z " fill="#4B2F5D" transform="translate(471,69)"/>
<path d="M0 0 C0.66386719 0.08378906 1.32773438 0.16757813 2.01171875 0.25390625 C8.54720848 1.05425042 8.54720848 1.05425042 15 0 C15 0.99 15 1.98 15 3 C15.886875 2.773125 16.77375 2.54625 17.6875 2.3125 C21 2 21 2 23.8125 3.1875 C26 5 26 5 26.8125 6.9375 C26.99554513 8.95099648 27 10.9782004 27 13 C27.825 13.2475 28.65 13.495 29.5 13.75 C33.52373471 15.18704811 37.21979024 17.02354515 41 19 C41 19.66 41 20.32 41 21 C36.39729403 19.61499121 32.31346916 17.69358685 28.125 15.375 C21.91726875 11.99216599 15.64207374 8.78520604 9.27978516 5.70263672 C5.93188626 4.05896763 2.88505918 2.37378287 0 0 Z " fill="#D78E21" transform="translate(66,179)"/>
<path d="M0 0 C-10.12255628 5.64863634 -20.24853664 11.24573836 -30.6628418 16.34155273 C-34.99873844 18.46837467 -39.18736228 20.75568643 -43.30078125 23.28515625 C-45 24 -45 24 -48 23 C-47.34 23 -46.68 23 -46 23 C-45.67 22.01 -45.34 21.02 -45 20 C-43.68 20 -42.36 20 -41 20 C-41 19.34 -41 18.68 -41 18 C-40.01 18 -39.02 18 -38 18 C-38.495 17.401875 -38.99 16.80375 -39.5 16.1875 C-41 14 -41 14 -41 11 C-41.99 10.67 -42.98 10.34 -44 10 C-43 9 -43 9 -40.4375 8.9375 C-39.633125 8.958125 -38.82875 8.97875 -38 9 C-37.67 10.32 -37.34 11.64 -37 13 C-34.36 12.67 -31.72 12.34 -29 12 C-29.99 11.67 -30.98 11.34 -32 11 C-29.37801226 8.84622436 -27.35595828 7.59927826 -24 7 C-24 7.66 -24 8.32 -24 9 C-21.13275314 8.42655063 -20.1385485 8.1385485 -18 6 C-15.42715917 5.18234177 -12.83286821 4.53622946 -10.21484375 3.87890625 C-9.48394531 3.58886719 -8.75304687 3.29882812 -8 3 C-7.67 2.01 -7.34 1.02 -7 0 C-4.05610218 -1.17755913 -3.10046087 -1.03348696 0 0 Z " fill="#EF9C19" transform="translate(222,265)"/>
<path d="M0 0 C6.10548152 2.63373713 8.30840456 5.43938105 11.00390625 11.484375 C12.87777009 16.21679976 14.01326597 20.66855835 14.546875 25.71484375 C14.63291992 26.51913818 14.71896484 27.32343262 14.80761719 28.15209961 C14.90284668 29.0668103 14.90284668 29.0668103 15 30 C15.50450684 29.72736328 16.00901367 29.45472656 16.52880859 29.17382812 C18.80858674 27.94492214 21.0917253 26.72239626 23.375 25.5 C24.1690625 25.07074219 24.963125 24.64148438 25.78125 24.19921875 C26.54179687 23.79316406 27.30234375 23.38710937 28.0859375 22.96875 C28.7876709 22.59169922 29.4894043 22.21464844 30.21240234 21.82617188 C32 21 32 21 34 21 C34 21.66 34 22.32 34 23 C31.27655418 24.48988243 28.54534386 25.96493737 25.8125 27.4375 C25.04357422 27.85837891 24.27464844 28.27925781 23.48242188 28.71289062 C19.68501839 30.75012425 16.35404764 32.52009495 12 33 C11.82984375 31.96359375 11.6596875 30.9271875 11.484375 29.859375 C11.24041314 28.4894353 10.99557521 27.11965141 10.75 25.75 C10.64042969 25.06808594 10.53085937 24.38617188 10.41796875 23.68359375 C9.5740344 19.10858123 8.30245508 17.14003926 5 14 C4.609375 11.640625 4.609375 11.640625 4.75 9.25 C4.78609375 8.45078125 4.8221875 7.6515625 4.859375 6.828125 C4.90578125 6.22484375 4.9521875 5.6215625 5 5 C3.68 5 2.36 5 1 5 C0.67 3.35 0.34 1.7 0 0 Z " fill="#C58031" transform="translate(379,77)"/>
<path d="M0 0 C0.66 0.33 1.32 0.66 2 1 C-1.1540179 3.71595986 -2.87384964 4.96846241 -7 6 C-7 30.75 -7 55.5 -7 81 C-7.33 81 -7.66 81 -8 81 C-9.16210704 67.11406307 -9.28612534 53.21516367 -9.35009766 39.28735352 C-9.36682726 36.61701301 -9.39176742 33.94847675 -9.43212891 31.27856445 C-9.49081946 27.39015755 -9.50871584 23.50211546 -9.5234375 19.61328125 C-9.54610687 18.42060135 -9.56877625 17.22792145 -9.59213257 15.99909973 C-9.57097033 7.76313611 -9.57097033 7.76313611 -6.60400391 3.79760742 C-2.20348658 0.75982296 -2.20348658 0.75982296 0 0 Z " fill="#8C6956" transform="translate(64,280)"/>
<path d="M0 0 C1.74336136 0.03753891 1.74336136 0.03753891 3.52194214 0.07583618 C7.19984968 0.15739001 10.87716721 0.25422771 14.5546875 0.3515625 C17.06247663 0.40986811 19.57028932 0.46716986 22.078125 0.5234375 C28.19563279 0.66287185 34.3127309 0.81482459 40.4296875 0.9765625 C40.4296875 1.3065625 40.4296875 1.6365625 40.4296875 1.9765625 C11.7196875 2.4715625 11.7196875 2.4715625 -17.5703125 2.9765625 C-17.5703125 3.6365625 -17.5703125 4.2965625 -17.5703125 4.9765625 C-18.44042969 5.14091797 -18.44042969 5.14091797 -19.328125 5.30859375 C-26.71072137 6.80704153 -33.44295296 9.14625851 -38.5703125 14.9765625 C-41.51360838 19.77919852 -43.6445754 24.40223159 -44.5703125 29.9765625 C-45.2303125 29.9765625 -45.8903125 29.9765625 -46.5703125 29.9765625 C-46.06442038 23.5685957 -43.21410072 17.06992892 -39.03125 12.17578125 C-37.5703125 10.9765625 -37.5703125 10.9765625 -35.5703125 10.9765625 C-35.5703125 10.3165625 -35.5703125 9.6565625 -35.5703125 8.9765625 C-33.62193354 7.83440932 -31.66094655 6.71375728 -29.6953125 5.6015625 C-28.05949219 4.66183594 -28.05949219 4.66183594 -26.390625 3.703125 C-18.07839862 -0.42318339 -9.06987441 -0.2636251 0 0 Z " fill="#CC7F34" transform="translate(103.5703125,66.0234375)"/>
<path d="M0 0 C0 0.66 0 1.32 0 2 C-0.99 2.33 -1.98 2.66 -3 3 C-3.33 3.99 -3.66 4.98 -4 6 C-4.99 6.66 -5.98 7.32 -7 8 C-6.67 9.98 -6.34 11.96 -6 14 C-7.98 14.33 -9.96 14.66 -12 15 C-12 14.34 -12 13.68 -12 13 C-12.66 12.67 -13.32 12.34 -14 12 C-14 12.66 -14 13.32 -14 14 C-14.556875 13.95359375 -15.11375 13.9071875 -15.6875 13.859375 C-21.10106684 13.60332792 -24.49995213 14.38097291 -29.203125 17.04296875 C-31.41202824 18.21944982 -33.52618474 18.69077309 -36 19 C-34.40286565 15.80573129 -31.10691831 14.92509452 -28 13.4375 C-21.04737984 10.04783931 -14.20420697 6.49201331 -7.41015625 2.79467773 C-2.21396603 0 -2.21396603 0 0 0 Z " fill="#A26F48" transform="translate(112,256)"/>
<path d="M0 0 C36.3 0 72.6 0 110 0 C109.34 1.65 108.68 3.3 108 5 C105.8359375 5.92578125 105.8359375 5.92578125 103.375 6.3125 C102.55773437 6.45300781 101.74046875 6.59351563 100.8984375 6.73828125 C100.27195312 6.82464844 99.64546875 6.91101563 99 7 C101.14072301 4.64520469 103.1394109 3.35937085 106 2 C104.68330322 2.00580078 103.36660645 2.01160156 102.01000977 2.01757812 C81.91582147 2.07540153 61.82683697 1.79964196 41.73486328 1.53643799 C37.01401228 1.47494497 32.29313798 1.4152953 27.57226562 1.35546875 C18.38148735 1.2387353 9.19073574 1.1200325 0 1 C0 0.67 0 0.34 0 0 Z " fill="#BC8042" transform="translate(248,126)"/>
<path d="M0 0 C11.15337288 -0.06973329 22.30669328 -0.12292931 33.46024036 -0.15543652 C38.64015761 -0.17104405 43.81992489 -0.19219198 48.99975586 -0.22631836 C54.00535733 -0.25908776 59.01081521 -0.2768899 64.01651573 -0.28463173 C65.91934148 -0.29014383 67.82216002 -0.30090704 69.72492409 -0.31719017 C93.59714011 -0.51322037 93.59714011 -0.51322037 104 6.4375 C104.886875 7.01371094 105.77375 7.58992188 106.6875 8.18359375 C108.93427989 9.94837863 110.42012807 11.63538905 112 14 C108.73753165 12.49308621 105.9880596 10.57648741 103.0625 8.5 C97.68083233 5.00409189 92.9835162 3.93648323 86.65234375 3.2890625 C84 3 84 3 82 2 C79.40726808 1.8776764 76.83961114 1.8143332 74.24560547 1.79467773 C73.44552063 1.78477814 72.64543579 1.77487854 71.82110596 1.76467896 C69.16983017 1.73302738 66.51853644 1.70829211 63.8671875 1.68359375 C62.03158089 1.66302738 60.19597904 1.64203099 58.36038208 1.62062073 C53.52382261 1.56536732 48.68722017 1.51597248 43.85058594 1.46777344 C38.9172787 1.41758226 33.98403404 1.36188377 29.05078125 1.30664062 C19.36724092 1.19901908 9.68364632 1.09758299 0 1 C0 0.67 0 0.34 0 0 Z " fill="#94604D" transform="translate(272,66)"/>
<path d="M0 0 C-2.6864304 3.16336913 -6.12272314 4.82131582 -9.75 6.6875 C-11.09269196 7.38755295 -12.43513221 8.08808888 -13.77734375 8.7890625 C-14.46940918 9.1490332 -15.16147461 9.50900391 -15.87451172 9.87988281 C-18.01496269 11.00788523 -20.13595355 12.16629995 -22.25390625 13.3359375 C-22.93420898 13.70887939 -23.61451172 14.08182129 -24.31542969 14.46606445 C-25.63044158 15.18803492 -26.94239614 15.91560676 -28.25097656 16.64916992 C-29.80235419 17.49367324 -31.39828983 18.25536388 -33 19 C-33.66 18.67 -34.32 18.34 -35 18 C-34.34 16.68 -33.68 15.36 -33 14 C-31.68 14 -30.36 14 -29 14 C-29 13.01 -29 12.02 -29 11 C-27.9275 10.54625 -26.855 10.0925 -25.75 9.625 C-23.71546456 8.76297795 -21.80629546 7.89175334 -19.875 6.8125 C-17.50067442 5.78362558 -15.55906418 5.85782977 -13 6 C-12.9175 5.38125 -12.835 4.7625 -12.75 4.125 C-12 2 -12 2 -10.0625 0.8125 C-9.381875 0.544375 -8.70125 0.27625 -8 0 C-5.13822943 -1.43088528 -3.06624227 -0.59991697 0 0 Z " fill="#9F6C44" transform="translate(174,289)"/>
<path d="M0 0 C3.16529226 0.6583844 5.7145282 1.77367902 8.5625 3.29296875 C9.43551758 3.75525879 10.30853516 4.21754883 11.20800781 4.69384766 C12.12936523 5.18675293 13.05072266 5.6796582 14 6.1875 C15.91100831 7.20006853 17.82246342 8.21179428 19.734375 9.22265625 C20.65025391 9.70750488 21.56613281 10.19235352 22.50976562 10.69189453 C25.40299595 12.2116914 28.31881003 13.67987422 31.25 15.125 C36.25854051 17.61109703 41.23060486 20.16276757 46.1875 22.75 C46.94385742 23.13945801 47.70021484 23.52891602 48.47949219 23.93017578 C53.88465764 26.76931528 53.88465764 26.76931528 55 29 C52.1875 29.1875 52.1875 29.1875 49 29 C47.98830531 28.01183309 46.99061094 27.00930172 46 26 C44.13215934 24.88902676 42.23320728 23.82934503 40.3125 22.8125 C39.31863281 22.28269531 38.32476562 21.75289063 37.30078125 21.20703125 C36.54152344 20.80871094 35.78226562 20.41039062 35 20 C35 19.34 35 18.68 35 18 C34.29230469 17.89171875 33.58460938 17.7834375 32.85546875 17.671875 C29.68802776 16.92659477 27.19994596 15.7457664 24.3125 14.25 C23.26449219 13.71503906 22.21648437 13.18007813 21.13671875 12.62890625 C19.15711277 11.60089169 17.18016643 10.56772412 15.20703125 9.52734375 C10.08254045 6.85297835 10.08254045 6.85297835 4.5 5.5 C3.675 5.335 2.85 5.17 2 5 C0.625 2.4375 0.625 2.4375 0 0 Z " fill="#694E61" transform="translate(324,246)"/>
<path d="M0 0 C3.125 -0.1875 3.125 -0.1875 6 0 C3.82383753 2.37640707 1.72733503 3.8354118 -1.1328125 5.3046875 C-1.93976563 5.72363281 -2.74671875 6.14257812 -3.578125 6.57421875 C-4.41859375 7.00347656 -5.2590625 7.43273437 -6.125 7.875 C-7.77398504 8.72550175 -9.42242459 9.57706195 -11.0703125 10.4296875 C-11.89265381 10.85499756 -12.71499512 11.28030762 -13.56225586 11.71850586 C-16.64971372 13.34154705 -19.69274411 15.03771242 -22.73632812 16.74121094 C-26.69277657 18.94132399 -30.68778156 21.06736056 -34.6875 23.1875 C-35.91049805 23.84395508 -35.91049805 23.84395508 -37.15820312 24.51367188 C-41.36577686 26.74161108 -45.40296018 28.670646 -50 30 C-50 29.34 -50 28.68 -50 28 C-49.030625 27.52691406 -48.06125 27.05382812 -47.0625 26.56640625 C-39.66433449 22.92874223 -32.33674199 19.18362036 -25.125 15.1875 C-24.44179688 14.8150415 -23.75859375 14.44258301 -23.0546875 14.05883789 C-19.85984635 12.26620408 -18.06657302 11.09985953 -16 8 C-12.875 7.8125 -12.875 7.8125 -10 8 C-10 7.34 -10 6.68 -10 6 C-9.44570313 5.81824219 -8.89140625 5.63648438 -8.3203125 5.44921875 C-7.59585938 5.19785156 -6.87140625 4.94648438 -6.125 4.6875 C-5.40570313 4.44386719 -4.68640625 4.20023438 -3.9453125 3.94921875 C-1.66005095 3.03664453 -1.66005095 3.03664453 0 0 Z " fill="#70515F" transform="translate(348,195)"/>
<path d="M0 0 C3.79148763 1.46902657 7.46458708 3.10442433 11.125 4.875 C12.15882813 5.36742187 13.19265625 5.85984375 14.2578125 6.3671875 C17.13144035 8.07826505 18.2989115 9.16276454 20 12 C20.36749268 14.64254761 20.36749268 14.64254761 20.35644531 17.68310547 C20.35944641 18.82464081 20.36244751 19.96617615 20.36553955 21.14230347 C20.35319275 22.3715152 20.34084595 23.60072693 20.328125 24.8671875 C20.32625183 26.13466827 20.32437866 27.40214905 20.32244873 28.70803833 C20.31572445 31.38981105 20.30345226 34.07082507 20.28125 36.75244141 C20.25302543 40.17756417 20.24204311 43.60244952 20.2375679 47.02767754 C20.23239155 50.30754332 20.21785273 53.58735261 20.203125 56.8671875 C20.19887512 58.09235077 20.19462524 59.31751404 20.19024658 60.57980347 C20.18063904 61.72764313 20.17103149 62.87548279 20.16113281 64.05810547 C20.15430481 65.06308075 20.14747681 66.06805603 20.14044189 67.10348511 C19.9935085 70.13388256 19.55548915 73.01961768 19 76 C17.35 76 15.7 76 14 76 C13.67 75.34 13.34 74.68 13 74 C14.65 74.33 16.3 74.66 18 75 C17.505 43.32 17.505 43.32 17 11 C11.39 8.03 5.78 5.06 0 2 C0 1.34 0 0.68 0 0 Z " fill="#744862" transform="translate(452,312)"/>
<path d="M0 0 C2.31 0 4.62 0 7 0 C5.35 1.32 3.7 2.64 2 4 C3.98 4.99 5.96 5.98 8 7 C8 7.66 8 8.32 8 9 C8.78632813 9.06058594 9.57265625 9.12117187 10.3828125 9.18359375 C15.36327235 10.30769322 19.41916349 12.62319794 23.875 15.0625 C24.75414062 15.53494141 25.63328125 16.00738281 26.5390625 16.49414062 C28.69695524 17.65518074 30.85027708 18.82392268 33 20 C31.1875 20.625 31.1875 20.625 29 21 C28.01 20.34 27.02 19.68 26 19 C23.72461677 18.33386665 23.72461677 18.33386665 21.3125 17.875 C20.50425781 17.70742187 19.69601562 17.53984375 18.86328125 17.3671875 C18.24839844 17.24601562 17.63351562 17.12484375 17 17 C17 16.01 17 15.02 17 14 C15.700625 13.87625 14.40125 13.7525 13.0625 13.625 C10.84765625 13.4140625 10.84765625 13.4140625 9 13 C8.67 12.34 8.34 11.68 8 11 C7.34 10.855625 6.68 10.71125 6 10.5625 C5.34 10.376875 4.68 10.19125 4 10 C3.67 9.01 3.34 8.02 3 7 C1.00334686 5.31461399 1.00334686 5.31461399 -1 4 C-0.67 2.68 -0.34 1.36 0 0 Z " fill="#94634B" transform="translate(291,225)"/>
<path d="M0 0 C0.928125 0.226875 1.85625 0.45375 2.8125 0.6875 C1.61853441 4.26939678 0.41342839 5.02046142 -2.5625 7.25 C-3.35398437 7.84941406 -4.14546875 8.44882812 -4.9609375 9.06640625 C-9.03948546 12.03587538 -11.34623616 12.98806362 -16.375 13.3125 C-17.46167969 13.38726562 -18.54835938 13.46203125 -19.66796875 13.5390625 C-20.91513672 13.61253906 -20.91513672 13.61253906 -22.1875 13.6875 C-22.1875 13.0275 -22.1875 12.3675 -22.1875 11.6875 C-20.90875 11.543125 -19.63 11.39875 -18.3125 11.25 C-15.93057106 10.98107254 -14.34297309 10.76523654 -12.1875 9.6875 C-12.06375 9.089375 -11.94 8.49125 -11.8125 7.875 C-10.98694477 4.98555668 -9.38398357 3.67142064 -7.1875 1.6875 C-6.8575 2.0175 -6.5275 2.3475 -6.1875 2.6875 C-5.81625 2.171875 -5.445 1.65625 -5.0625 1.125 C-3.1875 -0.3125 -3.1875 -0.3125 0 0 Z " fill="#EB9A1B" transform="translate(382.1875,375.3125)"/>
<path d="M0 0 C1.41782145 0.06059066 2.83444466 0.14954123 4.25 0.25 C5.03890625 0.29640625 5.8278125 0.3428125 6.640625 0.390625 C9.71597275 1.18492011 10.78976002 2.74127212 13 5 C15.3041922 6.32648967 17.55267659 7.53403957 19.9375 8.6875 C20.54529297 8.99494141 21.15308594 9.30238281 21.77929688 9.61914062 C25.18147135 11.29637227 28.28396536 12.32435734 32 13 C32.474375 13.515625 32.94875 14.03125 33.4375 14.5625 C35.03838964 16.33952866 35.03838964 16.33952866 38.1875 16.1875 C39.115625 16.125625 40.04375 16.06375 41 16 C40.505 18.475 40.505 18.475 40 21 C38.68 20.67 37.36 20.34 36 20 C36 19.34 36 18.68 36 18 C34.92878906 17.83177734 34.92878906 17.83177734 33.8359375 17.66015625 C30.78354632 16.9496134 28.41048413 15.86925445 25.625 14.4375 C24.58601563 13.90511719 23.54703125 13.37273437 22.4765625 12.82421875 C17.38698716 10.15362135 12.31228621 7.45631799 7.25 4.734375 C4.84800152 3.45253927 2.44440888 2.19776035 0 1 C0 0.67 0 0.34 0 0 Z " fill="#745859" transform="translate(107,200)"/>
<path d="M0 0 C0.66 0.33 1.32 0.66 2 1 C-1.40463967 5.20573135 -6.82281188 6.96456238 -12 8 C-12 8.66 -12 9.32 -12 10 C-12.66 10 -13.32 10 -14 10 C-14 10.66 -14 11.32 -14 12 C-14.556875 12.17015625 -15.11375 12.3403125 -15.6875 12.515625 C-20.48185392 14.03815631 -24.86247526 15.80716234 -29.2734375 18.23046875 C-31 19 -31 19 -34 19 C-34 19.66 -34 20.32 -34 21 C-37.47307692 23.10865385 -37.47307692 23.10865385 -40.140625 22.55859375 C-40.75421875 22.37425781 -41.3678125 22.18992188 -42 22 C-41.25447876 21.60844727 -41.25447876 21.60844727 -40.49389648 21.20898438 C-28.58152439 14.9538883 -28.58152439 14.9538883 -16.70214844 8.63647461 C-13.80440063 7.08539332 -10.90194621 5.543211 -8 4 C-7.13117188 3.53207031 -6.26234375 3.06414062 -5.3671875 2.58203125 C-3.609451 1.65906209 -1.80979467 0.81618191 0 0 Z " fill="#7A5960" transform="translate(344,133)"/>
<path d="M0 0 C-0.33 0.99 -0.66 1.98 -1 3 C-3.87890625 4.4296875 -3.87890625 4.4296875 -7.5625 5.875 C-12.44307079 7.84908715 -16.94789207 9.96783929 -21.3203125 12.9140625 C-23 14 -23 14 -26.375 15.5625 C-29.28072404 17.15372983 -29.72812317 18.06489962 -31 21 C-31.99 21.33 -32.98 21.66 -34 22 C-34 21.34 -34 20.68 -34 20 C-35.32 19.67 -36.64 19.34 -38 19 C-29.94441721 14.26734511 -21.81869635 9.80088137 -13.41992188 5.703125 C-10.60522756 4.3257822 -7.88405912 2.92776117 -5.22265625 1.26953125 C-3 0 -3 0 0 0 Z " fill="#745269" transform="translate(451,78)"/>
<path d="M0 0 C4.73643287 1.41657118 8.93844294 3.43478267 13.25 5.8125 C14.56845495 6.52836774 15.88746774 7.24320899 17.20703125 7.95703125 C17.84850098 8.30459473 18.4899707 8.6521582 19.15087891 9.01025391 C23.05370138 11.09924814 27.0243191 13.054255 31 15 C27.23375329 16.25541557 25.62811066 15.37061958 22 14 C22 14.66 22 15.32 22 16 C20.02253397 16.73080266 18.01927511 17.39421747 16 18 C15.34 17.67 14.68 17.34 14 17 C14 16.34 14 15.68 14 15 C14.99 15 15.98 15 17 15 C17 13.68 17 12.36 17 11 C15.53570008 9.52195295 15.53570008 9.52195295 13.5 8.4375 C12.77683594 8.01597656 12.05367187 7.59445313 11.30859375 7.16015625 C9.09077047 6.04561562 6.90634904 5.18453918 4.5625 4.375 C3.386875 3.92125 2.21125 3.4675 1 3 C0.67 2.01 0.34 1.02 0 0 Z " fill="#B67836" transform="translate(150,156)"/>
<path d="M0 0 C3.75360376 0.5977744 6.68393075 1.67569107 10.046875 3.43359375 C10.97371094 3.91763672 11.90054688 4.40167969 12.85546875 4.90039062 C13.81066406 5.40763672 14.76585937 5.91488281 15.75 6.4375 C17.20599609 7.19256836 17.20599609 7.19256836 18.69140625 7.96289062 C25.87200033 11.74400065 25.87200033 11.74400065 27 14 C23.7 14 20.4 14 17 14 C17 13.01 17 12.02 17 11 C16.1028125 10.8453125 16.1028125 10.8453125 15.1875 10.6875 C12.68741714 9.90175967 11.62464918 9.03081147 10 7 C10 6.34 10 5.68 10 5 C8.35 5 6.7 5 5 5 C5 4.34 5 3.68 5 3 C3.35 2.67 1.7 2.34 0 2 C0 1.34 0 0.68 0 0 Z " fill="#AA6F43" transform="translate(122,142)"/>
<path d="M0 0 C1.65 0.33 3.3 0.66 5 1 C5 1.66 5 2.32 5 3 C6.0725 2.484375 7.145 1.96875 8.25 1.4375 C10.71477612 0.36759718 11.72132303 -0.03572782 14.4375 0.3125 C15.2109375 0.6528125 15.2109375 0.6528125 16 1 C12.09966259 5.65524142 8.03737617 7.94156912 2 9 C-0.27734375 8.5703125 -0.27734375 8.5703125 -2 8 C-2 7.01 -2 6.02 -2 5 C-0.68 4.34 0.64 3.68 2 3 C1.34 3 0.68 3 0 3 C0 2.01 0 1.02 0 0 Z " fill="#EFA10E" transform="translate(219,192)"/>
<path d="M0 0 C6.01912846 0.41511231 8.99969904 1.44423043 14 5 C16.7282504 5.78215588 16.7282504 5.78215588 19 6 C19 6.66 19 7.32 19 8 C20.98 8 22.96 8 25 8 C25 8.66 25 9.32 25 10 C25.66 10.33 26.32 10.66 27 11 C27 11.99 27 12.98 27 14 C22.13036683 12.54963086 17.92377937 10.49781288 13.5 8.0625 C12.21915079 7.36514876 10.93790553 6.66852444 9.65625 5.97265625 C8.73972656 5.47403076 8.73972656 5.47403076 7.8046875 4.96533203 C5.23036411 3.58831977 2.61908992 2.28933593 0 1 C0 0.67 0 0.34 0 0 Z " fill="#96654D" transform="translate(266,282)"/>
<path d="M0 0 C0.66 0.33 1.32 0.66 2 1 C1.34 2.32 0.68 3.64 0 5 C-0.66 5 -1.32 5 -2 5 C-2 5.99 -2 6.98 -2 8 C-3.65 8 -5.3 8 -7 8 C-7 8.66 -7 9.32 -7 10 C-7.66 10 -8.32 10 -9 10 C-9 9.01 -9 8.02 -9 7 C-10.32 7.33 -11.64 7.66 -13 8 C-13 8.66 -13 9.32 -13 10 C-17.93387858 12.25861997 -22.80355921 14.40109514 -28 16 C-25.68025076 13.42516777 -23.32538349 11.95478271 -20.25390625 10.37109375 C-19.33416016 9.89349609 -18.41441406 9.41589844 -17.46679688 8.92382812 C-16.50837891 8.43333984 -15.54996094 7.94285156 -14.5625 7.4375 C-13.60794922 6.94314453 -12.65339844 6.44878906 -11.66992188 5.93945312 C-9.11684332 4.61914168 -6.56105344 3.30476846 -4 2 C-3.28062256 1.59789307 -2.56124512 1.19578613 -1.82006836 0.78149414 C-1.2194458 0.52360107 -0.61882324 0.26570801 0 0 Z " fill="#976A50" transform="translate(300,156)"/>
<path d="M0 0 C4.73789165 1.44323469 8.98858151 3.37226733 13.375 5.625 C14.01566406 5.94984375 14.65632813 6.2746875 15.31640625 6.609375 C16.87947501 7.40257407 18.44000622 8.20077031 20 9 C20 9.66 20 10.32 20 11 C20.721875 11.103125 21.44375 11.20625 22.1875 11.3125 C25.24491993 12.05986932 27.38329635 13.28045189 30 15 C29.01 15.33 28.02 15.66 27 16 C25.32936253 15.00664799 23.66324401 14.00568242 22 13 C20.00211562 12.65421232 18.00240549 12.31856451 16 12 C15.67 11.34 15.34 10.68 15 10 C12.65961814 8.86897474 12.65961814 8.86897474 9.9375 7.875 C8.55884766 7.34519531 8.55884766 7.34519531 7.15234375 6.8046875 C6.44207031 6.53914063 5.73179687 6.27359375 5 6 C5 5.34 5 4.68 5 4 C3.35 4 1.7 4 0 4 C0 2.68 0 1.36 0 0 Z " fill="#845D56" transform="translate(407,289)"/>
<path d="M0 0 C4.87211393 0.63050886 8.80260078 2.67837089 13.125 4.875 C13.84042969 5.22691406 14.55585937 5.57882813 15.29296875 5.94140625 C15.98261719 6.28816406 16.67226562 6.63492188 17.3828125 6.9921875 C18.00559082 7.30526855 18.62836914 7.61834961 19.27001953 7.94091797 C21 9 21 9 24 12 C21.03 11.67 18.06 11.34 15 11 C15 10.34 15 9.68 15 9 C12.69 8.67 10.38 8.34 8 8 C8 8.66 8 9.32 8 10 C7.34 10 6.68 10 6 10 C6 8.35 6 6.7 6 5 C5.34 5 4.68 5 4 5 C4 4.01 4 3.02 4 2 C2.68 1.34 1.36 0.68 0 0 Z " fill="#AC7547" transform="translate(98,130)"/>
<path d="M0 0 C7.75 0.75 7.75 0.75 10 3 C11.98723268 3.70381157 13.98777953 4.3711811 16 5 C16.66 5.33 17.32 5.66 18 6 C18 6.99 18 7.98 18 9 C18.99 9.33 19.98 9.66 21 10 C16.37802694 12.21854707 13.23175837 13.38281159 8 13 C10.17424117 10.49962266 11.73045798 9.56371414 15 9 C15 8.34 15 7.68 15 7 C14.41992188 6.81824219 13.83984375 6.63648438 13.2421875 6.44921875 C8.60852707 4.9581894 4.30237645 3.31666424 0 1 C0 0.67 0 0.34 0 0 Z " fill="#C78332" transform="translate(147,221)"/>
<path d="M0 0 C0.66 0.33 1.32 0.66 2 1 C-1.48878771 3.97573069 -4.85762954 6.0506492 -9 8 C-13.45111544 10.17298549 -17.76844197 12.41978169 -22 15 C-23.53588574 15.90570882 -25.07811024 16.80071618 -26.625 17.6875 C-27.38039062 18.12449219 -28.13578125 18.56148437 -28.9140625 19.01171875 C-31 20 -31 20 -34 20 C-34 19.34 -34 18.68 -34 18 C-33.33097656 17.67128906 -32.66195312 17.34257812 -31.97265625 17.00390625 C-25.62268238 13.85875141 -19.32739554 10.62347053 -13.0625 7.3125 C-12.3413501 6.93230713 -11.6202002 6.55211426 -10.87719727 6.16040039 C-7.88741854 4.57462092 -4.97881324 2.98651752 -2.12109375 1.16796875 C-1.42113281 0.78253906 -0.72117187 0.39710938 0 0 Z " fill="#78585F" transform="translate(269,172)"/>
<path d="M0 0 C0.52078125 0.23589844 1.0415625 0.47179687 1.578125 0.71484375 C-1.46974632 2.68121234 -4.52109961 4.20265499 -7.859375 5.58984375 C-16.17475702 9.28556909 -20.14877438 14.36908917 -23.421875 22.71484375 C-23.79716511 24.37256695 -24.14342157 26.0381349 -24.421875 27.71484375 C-25.081875 27.71484375 -25.741875 27.71484375 -26.421875 27.71484375 C-25.91598288 21.30687695 -23.06566322 14.80821017 -18.8828125 9.9140625 C-17.421875 8.71484375 -17.421875 8.71484375 -15.421875 8.71484375 C-15.421875 8.05484375 -15.421875 7.39484375 -15.421875 6.71484375 C-13.34614419 5.51199974 -11.26304405 4.32778674 -9.171875 3.15234375 C-8.58535156 2.81009766 -7.99882813 2.46785156 -7.39453125 2.11523438 C-2.96392641 -0.34897843 -2.96392641 -0.34897843 0 0 Z " fill="#835A61" transform="translate(83.421875,68.28515625)"/>
<path d="M0 0 C0.66 0 1.32 0 2 0 C2 17.49 2 34.98 2 53 C0.68 53 -0.64 53 -2 53 C-2 52.34 -2 51.68 -2 51 C-1.34 51 -0.68 51 0 51 C0 34.17 0 17.34 0 0 Z " fill="#F39C1E" transform="translate(467,332)"/>
<path d="M0 0 C3.96149465 0.60631917 6.98723529 1.84797404 10.51953125 3.72265625 C11.54111328 4.26083984 12.56269531 4.79902344 13.61523438 5.35351562 C14.67033203 5.91748047 15.72542969 6.48144531 16.8125 7.0625 C17.88693359 7.63033203 18.96136719 8.19816406 20.06835938 8.78320312 C22.71530675 10.18314418 25.35898899 11.58890112 28 13 C28 13.33 28 13.66 28 14 C20.57142857 14.28571429 20.57142857 14.28571429 17 12 C17 11.34 17 10.68 17 10 C15.68 10 14.36 10 13 10 C13 9.01 13 8.02 13 7 C11.96875 6.7525 10.9375 6.505 9.875 6.25 C5.9853927 5.14886881 3.21683213 3.43223893 0 1 C0 0.67 0 0.34 0 0 Z " fill="#A06C4C" transform="translate(379,275)"/>
<path d="M0 0 C0 0.66 0 1.32 0 2 C-1.60875 2.61875 -1.60875 2.61875 -3.25 3.25 C-5.79444497 4.32590759 -7.06510303 5.06510303 -9.0625 7.0625 C-11.50600647 9.50600647 -13.73019543 9.95366254 -17 11 C-19.96999836 12.8276913 -22.53536001 14.53536001 -25 17 C-27.32275177 17.40047444 -29.65739357 17.7397104 -32 18 C-29.78537931 14.53332251 -27.98284853 13.29185108 -24.125 11.9375 C-19.28219115 10.13372917 -15.33334004 7.90780599 -11.0625 5 C-3.40625 0 -3.40625 0 0 0 Z " fill="#D88A28" transform="translate(278,170)"/>
<path d="M0 0 C6.93 0.495 6.93 0.495 14 1 C14 1.66 14 2.32 14 3 C25.55 3 37.1 3 49 3 C49 3.33 49 3.66 49 4 C43.62893641 4.07473651 38.25818247 4.12887661 32.88671875 4.16479492 C31.06342285 4.17978489 29.2401624 4.20018384 27.41699219 4.22631836 C7.96856768 4.49791465 7.96856768 4.49791465 0 1 C0 0.67 0 0.34 0 0 Z " fill="#BB793E" transform="translate(79,388)"/>
<path d="M0 0 C4.571279 0.54855348 8.67435795 1.41744803 13 3 C13 3.66 13 4.32 13 5 C13.99 5 14.98 5 16 5 C16 5.66 16 6.32 16 7 C16.7425 7.103125 17.485 7.20625 18.25 7.3125 C21.1973519 8.04933797 22.78383074 8.94799142 25 11 C25 11.66 25 12.32 25 13 C20.08649239 11.5396386 15.83955518 9.454616 11.375 7 C5.73143462 3.91589738 5.73143462 3.91589738 0 1 C0 0.67 0 0.34 0 0 Z " fill="#9A684E" transform="translate(316,308)"/>
<path d="M0 0 C0.33 0 0.66 0 1 0 C1.144375 0.7425 1.28875 1.485 1.4375 2.25 C1.75768514 3.81534957 2.10693124 5.37695187 2.54296875 6.9140625 C3.02327139 9.10621299 2.99868317 10.8904574 2.875 13.125 C2.79095246 17.73997409 3.89797568 21.51433191 5.44140625 25.8359375 C6 28 6 28 5 31 C1.85788604 26.00118234 -0.2687356 21.90195172 -0.1953125 15.91796875 C-0.18886719 14.98662109 -0.18242188 14.05527344 -0.17578125 13.09570312 C-0.15902344 12.13599609 -0.14226563 11.17628906 -0.125 10.1875 C-0.11597656 9.20845703 -0.10695312 8.22941406 -0.09765625 7.22070312 C-0.07417182 4.81354939 -0.0413284 2.40690257 0 0 Z " fill="#EC9A25" transform="translate(57,345)"/>
<path d="M0 0 C-4.01431952 4.72272885 -8.89937165 7.08437955 -14.9375 7.75 C-16.29058281 7.84939173 -17.64466473 7.93853355 -19 8 C-19 8.66 -19 9.32 -19 10 C-20.32 9.67 -21.64 9.34 -23 9 C-19.48812804 6.59185923 -17.27343092 5.63370592 -13 6 C-12.9175 5.38125 -12.835 4.7625 -12.75 4.125 C-12 2 -12 2 -10.0625 0.8125 C-9.381875 0.544375 -8.70125 0.27625 -8 0 C-5.13822943 -1.43088528 -3.06624227 -0.59991697 0 0 Z " fill="#C68131" transform="translate(174,289)"/>
<path d="M0 0 C3.63 0 7.26 0 11 0 C11.33 1.65 11.66 3.3 12 5 C13.65 5 15.3 5 17 5 C17 5.99 17 6.98 17 8 C17.66 8 18.32 8 19 8 C19 8.66 19 9.32 19 10 C14.37324343 8.6077541 10.35313769 6.70479016 6.125 4.375 C4.97257812 3.74335938 3.82015625 3.11171875 2.6328125 2.4609375 C1.32957031 1.73777344 1.32957031 1.73777344 0 1 C0 0.67 0 0.34 0 0 Z " fill="#B5793F" transform="translate(297,298)"/>
<path d="M0 0 C0.99 0.33 1.98 0.66 3 1 C2.67 1.33 2.34 1.66 2 2 C2.66 2.33 3.32 2.66 4 3 C3.33333333 5.66666667 2.66666667 8.33333333 2 11 C3.32 11 4.64 11 6 11 C6 11.66 6 12.32 6 13 C6.99 13 7.98 13 9 13 C8.67 13.66 8.34 14.32 8 15 C6.01729088 14.04901734 4.03891621 13.08899297 2.0625 12.125 C0.96035156 11.59132812 -0.14179687 11.05765625 -1.27734375 10.5078125 C-4 9 -4 9 -5 7 C-3.68 6.67 -2.36 6.34 -1 6 C-1.99 5.34 -2.98 4.68 -4 4 C-3 2 -3 2 0 0 Z " fill="#F2A10A" transform="translate(122,196)"/>
<path d="M0 0 C0.66 0.33 1.32 0.66 2 1 C1.01 1.33 0.02 1.66 -1 2 C-1.33 2.99 -1.66 3.98 -2 5 C-3.98723268 5.70381157 -5.98777953 6.3711811 -8 7 C-8.33 7.66 -8.66 8.32 -9 9 C-12.3 9 -15.6 9 -19 9 C-12.40298507 4.05223881 -12.40298507 4.05223881 -8.625 3.5625 C-4.96359388 2.99435078 -3.07866109 1.9351584 0 0 Z " fill="#BE7F3C" transform="translate(85,271)"/>
<path d="M0 0 C3.125 -0.1875 3.125 -0.1875 6 0 C2.69933444 3.55880028 -1.19318328 5.49064081 -5.4375 7.75 C-6.20126953 8.17410156 -6.96503906 8.59820312 -7.75195312 9.03515625 C-8.49251953 9.43089844 -9.23308594 9.82664063 -9.99609375 10.234375 C-10.66825928 10.59756836 -11.3404248 10.96076172 -12.03295898 11.33496094 C-14.41076735 12.13887679 -15.66433002 11.8147307 -18 11 C-17.34 10.01 -16.68 9.02 -16 8 C-12.875 7.8125 -12.875 7.8125 -10 8 C-10 7.34 -10 6.68 -10 6 C-9.16855469 5.72736328 -9.16855469 5.72736328 -8.3203125 5.44921875 C-7.59585937 5.19785156 -6.87140625 4.94648438 -6.125 4.6875 C-5.40570313 4.44386719 -4.68640625 4.20023438 -3.9453125 3.94921875 C-1.66005095 3.03664453 -1.66005095 3.03664453 0 0 Z " fill="#886058" transform="translate(348,195)"/>
<path d="M0 0 C-3.51842393 1.87990871 -7.04218655 3.74934218 -10.57128906 5.60913086 C-11.77170733 6.24362373 -12.97061271 6.88098735 -14.16796875 7.52124023 C-15.88664253 8.43962097 -17.61121331 9.34693922 -19.3359375 10.25390625 C-20.37282715 10.80377197 -21.4097168 11.3536377 -22.47802734 11.92016602 C-23.31027832 12.27651123 -24.1425293 12.63285645 -25 13 C-25.66 12.67 -26.32 12.34 -27 12 C-25.40089132 10.99193149 -23.79551738 9.99379615 -22.1875 9 C-20.84751953 8.1646875 -20.84751953 8.1646875 -19.48046875 7.3125 C-17 6 -17 6 -14 6 C-14 4.68 -14 3.36 -14 2 C-11.66836622 1.32741333 -9.3347961 0.66152556 -7 0 C-6.2575 -0.226875 -5.515 -0.45375 -4.75 -0.6875 C-3 -1 -3 -1 0 0 Z " fill="#895F53" transform="translate(440,151)"/>
<path d="M0 0 C8.91 0 17.82 0 27 0 C26.34 1.65 25.68 3.3 25 5 C22.8359375 5.92578125 22.8359375 5.92578125 20.375 6.3125 C19.55773437 6.45300781 18.74046875 6.59351563 17.8984375 6.73828125 C17.27195312 6.82464844 16.64546875 6.91101563 16 7 C18.14072301 4.64520469 20.1394109 3.35937085 23 2 C22.11477661 2.01571045 22.11477661 2.01571045 21.21166992 2.03173828 C18.53698996 2.07332044 15.86237803 2.0993329 13.1875 2.125 C12.25873047 2.14175781 11.32996094 2.15851563 10.37304688 2.17578125 C9.48037109 2.18222656 8.58769531 2.18867188 7.66796875 2.1953125 C6.84578857 2.20578613 6.0236084 2.21625977 5.17651367 2.22705078 C3 2 3 2 0 0 Z " fill="#88634E" transform="translate(331,126)"/>
<path d="M0 0 C-3.59512248 2.03725091 -7.20241311 4.05190401 -10.8125 6.0625 C-12.34874023 6.93358398 -12.34874023 6.93358398 -13.91601562 7.82226562 C-14.89892578 8.36689453 -15.88183594 8.91152344 -16.89453125 9.47265625 C-17.80050049 9.98062744 -18.70646973 10.48859863 -19.63989258 11.01196289 C-22 12 -22 12 -25 11 C-23.02 10.34 -21.04 9.68 -19 9 C-18.67 7.35 -18.34 5.7 -18 4 C-17.01 3.9175 -16.02 3.835 -15 3.75 C-11.10755773 3.22784311 -8.1675865 1.69720017 -4.796875 -0.2578125 C-3 -1 -3 -1 0 0 Z " fill="#A06C4D" transform="translate(413,165)"/>
<path d="M0 0 C-0.33 8.91 -0.66 17.82 -1 27 C-1.33 27 -1.66 27 -2 27 C-2 18.75 -2 10.5 -2 2 C-4.64 2.66 -7.28 3.32 -10 4 C-4.93506494 -1.23376623 -4.93506494 -1.23376623 0 0 Z " fill="#8A5F5C" transform="translate(471,69)"/>
<path d="M0 0 C4.51617599 -0.07654536 8.59085217 -0.10228696 13 1 C13 1.99 13 2.98 13 4 C13.66 4 14.32 4 15 4 C15 4.66 15 5.32 15 6 C16.98 6.66 18.96 7.32 21 8 C21 8.66 21 9.32 21 10 C15.54574824 8.32051441 10.74396433 5.89053722 5.70703125 3.2421875 C3.04196585 1.79146945 3.04196585 1.79146945 0 2 C0 1.34 0 0.68 0 0 Z " fill="#A46F43" transform="translate(224,261)"/>
<path d="M0 0 C0.33 0 0.66 0 1 0 C1.33 2.97 1.66 5.94 2 9 C3.20398438 8.3503125 4.40796875 7.700625 5.6484375 7.03125 C7.22384221 6.18728319 8.7993694 5.343545 10.375 4.5 C11.1690625 4.07074219 11.963125 3.64148438 12.78125 3.19921875 C13.54179687 2.79316406 14.30234375 2.38710937 15.0859375 1.96875 C15.7876709 1.59169922 16.4894043 1.21464844 17.21240234 0.82617188 C19 0 19 0 21 0 C21 0.66 21 1.32 21 2 C18.25727599 3.5135972 15.50474367 5.00840709 12.75 6.5 C11.97269531 6.92925781 11.19539063 7.35851562 10.39453125 7.80078125 C9.64042969 8.20683594 8.88632812 8.61289063 8.109375 9.03125 C7.41811523 9.40830078 6.72685547 9.78535156 6.01464844 10.17382812 C4 11 4 11 0 11 C0 7.37 0 3.74 0 0 Z " fill="#79545B" transform="translate(392,98)"/>
<path d="M0 0 C0.66 0.33 1.32 0.66 2 1 C-1.75133259 4.18294887 -5.67989989 6.67994624 -10 9 C-10.68835938 9.38800781 -11.37671875 9.77601563 -12.0859375 10.17578125 C-12.77945313 10.55089844 -13.47296875 10.92601562 -14.1875 11.3125 C-15.13689453 11.83263672 -15.13689453 11.83263672 -16.10546875 12.36328125 C-18.44832625 13.1506746 -19.667086 12.66927116 -22 12 C-21.51120361 11.74307373 -21.02240723 11.48614746 -20.51879883 11.22143555 C-18.28258238 10.04493943 -16.04753503 8.86623884 -13.8125 7.6875 C-13.04357422 7.28337891 -12.27464844 6.87925781 -11.48242188 6.46289062 C-8.27589525 4.77017485 -5.13841299 3.0877786 -2.07421875 1.14453125 C-1.38972656 0.76683594 -0.70523438 0.38914063 0 0 Z " fill="#94674F" transform="translate(134,243)"/>
<path d="M0 0 C6.00477279 0.64916463 11.400781 2.85795003 17 5 C17 5.99 17 6.98 17 8 C18.32 8.66 19.64 9.32 21 10 C17.31391488 10 15.4521665 8.87527099 12.1875 7.1875 C11.17042969 6.66542969 10.15335937 6.14335937 9.10546875 5.60546875 C8.08066406 5.07566406 7.05585938 4.54585938 6 4 C4.00138504 2.99723471 2.00179211 1.99640773 0 1 C0 0.67 0 0.34 0 0 Z " fill="#A87045" transform="translate(395,349)"/>
<path d="M0 0 C1.32 0 2.64 0 4 0 C4 0.66 4 1.32 4 2 C4.804375 2.061875 5.60875 2.12375 6.4375 2.1875 C10.39376141 3.08980523 13.2000306 4.62627 16.67578125 6.65625 C20.04035533 8.60148275 23.51205367 10.28773544 27 12 C27 12.66 27 13.32 27 14 C22.13036683 12.54963086 17.92377937 10.49781288 13.5 8.0625 C12.21915079 7.36514876 10.93790553 6.66852444 9.65625 5.97265625 C8.73972656 5.47403076 8.73972656 5.47403076 7.8046875 4.96533203 C5.23036411 3.58831977 2.61908992 2.28933593 0 1 C0 0.67 0 0.34 0 0 Z " fill="#875957" transform="translate(80,186)"/>
<path d="M0 0 C0.33 0 0.66 0 1 0 C0.82531565 8.9565432 -1.1271715 15.93994364 -5 24 C-5.66 24 -6.32 24 -7 24 C-7.33 24.66 -7.66 25.32 -8 26 C-7.33333333 23.33333333 -6.66666667 20.66666667 -6 18 C-5.34 18 -4.68 18 -4 18 C-4.020625 17.05125 -4.04125 16.1025 -4.0625 15.125 C-4 12 -4 12 -3 10 C-2.34 10 -1.68 10 -1 10 C-0.67 6.7 -0.34 3.4 0 0 Z " fill="#885C5B" transform="translate(393,350)"/>
<path d="M0 0 C3.37705625 0.53725895 6.696686 1.11064623 10 2 C10 2.66 10 3.32 10 4 C11.0828125 3.8453125 11.0828125 3.8453125 12.1875 3.6875 C16.15176326 4.1279737 17.46535287 6.04291169 20 9 C20.33 9.66 20.66 10.32 21 11 C15.99886406 9.51991304 11.67084403 7.3681664 7.125 4.875 C6.43664062 4.50246094 5.74828125 4.12992187 5.0390625 3.74609375 C3.35705202 2.83500474 1.67819564 1.91809685 0 1 C0 0.67 0 0.34 0 0 Z " fill="#966550" transform="translate(245,271)"/>
<path d="M0 0 C0.99 0.33 1.98 0.66 3 1 C-12.96666667 11 -12.96666667 11 -18 11 C-18 10.34 -18 9.68 -18 9 C-16.02 8.67 -14.04 8.34 -12 8 C-11.67 6.35 -11.34 4.7 -11 3 C-10.37351562 2.86722656 -9.74703125 2.73445312 -9.1015625 2.59765625 C-8.28429687 2.42105469 -7.46703125 2.24445313 -6.625 2.0625 C-5.40683594 1.80146484 -5.40683594 1.80146484 -4.1640625 1.53515625 C-1.970537 1.07669307 -1.970537 1.07669307 0 0 Z " fill="#96634B" transform="translate(372,184)"/>
<path d="M0 0 C1.32 0 2.64 0 4 0 C4 0.66 4 1.32 4 2 C2.35 2.33 0.7 2.66 -1 3 C-1.33 3.99 -1.66 4.98 -2 6 C-2.94875 6.0825 -3.8975 6.165 -4.875 6.25 C-8.10461791 6.65074923 -8.10461791 6.65074923 -9.375 9.0625 C-9.684375 10.0215625 -9.684375 10.0215625 -10 11 C-11.65 10.67 -13.3 10.34 -15 10 C-12.61753661 7.31874582 -10.1454496 5.88576541 -6.9375 4.3125 C-5.62072266 3.65701172 -5.62072266 3.65701172 -4.27734375 2.98828125 C-2 2 -2 2 0 2 C0 1.34 0 0.68 0 0 Z " fill="#EA9623" transform="translate(413,98)"/>
<path d="M0 0 C3.63 0 7.26 0 11 0 C11 0.66 11 1.32 11 2 C11.99 2.33 12.98 2.66 14 3 C14 4.32 14 5.64 14 7 C9.0276578 5.50829734 4.58154261 3.39542583 0 1 C0 0.67 0 0.34 0 0 Z " fill="#CE882B" transform="translate(341,321)"/>
<path d="M0 0 C-3.26168237 1.87062493 -6.53566022 3.71857576 -9.8125 5.5625 C-10.74126953 6.09552734 -11.67003906 6.62855469 -12.62695312 7.17773438 C-13.9659668 7.92700195 -13.9659668 7.92700195 -15.33203125 8.69140625 C-16.15421143 9.15748291 -16.9763916 9.62355957 -17.82348633 10.10375977 C-20 11 -20 11 -23 10 C-19.05391912 6.18545515 -15.31080628 5.04739617 -10.109375 3.80859375 C-9.41328125 3.54175781 -8.7171875 3.27492188 -8 3 C-7.67 2.01 -7.34 1.02 -7 0 C-4.05610218 -1.17755913 -3.10046087 -1.03348696 0 0 Z " fill="#8F6053" transform="translate(222,265)"/>
<path d="M0 0 C0.99 0.66 1.98 1.32 3 2 C-2.75 6 -2.75 6 -5 6 C-5 5.34 -5 4.68 -5 4 C-7.97 6.475 -7.97 6.475 -11 9 C-11.99 8.34 -12.98 7.68 -14 7 C-11.5860268 4.13840263 -9.4583325 3.32568005 -5.875 2.375 C-2.65634118 1.7005259 -2.65634118 1.7005259 0 0 Z " fill="#F79F14" transform="translate(357,129)"/>
<path d="M0 0 C2.47828283 0.42729014 3.72952122 0.71825127 5.5 2.5625 C7.13505943 4.46127024 7.13505943 4.46127024 11 4 C10.67 5.32 10.34 6.64 10 8 C10.66 8 11.32 8 12 8 C12.33 8.66 12.66 9.32 13 10 C13.99 10.66 14.98 11.32 16 12 C11.4923533 11.46968862 8.58045212 9.74778884 5 7 C5 6.34 5 5.68 5 5 C4.34 5 3.68 5 3 5 C3 4.34 3 3.68 3 3 C2.34 3 1.68 3 1 3 C0.67 2.01 0.34 1.02 0 0 Z " fill="#A26C51" transform="translate(63,376)"/>
<path d="M0 0 C-10.3515625 5.17578125 -10.3515625 5.17578125 -12.20019531 6.09228516 C-13.92717133 6.96326954 -15.63224202 7.8772823 -17.3359375 8.79296875 C-18.21507813 9.19128906 -19.09421875 9.58960938 -20 10 C-20.66 9.67 -21.32 9.34 -22 9 C-19 7 -19 7 -16 7 C-15.34 5.35 -14.68 3.7 -14 2 C-11.69 2 -9.38 2 -7 2 C-7 1.34 -7 0.68 -7 0 C-3.98968256 -0.93423645 -3.13349732 -1.04449911 0 0 Z " fill="#98654B" transform="translate(139,309)"/>
<path d="M0 0 C1.32 0 2.64 0 4 0 C4 0.66 4 1.32 4 2 C6.31 2.33 8.62 2.66 11 3 C11 2.34 11 1.68 11 1 C11.66 1 12.32 1 13 1 C13 2.32 13 3.64 13 5 C13.66 5 14.32 5 15 5 C15 5.66 15 6.32 15 7 C15.66 7 16.32 7 17 7 C17 7.66 17 8.32 17 9 C10.83643195 7.3341708 5.51740344 4.12194714 0 1 C0 0.67 0 0.34 0 0 Z " fill="#A26D44" transform="translate(416,360)"/>
<path d="M0 0 C3.50625349 0.6493062 5.96542279 2.17925367 9 4 C11.19130534 4.69579454 11.19130534 4.69579454 13 5 C13 5.66 13 6.32 13 7 C14.32 7.33 15.64 7.66 17 8 C13.97878489 8.97110486 11.99536737 9.13617383 9 8 C8.67 7.34 8.34 6.68 8 6 C5.6859378 5.26924352 3.35171131 4.59861742 1 4 C0.67 2.68 0.34 1.36 0 0 Z " fill="#81555C" transform="translate(202,183)"/>
<path d="M0 0 C0.66 0.33 1.32 0.66 2 1 C-1.20192493 4.71423292 -4.41416902 6.3324251 -9 8 C-9.99 8 -10.98 8 -12 8 C-12 8.66 -12 9.32 -12 10 C-15.47307692 12.10865385 -15.47307692 12.10865385 -18.140625 11.55859375 C-19.06101562 11.28208984 -19.06101562 11.28208984 -20 11 C-19.14450562 10.55346069 -19.14450562 10.55346069 -18.27172852 10.09790039 C-15.70097638 8.7546883 -13.13172348 7.40863353 -10.5625 6.0625 C-9.66466797 5.59392578 -8.76683594 5.12535156 -7.84179688 4.64257812 C-6.98779297 4.19462891 -6.13378906 3.74667969 -5.25390625 3.28515625 C-4.06776733 2.66459351 -4.06776733 2.66459351 -2.85766602 2.03149414 C-1.04434725 1.13599249 -1.04434725 1.13599249 0 0 Z " fill="#725568" transform="translate(322,144)"/>
<path d="M0 0 C4.64014017 0.43774907 6.76743163 0.76743163 10 4 C13.12549017 4.25048636 13.12549017 4.25048636 16 4 C15.67 5.65 15.34 7.3 15 9 C13.68 8.67 12.36 8.34 11 8 C11 7.34 11 6.68 11 6 C10.29875 5.9175 9.5975 5.835 8.875 5.75 C5.33014368 4.82525487 2.92295379 3.17522143 0 1 C0 0.67 0 0.34 0 0 Z " fill="#9A6B4F" transform="translate(132,212)"/>
<path d="M0 0 C2.00720923 0.28674418 4.0085944 0.61866701 6 1 C4.81930795 4.54207616 3.66847933 5.32532131 0.75 7.5625 C-0.01828125 8.16191406 -0.7865625 8.76132812 -1.578125 9.37890625 C-3.98811498 10.99204471 -6.27570353 12.02910711 -9 13 C-9 12.34 -9 11.68 -9 11 C-7.865625 10.4225 -6.73125 9.845 -5.5625 9.25 C-2.63937424 7.7038859 -2.63937424 7.7038859 -1.25 4.8125 C-1.1675 4.214375 -1.085 3.61625 -1 3 C-0.01 2.67 0.98 2.34 2 2 C1.01 1.67 0.02 1.34 -1 1 C-0.67 0.67 -0.34 0.34 0 0 Z " fill="#A36B49" transform="translate(379,375)"/>
<path d="M0 0 C3.15058384 1.44822713 6.29456973 2.91024622 9.4375 4.375 C10.78424805 4.99375 10.78424805 4.99375 12.15820312 5.625 C13.01220703 6.02460938 13.86621094 6.42421875 14.74609375 6.8359375 C15.93223267 7.38580322 15.93223267 7.38580322 17.14233398 7.94677734 C19 9 19 9 20 11 C12.45314885 9.39188592 5.86960819 7.20293664 0 2 C0 1.34 0 0.68 0 0 Z " fill="#705166" transform="translate(182,172)"/>
<path d="M0 0 C3.79148763 1.46902657 7.46458708 3.10442433 11.125 4.875 C12.15882813 5.36742187 13.19265625 5.85984375 14.2578125 6.3671875 C17.01088441 8.00648103 18.39058412 9.25844329 20 12 C20 12.66 20 13.32 20 14 C19.34 14 18.68 14 18 14 C17.74621582 13.38415039 17.49243164 12.76830078 17.23095703 12.13378906 C15.80992516 9.67051683 14.83906105 9.06621955 12.3046875 7.859375 C11.58925781 7.51132812 10.87382812 7.16328125 10.13671875 6.8046875 C9.39035156 6.45664062 8.64398438 6.10859375 7.875 5.75 C7.12089844 5.38648438 6.36679687 5.02296875 5.58984375 4.6484375 C3.73178414 3.75468731 1.86655182 2.87587625 0 2 C0 1.34 0 0.68 0 0 Z " fill="#63486B" transform="translate(452,312)"/>
<path d="M0 0 C1.32 0 2.64 0 4 0 C4 0.66 4 1.32 4 2 C5.98 2 7.96 2 10 2 C10 2.66 10 3.32 10 4 C10.66 4.33 11.32 4.66 12 5 C12 5.99 12 6.98 12 8 C6.80421104 6.63919813 3.86388964 4.58789752 0 1 C0 0.67 0 0.34 0 0 Z " fill="#C17E3A" transform="translate(281,288)"/>
<path d="M0 0 C5.28 0.33 10.56 0.66 16 1 C15.67 2.65 15.34 4.3 15 6 C14.319375 5.690625 13.63875 5.38125 12.9375 5.0625 C9.94460737 3.85539125 9.94460737 3.85539125 6.375 3.5625 C3 3 3 3 0 0 Z " fill="#D18B2A" transform="translate(433,369)"/>
<path d="M0 0 C0.66 0 1.32 0 2 0 C1.67 0.99 1.34 1.98 1 3 C-1.31 3.33 -3.62 3.66 -6 4 C-6 4.66 -6 5.32 -6 6 C-7.98 6 -9.96 6 -12 6 C-11.3125 4.0625 -11.3125 4.0625 -10 2 C-6.39887139 0.7347386 -3.65254051 1.0607753 0 2 C0 1.34 0 0.68 0 0 Z " fill="#EB9A1C" transform="translate(138,305)"/>
<path d="M0 0 C2.475 0.495 2.475 0.495 5 1 C5 1.66 5 2.32 5 3 C6.0725 2.484375 7.145 1.96875 8.25 1.4375 C10.71477612 0.36759718 11.72132303 -0.03572782 14.4375 0.3125 C15.2109375 0.6528125 15.2109375 0.6528125 16 1 C13.62054913 4.04569711 12.44141882 4.92776783 8.5625 5.5625 C4.17667343 4.87000107 2.77667668 3.3656687 0 0 Z " fill="#916156" transform="translate(219,192)"/>
<path d="M0 0 C-5.85804117 3.37910649 -11.77142448 6.3642671 -18 9 C-17.67 7.68 -17.34 6.36 -17 5 C-15.35 5 -13.7 5 -12 5 C-12 4.34 -12 3.68 -12 3 C-10.35 2.67 -8.7 2.34 -7 2 C-7 1.34 -7 0.68 -7 0 C-3.98968256 -0.93423645 -3.13349732 -1.04449911 0 0 Z " fill="#E39324" transform="translate(419,160)"/>
<path d="M0 0 C0 1.98 0 3.96 0 6 C-0.763125 5.690625 -1.52625 5.38125 -2.3125 5.0625 C-4.18789677 4.32106407 -6.08684652 3.63771783 -8 3 C-8 2.01 -8 1.02 -8 0 C-4.71023192 -1.09658936 -3.28696233 -0.79953138 0 0 Z " fill="#E99614" transform="translate(408,290)"/>
<path d="M0 0 C4.49797113 1.68673918 8.72886302 3.81673892 13 6 C13 6.33 13 6.66 13 7 C10.36 7.33 7.72 7.66 5 8 C5 7.34 5 6.68 5 6 C4.34 6 3.68 6 3 6 C3 5.34 3 4.68 3 4 C2.0206121 2.97980427 1.02104551 1.97850195 0 1 C0 0.67 0 0.34 0 0 Z " fill="#E29122" transform="translate(379,276)"/>
<path d="M0 0 C-1.58220587 0.96019364 -3.16581331 1.91807798 -4.75 2.875 C-6.07257813 3.67550781 -6.07257813 3.67550781 -7.421875 4.4921875 C-8.69804687 5.23855469 -8.69804687 5.23855469 -10 6 C-10.70640625 6.41507812 -11.4128125 6.83015625 -12.140625 7.2578125 C-14 8 -14 8 -17 7 C-16.34 7 -15.68 7 -15 7 C-14.67 6.01 -14.34 5.02 -14 4 C-12.68 4 -11.36 4 -10 4 C-10 3.34 -10 2.68 -10 2 C-8.68 2 -7.36 2 -6 2 C-6 1.34 -6 0.68 -6 0 C-3 -1 -3 -1 0 0 Z " fill="#97664E" transform="translate(191,281)"/>
<path d="M0 0 C6.21689926 0.32720522 11.00899274 3.52799495 16 7 C16 7.33 16 7.66 16 8 C10.42724458 8.37151703 10.42724458 8.37151703 8.5625 6.75 C8.046875 6.1725 7.53125 5.595 7 5 C4.71578149 3.56464648 2.36843787 2.2959377 0 1 C0 0.67 0 0.34 0 0 Z " fill="#7E5B57" transform="translate(363,267)"/>
<path d="M0 0 C4.62675657 1.3922459 8.64686231 3.29520984 12.875 5.625 C14.02742187 6.25664062 15.17984375 6.88828125 16.3671875 7.5390625 C17.67042969 8.26222656 17.67042969 8.26222656 19 9 C17.171875 9.609375 17.171875 9.609375 15 10 C12.97209016 8.70951192 10.97630407 7.36821051 9 6 C7.57594958 5.44344451 6.13746523 4.92255098 4.6875 4.4375 C2.8621875 3.7259375 2.8621875 3.7259375 1 3 C0.67 2.01 0.34 1.02 0 0 Z " fill="#79525D" transform="translate(150,156)"/>
<path d="M0 0 C6.39969165 0.2723273 11.24234087 2.66308623 16 7 C16 7.99 16 8.98 16 10 C15.67 9.34 15.34 8.68 15 8 C14.01 8 13.02 8 12 8 C11.67 7.34 11.34 6.68 11 6 C8.47266765 5.34444881 8.47266765 5.34444881 6 5 C6 4.01 6 3.02 6 2 C4.02 2 2.04 2 0 2 C0 1.34 0 0.68 0 0 Z " fill="#E4912B" transform="translate(362,69)"/>
<path d="M0 0 C0.8353125 0.37125 0.8353125 0.37125 1.6875 0.75 C0.25 3.1875 0.25 3.1875 -2.3125 5.75 C-5.30554558 6.48151889 -8.23803213 6.67773687 -11.3125 6.75 C-10.4771875 6.13125 -10.4771875 6.13125 -9.625 5.5 C-7.22476194 3.73506551 -7.22476194 3.73506551 -4.8125 1.5 C-2.3125 -0.25 -2.3125 -0.25 0 0 Z " fill="#E89522" transform="translate(68.3125,280.25)"/>
<path d="M0 0 C0.99 0.33 1.98 0.66 3 1 C1.40377344 2.03320481 -0.20229106 3.05122429 -1.8125 4.0625 C-3.15248047 4.91521484 -3.15248047 4.91521484 -4.51953125 5.78515625 C-7 7 -7 7 -10 6 C-9.67 4.68 -9.34 3.36 -9 2 C-6.94921875 1.77213542 -4.8984375 1.54427083 -2.84765625 1.31640625 C-0.98859771 1.18113386 -0.98859771 1.18113386 0 0 Z " fill="#A16C41" transform="translate(385,177)"/>
<path d="M0 0 C5.60120371 2.04471126 10.56677932 3.86232737 15 8 C13.02 8 11.04 8 9 8 C9 7.34 9 6.68 9 6 C8.443125 5.896875 7.88625 5.79375 7.3125 5.6875 C4.5230899 4.85821592 2.3860936 3.65700944 0 2 C0 1.34 0 0.68 0 0 Z " fill="#DE8B26" transform="translate(331,251)"/>
<path d="M0 0 C6.93 0.495 6.93 0.495 14 1 C14 1.66 14 2.32 14 3 C14.99 3.33 15.98 3.66 17 4 C10.83381819 4.40214229 5.82254243 2.96818336 0 1 C0 0.67 0 0.34 0 0 Z " fill="#A76949" transform="translate(79,388)"/>
<path d="M0 0 C4.50727647 0.60266785 7.8587963 2.36599794 11.8125 4.5625 C12.7087207 5.0565332 12.7087207 5.0565332 13.62304688 5.56054688 C15.08533998 6.36773267 16.5431399 7.18304917 18 8 C16.12109375 8.58203125 16.12109375 8.58203125 14 9 C12.0625 7.6875 12.0625 7.6875 10 6 C9.195625 5.690625 8.39125 5.38125 7.5625 5.0625 C4.56954209 3.82151745 2.44893725 2.09908907 0 0 Z " fill="#694B67" transform="translate(379,275)"/>
<path d="M0 0 C0.66 0.99 1.32 1.98 2 3 C1.67 3.99 1.34 4.98 1 6 C-2.0625 7.1875 -2.0625 7.1875 -5 8 C-5 7.01 -5 6.02 -5 5 C-5.66 4.67 -6.32 4.34 -7 4 C-4.61426621 2.10786631 -2.92824652 0.97608217 0 0 Z " fill="#C6852A" transform="translate(197,272)"/>
<path d="M0 0 C2.475 0.495 2.475 0.495 5 1 C5 1.66 5 2.32 5 3 C5.94875 3.28875 6.8975 3.5775 7.875 3.875 C11 5 11 5 13 7 C10.8125 7.75 10.8125 7.75 8 8 C5.375 6.125 5.375 6.125 3 4 C2.01 3.67 1.02 3.34 0 3 C0 2.01 0 1.02 0 0 Z " fill="#E09025" transform="translate(354,263)"/>
<path d="M0 0 C0 0.99 0 1.98 0 3 C-0.886875 3.144375 -1.77375 3.28875 -2.6875 3.4375 C-5.47117646 3.91019978 -8.23483757 4.43070185 -11 5 C-8.19620232 0.57295103 -5.22955941 -1.74318647 0 0 Z " fill="#EE9B1D" transform="translate(80,73)"/>
<path d="M0 0 C3.69373527 0.58287667 6.49881745 1.59916356 9.75 3.4375 C10.52859375 3.86933594 11.3071875 4.30117188 12.109375 4.74609375 C14 6 14 6 15 8 C9.52067211 6.45454854 4.88570819 3.84456788 0 1 C0 0.67 0 0.34 0 0 Z " fill="#8B5D53" transform="translate(439,372)"/>
<path d="M0 0 C0 0.66 0 1.32 0 2 C-3.34880626 4.74219867 -6.67076296 6.86153781 -11 7.3125 C-11.66 7.209375 -12.32 7.10625 -13 7 C-10.84985117 3.77477676 -9.93845623 3.26937837 -6.5 1.8125 C-5.7059375 1.46832031 -4.911875 1.12414062 -4.09375 0.76953125 C-2 0 -2 0 0 0 Z " fill="#E09221" transform="translate(108,260)"/>
<path d="M0 0 C2.5 1.3125 2.5 1.3125 5 3 C5 3.99 5 4.98 5 6 C6.65 6.33 8.3 6.66 10 7 C9.01 7.33 8.02 7.66 7 8 C6.67 8.66 6.34 9.32 6 10 C5.38125 9.195625 4.7625 8.39125 4.125 7.5625 C2.25835959 4.96125481 2.25835959 4.96125481 0 4 C0 2.68 0 1.36 0 0 Z " fill="#ED9B1B" transform="translate(290,229)"/>
<path d="M0 0 C12.66970387 -0.3690205 12.66970387 -0.3690205 18 2 C18 2.33 18 2.66 18 3 C11.64012196 3.20190089 6.14778871 2.6277833 0 1 C0 0.67 0 0.34 0 0 Z " fill="#A1694A" transform="translate(347,66)"/>
<path d="M0 0 C2 1 2 1 2 1 Z M4 3 C3.34 3.66 2.68 4.32 2 5 C0.68 5 -0.64 5 -2 5 C-2 5.66 -2 6.32 -2 7 C-2.99 6.67 -3.98 6.34 -5 6 C-5.33 5.01 -5.66 4.02 -6 3 C-1.91847062 0.90092774 -0.08152938 0.90092774 4 3 Z " fill="#F39D18" transform="translate(103,320)"/>
<path d="M0 0 C0.66 0.33 1.32 0.66 2 1 C-6.19910847 7.03417533 -6.19910847 7.03417533 -9 8 C-10.34279852 7.70711603 -11.67851173 7.37756808 -13 7 C-10.88002166 5.80266012 -8.75486324 4.61701287 -6.625 3.4375 C-6.02171875 3.09525391 -5.4184375 2.75300781 -4.796875 2.40039062 C-3.23021759 1.53872905 -1.61709138 0.76281817 0 0 Z " fill="#7B5660" transform="translate(152,234)"/>
<path d="M0 0 C0.556875 0.226875 1.11375 0.45375 1.6875 0.6875 C0.875 2.625 0.875 2.625 -0.3125 4.6875 C-1.3025 5.0175 -2.2925 5.3475 -3.3125 5.6875 C-3.3125 5.0275 -3.3125 4.3675 -3.3125 3.6875 C-4.6325 3.3575 -5.9525 3.0275 -7.3125 2.6875 C-2.88173077 -0.38942308 -2.88173077 -0.38942308 0 0 Z " fill="#B07347" transform="translate(420.3125,94.3125)"/>
<path d="M0 0 C0.99 0.33 1.98 0.66 3 1 C3.984375 3.1796875 3.984375 3.1796875 4.75 5.875 C5.01296875 6.75929688 5.2759375 7.64359375 5.546875 8.5546875 C6 11 6 11 5 14 C2.01795118 9.25583142 0 5.67810568 0 0 Z " fill="#996951" transform="translate(57,362)"/>
<path d="M0 0 C0.9075 0.103125 1.815 0.20625 2.75 0.3125 C1.6875 2.25 1.6875 2.25 -0.25 4.3125 C-3.9375 5.0625 -3.9375 5.0625 -7.25 5.3125 C-4.05 0.38942308 -4.05 0.38942308 0 0 Z " fill="#D28A2D" transform="translate(140.25,241.6875)"/>
<path d="M0 0 C0 0.66 0 1.32 0 2 C-0.99 2 -1.98 2 -3 2 C-3 3.32 -3 4.64 -3 6 C-8.94 6.495 -8.94 6.495 -15 7 C-12.35658072 5.23772048 -9.76922765 3.80128992 -6.9375 2.375 C-6.05964844 1.92898437 -5.18179687 1.48296875 -4.27734375 1.0234375 C-2 0 -2 0 0 0 Z " fill="#E89625" transform="translate(325,146)"/>
<path d="M0 0 C3.7602985 0.58107632 6.53035032 1.65199496 9.8125 3.5625 C10.60269531 4.01753906 11.39289063 4.47257813 12.20703125 4.94140625 C12.79871094 5.29074219 13.39039063 5.64007813 14 6 C10.79937313 7.60031344 8.27728194 6.03173691 5 5 C5 4.34 5 3.68 5 3 C3.35 2.67 1.7 2.34 0 2 C0 1.34 0 0.68 0 0 Z " fill="#725366" transform="translate(122,142)"/>
<path d="M0 0 C0.33 1.32 0.66 2.64 1 4 C-2.73437848 4.87867729 -6.16774573 5.08912219 -10 5 C-4.03225806 0 -4.03225806 0 0 0 Z " fill="#EC981F" transform="translate(342,137)"/>
<path d="M0 0 C4.571279 0.54855348 8.67435795 1.41744803 13 3 C13 3.66 13 4.32 13 5 C13.99 5 14.98 5 16 5 C15.67 5.66 15.34 6.32 15 7 C14.01 6.67 13.02 6.34 12 6 C12 5.34 12 4.68 12 4 C10.700625 4.0928125 10.700625 4.0928125 9.375 4.1875 C5.55800967 3.97544498 3.28922464 2.87955693 0 1 C0 0.67 0 0.34 0 0 Z " fill="#B27542" transform="translate(316,308)"/>
<path d="M0 0 C0.66 0.33 1.32 0.66 2 1 C-3.14285714 5.42857143 -3.14285714 5.42857143 -7 6 C-7 7.65 -7 9.3 -7 11 C-7.66 10.67 -8.32 10.34 -9 10 C-9 7.8125 -9 7.8125 -8 5 C-5.53933287 2.9503454 -2.94576346 1.26505179 0 0 Z " fill="#895E5F" transform="translate(64,280)"/>
<path d="M0 0 C0.66 0 1.32 0 2 0 C2.0825 1.11375 2.165 2.2275 2.25 3.375 C2.4975 4.57125 2.745 5.7675 3 7 C4.91764174 8.3762794 4.91764174 8.3762794 7 9 C7.33 9.66 7.66 10.32 8 11 C4.38851165 10.11719174 2.44784027 9.54896549 0.0625 6.625 C-1.08085185 3.80024836 -1.12910483 2.77143913 0 0 Z " fill="#C08138" transform="translate(58,168)"/>
<path d="M0 0 C1.32 0.66 2.64 1.32 4 2 C2.56705502 2.84114171 1.12845595 3.67265687 -0.3125 4.5 C-1.51326172 5.19609375 -1.51326172 5.19609375 -2.73828125 5.90625 C-5 7 -5 7 -8 7 C-8 6.34 -8 5.68 -8 5 C-6.68 5 -5.36 5 -4 5 C-4 4.01 -4 3.02 -4 2 C-2.68 2 -1.36 2 0 2 C0 1.34 0 0.68 0 0 Z " fill="#E59725" transform="translate(457,136)"/>
<path d="M0 0 C0 0.66 0 1.32 0 2 C-0.66 2 -1.32 2 -2 2 C-2.33 2.99 -2.66 3.98 -3 5 C-5.6352539 6.42446157 -7.19404974 7.16845087 -10.16796875 6.546875 C-11.07482422 6.27617188 -11.07482422 6.27617188 -12 6 C-10.37829621 4.99466333 -8.75252763 3.99588093 -7.125 3 C-5.76761719 2.1646875 -5.76761719 2.1646875 -4.3828125 1.3125 C-2 0 -2 0 0 0 Z " fill="#E49426" transform="translate(440,85)"/>
<path d="M0 0 C2.375 0.3125 2.375 0.3125 5 1 C5.66 1.99 6.32 2.98 7 4 C7.99 4.33 8.98 4.66 10 5 C10 5.66 10 6.32 10 7 C8.68 7 7.36 7 6 7 C6 6.34 6 5.68 6 5 C5.38125 4.731875 4.7625 4.46375 4.125 4.1875 C2 3 2 3 0 0 Z " fill="#ED9E18" transform="translate(335,314)"/>
<path d="M0 0 C1.98 0.99 1.98 0.99 4 2 C4 2.66 4 3.32 4 4 C5.98 4 7.96 4 10 4 C9.360625 4.103125 8.72125 4.20625 8.0625 4.3125 C7.381875 4.539375 6.70125 4.76625 6 5 C5.67 5.99 5.34 6.98 5 8 C4.34 7.67 3.68 7.34 3 7 C3 6.34 3 5.68 3 5 C2.01 4.67 1.02 4.34 0 4 C0 2.68 0 1.36 0 0 Z " fill="#EA9A1A" transform="translate(369,271)"/>
<path d="M0 0 C0.7425 0.433125 0.7425 0.433125 1.5 0.875 C3.7334329 1.88004481 5.62731629 2.4107288 8 2.9375 C11.27768397 3.70188525 13.47400899 4.68450824 16 7 C12.34056353 6.31092878 8.77558041 5.43178734 5.1875 4.4375 C4.21167969 4.16808594 3.23585938 3.89867187 2.23046875 3.62109375 C1.12638672 3.31365234 1.12638672 3.31365234 0 3 C0 2.01 0 1.02 0 0 Z " fill="#A67144" transform="translate(308,239)"/>
<path d="M0 0 C7.53444181 0.6175772 7.53444181 0.6175772 9.75 2.4375 C10.36875 3.2109375 10.36875 3.2109375 11 4 C13.09989652 5.17574711 13.09989652 5.17574711 15 6 C14.01 6.495 14.01 6.495 13 7 C10.75689987 6.10333658 8.55245679 5.10853317 6.375 4.0625 C5.18648437 3.49660156 3.99796875 2.93070313 2.7734375 2.34765625 C1.85820312 1.90292969 0.94296875 1.45820313 0 1 C0 0.67 0 0.34 0 0 Z " fill="#89605D" transform="translate(147,221)"/>
<path d="M0 0 C2.31 0.33 4.62 0.66 7 1 C7 1.99 7 2.98 7 4 C8.32 4 9.64 4 11 4 C11 4.66 11 5.32 11 6 C11.99 6 12.98 6 14 6 C13.67 6.66 13.34 7.32 13 8 C11.01729088 7.04901734 9.03891621 6.08899297 7.0625 5.125 C5.96035156 4.59132812 4.85820313 4.05765625 3.72265625 3.5078125 C1 2 1 2 0 0 Z " fill="#E89623" transform="translate(117,203)"/>
<path d="M0 0 C1.04449911 3.13349732 0.93423645 3.98968256 0 7 C-1.32 7 -2.64 7 -4 7 C-4 6.34 -4 5.68 -4 5 C-4.66 4.34 -5.32 3.68 -6 3 C-4.02 2.01 -2.04 1.02 0 0 Z " fill="#EF9B1A" transform="translate(238,191)"/>
<path d="M0 0 C0.66 0 1.32 0 2 0 C2 0.66 2 1.32 2 2 C2.66 2.33 3.32 2.66 4 3 C1.03 4.32 -1.94 5.64 -5 7 C-5 6.34 -5 5.68 -5 5 C-5.66 4.67 -6.32 4.34 -7 4 C-3.535 3.505 -3.535 3.505 0 3 C0 2.01 0 1.02 0 0 Z " fill="#ED9A1C" transform="translate(372,180)"/>
<path d="M0 0 C-2.11997834 1.19733988 -4.24513676 2.38298713 -6.375 3.5625 C-6.97828125 3.90474609 -7.5815625 4.24699219 -8.203125 4.59960938 C-9.76978241 5.46127095 -11.38290862 6.23718183 -13 7 C-13.66 6.67 -14.32 6.34 -15 6 C-4.8 -1.6 -4.8 -1.6 0 0 Z " fill="#845C59" transform="translate(413,165)"/>
<path d="M0 0 C0.99 0 1.98 0 3 0 C1.515 6.435 1.515 6.435 0 13 C-0.33 13 -0.66 13 -1 13 C-1.02686553 11.02090602 -1.04633375 9.04171029 -1.0625 7.0625 C-1.07410156 5.96035156 -1.08570313 4.85820312 -1.09765625 3.72265625 C-1 1 -1 1 0 0 Z " fill="#C57928" transform="translate(392,347)"/>
<path d="M0 0 C0.99 0.33 1.98 0.66 3 1 C2 4 2 4 -1 6 C-3.6875 6.125 -3.6875 6.125 -6 6 C-6 5.01 -6 4.02 -6 3 C-4.02 3 -2.04 3 0 3 C0 2.01 0 1.02 0 0 Z " fill="#C87F35" transform="translate(115,316)"/>
<path d="M0 0 C5.47932789 1.54545146 10.11429181 4.15543212 15 7 C11.25 8.125 11.25 8.125 9 7 C9 6.34 9 5.68 9 5 C8.2575 4.9175 7.515 4.835 6.75 4.75 C3.48778646 3.8603054 2.19045122 2.51496251 0 0 Z " fill="#5D4771" transform="translate(350,259)"/>
<path d="M0 0 C0.66 0.33 1.32 0.66 2 1 C-1.07999946 4.67230705 -3.2482602 5.56802365 -8 6 C-7.34 4.68 -6.68 3.36 -6 2 C-4.02 2 -2.04 2 0 2 C0 1.34 0 0.68 0 0 Z " fill="#B27645" transform="translate(338,201)"/>
<path d="M0 0 C1.45947705 0.06006078 2.91779272 0.1488689 4.375 0.25 C5.59316406 0.31960937 5.59316406 0.31960937 6.8359375 0.390625 C9 1 9 1 10.2890625 3.046875 C10.64097656 4.01367188 10.64097656 4.01367188 11 5 C6.87248551 4.39301257 3.6678852 2.96189209 0 1 C0 0.67 0 0.34 0 0 Z " fill="#976F50" transform="translate(107,200)"/>
<path d="M0 0 C6.64615385 3.2 6.64615385 3.2 8.4375 7.25 C8.623125 8.1575 8.80875 9.065 9 10 C7 8.625 7 8.625 5 7 C5 6.34 5 5.68 5 5 C3.68 5 2.36 5 1 5 C0.67 3.35 0.34 1.7 0 0 Z " fill="#A06A46" transform="translate(379,77)"/>
<path d="M0 0 C-3.85477249 2.56984833 -7.52040582 3.85814266 -12 5 C-12 4.34 -12 3.68 -12 3 C-10.75823305 2.29773859 -9.50614401 1.61370891 -8.25 0.9375 C-7.20585938 0.36322266 -7.20585938 0.36322266 -6.140625 -0.22265625 C-3.63859372 -1.1312406 -2.4667645 -0.88336837 0 0 Z " fill="#916354" transform="translate(85,69)"/>
<path d="M0 0 C2.95294288 0.64367519 5.48281988 1.59277161 8.1875 2.9375 C8.88230469 3.27652344 9.57710938 3.61554688 10.29296875 3.96484375 C12 5 12 5 13 7 C8.25 6.25 8.25 6.25 6 4 C5.154375 3.67 4.30875 3.34 3.4375 3 C1 2 1 2 0 0 Z " fill="#71535D" transform="translate(437,305)"/>
<path d="M0 0 C-2.06756277 2.7972908 -3.14440371 3.02692273 -6.6875 3.6875 C-7.780625 3.790625 -8.87375 3.89375 -10 4 C-7.10257116 -0.27715685 -5.06635533 -1.57231717 0 0 Z " fill="#E69222" transform="translate(256,184)"/>
<path d="M0 0 C0.66 0 1.32 0 2 0 C1.5625 2.375 1.5625 2.375 0 5 C-2.94119871 6.07001562 -5.90584243 6.57343918 -9 7 C-6.28922757 4.02873292 -3.86848614 3.11756266 0 2 C0 1.34 0 0.68 0 0 Z " fill="#A47046" transform="translate(356,126)"/>
<path d="M0 0 C2.26274788 0.35355436 3.95088852 0.97544426 6 2 C5.67 3.32 5.34 4.64 5 6 C4.34 6 3.68 6 3 6 C3 5.01 3 4.02 3 3 C1.35 2.67 -0.3 2.34 -2 2 C-1.34 1.34 -0.68 0.68 0 0 Z " fill="#F59A16" transform="translate(357,326)"/>
<path d="M0 0 C1.46291304 0.5929915 2.92021513 1.19983823 4.375 1.8125 C5.18710937 2.14894531 5.99921875 2.48539063 6.8359375 2.83203125 C9 4 9 4 11 7 C9.35 6.67 7.7 6.34 6 6 C6 5.34 6 4.68 6 4 C3.03 3.505 3.03 3.505 0 3 C0 2.01 0 1.02 0 0 Z " fill="#DD8F2D" transform="translate(316,243)"/>
<path d="M0 0 C-1.43011973 0.86646667 -2.86940619 1.71781829 -4.3125 2.5625 C-5.51326172 3.27599609 -5.51326172 3.27599609 -6.73828125 4.00390625 C-9 5 -9 5 -12 4 C-11.01 3.67 -10.02 3.34 -9 3 C-9 2.34 -9 1.68 -9 1 C-3.375 -1.125 -3.375 -1.125 0 0 Z " fill="#885D5B" transform="translate(470,135)"/>
<path d="M0 0 C4.37859255 0.50522222 6.81651224 3.17827222 10 6 C6.36672806 6 4.95264073 5.04413589 2 3 C1.34 2.01 0.68 1.02 0 0 Z " fill="#B77740" transform="translate(256,275)"/>
<path d="M0 0 C0.66 0.33 1.32 0.66 2 1 C-1.9050849 4.55007718 -4.97734643 5.81819916 -10 7 C-7.20283196 3.70921407 -3.80471422 1.93694542 0 0 Z " fill="#664C6E" transform="translate(134,243)"/>
<path d="M0 0 C0.66 0.33 1.32 0.66 2 1 C1.01 2.485 1.01 2.485 0 4 C0.99 4 1.98 4 3 4 C2.67 4.99 2.34 5.98 2 7 C1.01 6.67 0.02 6.34 -1 6 C-1 5.34 -1 4.68 -1 4 C-1.99 4 -2.98 4 -4 4 C-4 3.34 -4 2.68 -4 2 C-2.125 0.9375 -2.125 0.9375 0 0 Z " fill="#E09525" transform="translate(291,162)"/>
<path d="M0 0 C-0.99 0.495 -0.99 0.495 -2 1 C-2 1.66 -2 2.32 -2 3 C-4.31 3.33 -6.62 3.66 -9 4 C-8.67 3.01 -8.34 2.02 -8 1 C-5.29120665 -0.35439668 -2.99066732 -0.06501451 0 0 Z " fill="#A46E4A" transform="translate(332,142)"/>
<path d="M0 0 C0 1.32 0 2.64 0 4 C-5.75 2.25 -5.75 2.25 -8 0 C-4.94736336 -0.98120464 -3.05263664 -0.98120464 0 0 Z " fill="#C37B40" transform="translate(355,324)"/>
<path d="M0 0 C2.31 0 4.62 0 7 0 C6.67 0.66 6.34 1.32 6 2 C5.34 2 4.68 2 4 2 C4.33 2.99 4.66 3.98 5 5 C3.02 4.34 1.04 3.68 -1 3 C-0.67 2.01 -0.34 1.02 0 0 Z " fill="#F09F1A" transform="translate(240,264)"/>
<path d="M0 0 C0.70125 0.474375 1.4025 0.94875 2.125 1.4375 C5.16081337 3.08739857 7.59168786 3.60368464 11 4 C8.24075815 5.80411967 7.11027897 6.0127245 3.75 5.625 C2.8425 5.41875 1.935 5.2125 1 5 C1.33 4.01 1.66 3.02 2 2 C1.34 2 0.68 2 0 2 C0 1.34 0 0.68 0 0 Z " fill="#F0981E" transform="translate(219,193)"/>
<path d="M0 0 C-1 3 -1 3 -3.9375 4.75 C-5.4534375 5.36875 -5.4534375 5.36875 -7 6 C-7.66 5.67 -8.32 5.34 -9 5 C-6.41680366 1.12520549 -4.65792984 0 0 0 Z " fill="#8E6253" transform="translate(451,78)"/>
<path d="M0 0 C-0.5625 1.9375 -0.5625 1.9375 -2 4 C-5.625 4.75 -5.625 4.75 -9 5 C-6.45523312 2.20075644 -3.92372883 0 0 0 Z " fill="#7C5764" transform="translate(460,73)"/>
<path d="M0 0 C0.99 0 1.98 0 3 0 C3.33 2.31 3.66 4.62 4 7 C3.01 6.67 2.02 6.34 1 6 C1 5.34 1 4.68 1 4 C0.34 4 -0.32 4 -1 4 C-0.67 2.68 -0.34 1.36 0 0 Z " fill="#EC9A1B" transform="translate(74,380)"/>
<path d="M0 0 C0.66 0.33 1.32 0.66 2 1 C0.35 2.65 -1.3 4.3 -3 6 C-3.99 5.34 -4.98 4.68 -6 4 C-3.94766315 1.7522025 -2.99332739 0.9977758 0 0 Z " fill="#E59326" transform="translate(349,132)"/>
<path d="M0 0 C0.66 0.33 1.32 0.66 2 1 C1.67 2.32 1.34 3.64 1 5 C0.01 5 -0.98 5 -2 5 C-2 5.66 -2 6.32 -2 7 C-2.99 6.67 -3.98 6.34 -5 6 C-3.35 4.02 -1.7 2.04 0 0 Z " fill="#E49322" transform="translate(67,78)"/>
<path d="M0 0 C2.96175123 0.61277612 4.38058783 1.25372522 7 3 C7 3.66 7 4.32 7 5 C5.35 5 3.7 5 2 5 C1.34 3.35 0.68 1.7 0 0 Z " fill="#895E59" transform="translate(324,246)"/>
<path d="M0 0 C1.65 0 3.3 0 5 0 C5 0.66 5 1.32 5 2 C5.66 2.33 6.32 2.66 7 3 C7 3.99 7 4.98 7 6 C5.68 5.67 4.36 5.34 3 5 C3 3.68 3 2.36 3 1 C2.01 0.67 1.02 0.34 0 0 Z " fill="#CA8135" transform="translate(286,290)"/>
<path d="M0 0 C0.66 1.32 1.32 2.64 2 4 C-0.3125 4.6875 -0.3125 4.6875 -3 5 C-4.8125 3.5625 -4.8125 3.5625 -6 2 C-4.02 2 -2.04 2 0 2 C0 1.34 0 0.68 0 0 Z " fill="#EA9A1C" transform="translate(358,188)"/>
<path d="M0 0 C3.26954202 0.56371414 4.82575883 1.49962266 7 4 C4.50907189 5.24546405 3.58919267 4.7767578 1 4 C0.67 2.68 0.34 1.36 0 0 Z " fill="#93644D" transform="translate(202,183)"/>
<path d="M0 0 C-4.75 3 -4.75 3 -7 3 C-7 3.66 -7 4.32 -7 5 C-7.99 4.67 -8.98 4.34 -10 4 C-9.34 4 -8.68 4 -8 4 C-7.67 2.68 -7.34 1.36 -7 0 C-2.25 -1.125 -2.25 -1.125 0 0 Z " fill="#CE882E" transform="translate(448,145)"/>
<path d="M0 0 C-0.66 1.32 -1.32 2.64 -2 4 C-3.65 3.67 -5.3 3.34 -7 3 C-4.49955934 -0.00052879 -4.2621484 0 0 0 Z " fill="#EE9D18" transform="translate(405,105)"/>
<path d="M0 0 C0.66 0 1.32 0 2 0 C2 0.66 2 1.32 2 2 C3.98 2.66 5.96 3.32 8 4 C8 4.33 8 4.66 8 5 C6.02 5 4.04 5 2 5 C1.34 3.35 0.68 1.7 0 0 Z " fill="#D1832C" transform="translate(450,312)"/>
<path d="M0 0 C2.31 0 4.62 0 7 0 C4.37801226 2.15377564 2.35595828 3.40072174 -1 4 C-0.67 2.68 -0.34 1.36 0 0 Z " fill="#AD6E41" transform="translate(291,225)"/>
<path d="M0 0 C2.31 0.33 4.62 0.66 7 1 C7.33 1.99 7.66 2.98 8 4 C5.125 3.6875 5.125 3.6875 2 3 C1.34 2.01 0.68 1.02 0 0 Z " fill="#A66C44" transform="translate(132,212)"/>
<path d="M0 0 C1.32 0.33 2.64 0.66 4 1 C-2.75 5 -2.75 5 -5 5 C-4.67 4.01 -4.34 3.02 -4 2 C-2.68 2 -1.36 2 0 2 C0 1.34 0 0.68 0 0 Z " fill="#E0932C" transform="translate(321,209)"/>
</svg>
