<?xml version="1.0" encoding="UTF-8"?>
<svg version="1.1" xmlns="http://www.w3.org/2000/svg" width="698" height="572">
<path d="M0 0 C5.99563827 -0.09920868 11.990794 -0.17162945 17.98706055 -0.21972656 C20.02490568 -0.23978632 22.06269366 -0.26704099 24.1003418 -0.30175781 C27.03709047 -0.35052434 29.97307518 -0.37302541 32.91015625 -0.390625 C33.81459976 -0.41127014 34.71904327 -0.43191528 35.65089417 -0.45318604 C42.42038087 -0.4555632 46.81593843 0.92573366 51.8125 5.75 C53.5396461 9.02248734 54.13717744 12.40308568 55 16 C56.22608585 15.99585193 56.22608585 15.99585193 57.47694111 15.99162006 C77.44530462 15.92511742 97.41364882 15.87560199 117.38210011 15.84456348 C127.03903515 15.82915123 136.69589588 15.80817078 146.3527832 15.77368164 C154.77818265 15.74360527 163.20352822 15.7243841 171.62897986 15.71773452 C176.08251764 15.71385287 180.53590142 15.70485093 184.98938942 15.68280983 C220.64067967 15.51291097 220.64067967 15.51291097 236 19 C236 19.66 236 20.32 236 21 C237.175625 21.12375 238.35125 21.2475 239.5625 21.375 C243.54120426 21.86435935 247.17766559 22.8055205 251 24 C251 24.66 251 25.32 251 26 C251.98033203 26.12181641 251.98033203 26.12181641 252.98046875 26.24609375 C257.08060164 27.26980093 260.57262393 29.12738986 264.3125 31.0625 C265.05306641 31.43955078 265.79363281 31.81660156 266.55664062 32.20507812 C268.37387522 33.13128157 270.18732404 34.06490629 272 35 C272 35.66 272 36.32 272 37 C273.0828125 37.37125 273.0828125 37.37125 274.1875 37.75 C279.51955071 40.11980032 283.61933134 44.38171682 287.95703125 48.21484375 C289.23132565 49.32832853 290.51849304 50.42745144 291.82421875 51.50390625 C295.79405422 54.77790539 299.13558188 58.30364545 302.421875 62.265625 C304.0792468 64.22768174 304.0792468 64.22768174 307 66 C307 66.99 307 67.98 307 69 C307.721875 69.226875 308.44375 69.45375 309.1875 69.6875 C313.44012375 71.67205775 316.04322423 74.7561915 318.875 78.4375 C320.63226429 80.556554 322.21269503 82.08214847 324.3125 83.8125 C327.70726056 86.63298629 330.51200167 89.76358881 333.37890625 93.109375 C337.22810156 97.598557 340.55411464 100.59367856 346 103 C346 103.66 346 104.32 346 105 C346.969375 105.0825 347.93875 105.165 348.9375 105.25 C353.70407271 105.93914304 357.70159894 107.90754404 362 110 C363.14082031 110.52400391 363.14082031 110.52400391 364.3046875 111.05859375 C369.63772944 113.58523165 374.64348851 116.53688103 379.625 119.6875 C380.5679895 120.27664185 380.5679895 120.27664185 381.5300293 120.87768555 C383.05758855 121.86248954 384.53443273 122.92510988 386 124 C386 124.66 386 125.32 386 126 C386.68191406 126.19335938 387.36382812 126.38671875 388.06640625 126.5859375 C392.13380198 128.54651973 394.81430862 131.41108137 397.9375 134.625 C398.55995605 135.25656006 399.18241211 135.88812012 399.82373047 136.53881836 C403.43332697 140.24691031 406.84860988 143.98136938 409.7890625 148.25390625 C411.05308759 150.13681763 411.05308759 150.13681763 412.921875 152.265625 C415.2903608 155.38205369 416.96209589 158.66670524 418.625 162.1875 C420.79755321 166.92910792 420.79755321 166.92910792 424 171 C427.74972701 179.376794 431.60366112 188.64325263 431 198 C431.66 198 432.32 198 433 198 C433.77673155 203.51227595 434.15945641 208.8549451 434.16796875 214.41796875 C434.17129715 215.19707108 434.17462555 215.9761734 434.17805481 216.77888489 C434.18308529 218.41842058 434.18546435 220.05796637 434.18530273 221.69750977 C434.18747904 224.16375257 434.20564836 226.62953974 434.22460938 229.09570312 C434.2690694 241.51302204 433.47317858 253.28881386 429 265 C428.77441406 265.64066406 428.54882812 266.28132813 428.31640625 266.94140625 C421.64656503 285.59435202 411.55465877 300.73451825 398 315 C407.00612394 312.66244214 415.93031914 310.31097479 424.63671875 306.99609375 C430.09833933 304.93179922 435.33831636 303.36719267 441.1015625 302.39453125 C443.00225827 302.18055461 443.00225827 302.18055461 444 301 C448.67511628 300.17206164 453.18771275 299.87178689 457.9296875 299.8671875 C459.22003906 299.86589844 460.51039063 299.86460937 461.83984375 299.86328125 C462.5035498 299.86537598 463.16725586 299.8674707 463.85107422 299.86962891 C465.86303306 299.87496824 467.87476688 299.86967152 469.88671875 299.86328125 C487.92778325 299.88126835 487.92778325 299.88126835 495 303 C497.36920684 303.62649927 499.74492152 304.22866029 502.125 304.8125 C508.78596303 306.50380825 514.85794223 308.88427838 521 312 C521 312.66 521 313.32 521 314 C523.97 314.99 526.94 315.98 530 317 C530 317.66 530 318.32 530 319 C530.9590625 319.3403125 530.9590625 319.3403125 531.9375 319.6875 C535.37937321 321.16258852 538.56388931 322.93233222 541.81640625 324.78125 C543.85118171 325.91693863 545.90761898 326.97516032 548 328 C548 328.66 548 329.32 548 330 C548.94875 330.309375 549.8975 330.61875 550.875 330.9375 C554 332 554 332 556 333 C556 333.66 556 334.32 556 335 C556.94875 335.309375 557.8975 335.61875 558.875 335.9375 C562 337 562 337 564 338 C564 338.66 564 339.32 564 340 C564.9075 340.28875 565.815 340.5775 566.75 340.875 C569.32202908 341.76531776 571.61346766 342.71494413 574 344 C574 344.66 574 345.32 574 346 C577.93718896 347.4234539 577.93718896 347.4234539 582 348 C584.87551522 345.79135579 584.87551522 345.79135579 587 343 C592.72204879 341.0926504 599.42119443 341.12320611 605.125 343.0625 C608.53907016 345.36328641 611.92140967 347.7017992 615.26953125 350.09765625 C618.94094733 352.65556702 622.73681697 354.9923124 626.5546875 357.32421875 C630.18402254 359.81141481 632.59280892 361.77842677 634 366 C634.14554833 368.1216468 634.22080412 370.24856706 634.25 372.375 C634.28867188 374.05722656 634.28867188 374.05722656 634.328125 375.7734375 C633.95802077 379.41279573 633.08980138 381.03474128 631 384 C628.770671 387.33000189 626.57519917 390.66282858 624.4921875 394.0859375 C624.06292969 394.78847656 623.63367188 395.49101562 623.19140625 396.21484375 C622.30126675 397.67551776 621.41597245 399.13915374 620.53515625 400.60546875 C619.41011095 402.43749115 618.21098206 404.22361168 617 406 C616.34 406 615.68 406 615 406 C614.87625 406.5775 614.7525 407.155 614.625 407.75 C613.99351176 410.02335767 613.11141809 411.9253529 612 414 C611.34 414 610.68 414 610 414 C609.7525 414.70125 609.505 415.4025 609.25 416.125 C607.83046505 419.38993039 606.02868562 422.07630602 604 425 C603.38125 425.928125 602.7625 426.85625 602.125 427.8125 C600.41666667 430.375 598.70833333 432.9375 597 435.5 C596.48308594 436.27601563 595.96617187 437.05203125 595.43359375 437.8515625 C594.31429511 439.52898553 593.1894703 441.20272149 592.0625 442.875 C586.52876668 451.23008698 586.52876668 451.23008698 581.41015625 459.83984375 C580.71212891 460.90912109 580.71212891 460.90912109 580 462 C579.34 462 578.68 462 578 462 C577.9175 462.53625 577.835 463.0725 577.75 463.625 C576.74000517 466.82331697 574.90263273 469.28109582 573 472 C571.99689913 473.49792811 570.9970855 474.99806108 570 476.5 C560.375 490.9375 560.375 490.9375 558.83203125 493.23046875 C557.40641905 495.38560531 556.01508385 497.55317522 554.63671875 499.73828125 C553.77868913 501.07554862 552.92061606 502.4127881 552.0625 503.75 C551.66788574 504.38800537 551.27327148 505.02601074 550.86669922 505.68334961 C547.96193804 510.16980085 544.82062503 513.55964524 540 516 C533.78642321 517.27112883 527.75726968 516.97044891 522.3125 513.5625 C521.1965698 512.72376017 520.08980499 511.87241607 519 511 C518.34 510.67 517.68 510.34 517 510 C517 509.34 517 508.68 517 508 C516.278125 507.72671875 515.55625 507.4534375 514.8125 507.171875 C507.65369492 504.18903955 501.37534848 500.49245259 497 494 C494.94123741 487.70569399 495.65799647 480.37451676 497 474 C486.41169345 466.48571793 470.09532581 467.97052715 457.875 470 C456.2468683 470.31768423 454.62022599 470.64418566 453 471 C453 471.66 453 472.32 453 473 C451.0636296 473.50435694 449.12585854 474.00333874 447.1875 474.5 C446.10855469 474.7784375 445.02960938 475.056875 443.91796875 475.34375 C441 476 441 476 438 476 C438 476.66 438 477.32 438 478 C436.0636296 478.50435694 434.12585854 479.00333874 432.1875 479.5 C431.10855469 479.7784375 430.02960938 480.056875 428.91796875 480.34375 C426 481 426 481 423 481 C423 481.66 423 482.32 423 483 C421.0636296 483.50435694 419.12585854 484.00333874 417.1875 484.5 C416.10855469 484.7784375 415.02960938 485.056875 413.91796875 485.34375 C411 486 411 486 408 486 C408 486.66 408 487.32 408 488 C407.09378906 488.25394531 406.18757813 488.50789063 405.25390625 488.76953125 C397.5374846 490.94972657 389.85968373 493.15245752 382.359375 496.00390625 C376.29176523 498.3004457 370.40379212 499.94427722 364 501 C364 501.66 364 502.32 364 503 C362.0636296 503.50435694 360.12585854 504.00333874 358.1875 504.5 C357.10855469 504.7784375 356.02960938 505.056875 354.91796875 505.34375 C352 506 352 506 349 506 C349 506.66 349 507.32 349 508 C321.2631965 513.39661385 297.71693579 509.95821503 274.109375 494.3828125 C272.06431562 492.98367489 272.06431562 492.98367489 270 492 C270 491.34 270 490.68 270 490 C269.27167969 489.73316406 268.54335938 489.46632813 267.79296875 489.19140625 C265.02972021 488.01267785 262.77913082 486.64194609 260.3125 484.9375 C257.24499911 482.8177976 257.24499911 482.8177976 254 481 C254 480.34 254 479.68 254 479 C253.28457031 478.73832031 252.56914062 478.47664063 251.83203125 478.20703125 C248.87869395 476.94829852 246.37420506 475.44105135 243.6875 473.6875 C240.2610304 471.45890188 236.8205736 469.28485361 233.3125 467.1875 C232.219375 466.465625 231.12625 465.74375 230 465 C230 464.34 230 463.68 230 463 C228.96166016 462.64228516 228.96166016 462.64228516 227.90234375 462.27734375 C224.47494888 460.76892098 221.57926967 458.74657067 218.5625 456.5625 C214.5252621 453.64750962 210.48300293 451.18619591 206 449 C204.9805881 448.01979625 203.97753644 447.02196992 203 446 C200.90010348 444.82425289 200.90010348 444.82425289 199 444 C199 443.34 199 442.68 199 442 C198.21625 441.690625 197.4325 441.38125 196.625 441.0625 C194 440 194 440 192 439 C192 438.34 192 437.68 192 437 C190.7934375 436.690625 190.7934375 436.690625 189.5625 436.375 C183.96248301 434.21358993 179.22423384 430.81393828 174.5859375 427.03125 C170.99869015 424.21347263 167.12886748 421.94454598 163.23046875 419.5859375 C162.49441406 419.06257813 161.75835937 418.53921875 161 418 C161 417.34 161 416.68 161 416 C159.7934375 415.690625 159.7934375 415.690625 158.5625 415.375 C154.57675787 413.83664339 151.44462075 411.76845219 147.953125 409.33984375 C146.04576051 407.96571923 146.04576051 407.96571923 144 407 C144 406.34 144 405.68 144 405 C143.27554688 404.73832031 142.55109375 404.47664063 141.8046875 404.20703125 C137.97346802 402.55821953 134.86334887 400.21989993 131.4921875 397.7890625 C130.01934489 396.73175542 128.52999826 395.69588123 127.0078125 394.7109375 C122.22609568 391.58688251 119.12992215 387.7488474 116 383 C115.21302734 381.90171875 115.21302734 381.90171875 114.41015625 380.78125 C112.5249569 377.06307288 112.10326015 373.61602549 111.6875 369.5 C111.60628906 368.70335937 111.52507812 367.90671875 111.44140625 367.0859375 C110.46027087 355.78471145 111.76439586 346.07245729 119 337 C125.53330766 330.10888442 132.58980214 325.78240948 141.9375 324.25 C142.60201172 324.12496094 143.26652344 323.99992187 143.95117188 323.87109375 C149.91806559 322.81777207 156.39726482 321.89494944 162.125 324.3125 C163.12466797 324.73208984 163.12466797 324.73208984 164.14453125 325.16015625 C164.75683594 325.43730469 165.36914062 325.71445312 166 326 C166.928125 326.4125 167.85625 326.825 168.8125 327.25 C172.62674462 329.34409509 176.25616597 331.66653521 179.91015625 334.02734375 C182.0934695 335.42124159 184.28086925 336.78806433 186.49609375 338.12890625 C187.07931396 338.48251221 187.66253418 338.83611816 188.26342773 339.20043945 C189.92397828 340.20405351 191.58693333 341.2036859 193.25 342.203125 C196 344 196 344 197.52734375 345.5390625 C199.60854341 347.60370089 201.97946601 348.75609517 204.5625 350.125 C205.53316406 350.64320313 206.50382813 351.16140625 207.50390625 351.6953125 C208.99644102 352.47544804 210.49367427 353.24683714 212 354 C212 354.66 212 355.32 212 356 C212.7425 356.28875 213.485 356.5775 214.25 356.875 C216.56739797 357.82302644 218.77917115 358.84845911 221 360 C221 360.66 221 361.32 221 362 C222.423125 362.4640625 222.423125 362.4640625 223.875 362.9375 C227 364 227 364 229 365 C229 365.66 229 366.32 229 367 C230.423125 367.4640625 230.423125 367.4640625 231.875 367.9375 C235 369 235 369 237 370 C237 370.66 237 371.32 237 372 C238.07701172 372.40025391 238.07701172 372.40025391 239.17578125 372.80859375 C242.034565 374.01458136 244.54753648 375.43698539 247.1875 377.0625 C250.5385079 379.13105765 250.5385079 379.13105765 254 381 C254 381.66 254 382.32 254 383 C254.886875 383.2475 255.77375 383.495 256.6875 383.75 C260.12221969 385.04612064 262.20957115 386.66207313 265 389 C265.99 389.33 266.98 389.66 268 390 C268.14695312 389.00033203 268.14695312 389.00033203 268.296875 387.98046875 C269.4192722 381.06224465 270.9922309 374.36801115 274 368 C274.66 367.67 275.32 367.34 276 367 C276.30035156 366.38253906 276.60070312 365.76507813 276.91015625 365.12890625 C278.12699777 362.75192191 279.37100331 361.60402959 281.4375 359.9375 C283.23099075 358.47714144 284.9184918 357.08790936 286.4921875 355.390625 C288.91786763 353.15346924 291.858479 352.77056175 295 352 C295 351.34 295 350.68 295 350 C293.84242188 350.02578125 292.68484375 350.0515625 291.4921875 350.078125 C287.28466813 350.07442283 283.25067751 349.5517511 279.125 348.75 C278.43027588 348.61722656 277.73555176 348.48445313 277.01977539 348.34765625 C271.37113574 347.20336219 266.23365432 345.42154155 261 343 C259.824375 342.505 258.64875 342.01 257.4375 341.5 C253.28255334 339.68693237 249.13907572 337.84897487 245 336 C245 335.34 245 334.68 245 334 C243.7934375 333.690625 243.7934375 333.690625 242.5625 333.375 C236.14303506 330.89731178 230.70283202 327.00624054 226 322 C224.77530318 320.95308175 223.54547823 319.91215227 222.3125 318.875 C217.4637102 314.66541036 212.98187298 310.04186231 209 305 C209 304.34 209 303.68 209 303 C208.34 303 207.68 303 207 303 C205.49864039 300.98799466 204.1440386 298.99654769 202.8125 296.875 C202.41321289 296.24335938 202.01392578 295.61171875 201.60253906 294.9609375 C188.71951028 274.23293588 180.94119929 251.49482812 182 227 C180.76866333 227.00785522 180.76866333 227.00785522 179.51245117 227.01586914 C176.41300729 227.03309918 173.31358813 227.04554042 170.21411133 227.05493164 C168.23452108 227.0623244 166.25495299 227.07504274 164.27539062 227.08789062 C153.31569835 227.11563668 143.29327642 226.96481759 133 223 C132.01773438 222.6596875 132.01773438 222.6596875 131.015625 222.3125 C122.72401272 219.39385248 114.86427384 215.52126374 108 210 C108 209.34 108 208.68 108 208 C107.24074219 207.76023438 106.48148437 207.52046875 105.69921875 207.2734375 C102.56547938 205.79500185 101.67044878 204.5002832 99.8125 201.625 C96.00017366 196.53094326 92.27210334 194.17658504 86 193 C83.11390208 192.99157344 80.3774889 193.26587513 77.515625 193.63671875 C73.08064305 194.09500022 68.70468538 194.0921979 64.25 194.0625 C63.03280273 194.05621582 63.03280273 194.05621582 61.79101562 194.04980469 C59.8606457 194.03737741 57.93031342 194.01930313 56 194 C55.70480469 194.92554688 55.40960938 195.85109375 55.10546875 196.8046875 C53.10342395 202.59151662 50.49696159 206.2171162 45.0652771 209.18173218 C41.27655843 210.68283175 37.51236204 210.50884927 33.48828125 210.42578125 C32.59763474 210.42249313 31.70698822 210.41920502 30.78935242 210.41581726 C27.96322861 210.40015436 25.13831491 210.35612983 22.3125 210.3125 C20.40300445 210.30099994 18.49349774 210.29121736 16.58398438 210.28320312 C14.76040457 210.26978304 12.93683506 210.25486117 11.11328125 210.23828125 C10.25906082 210.23089432 9.40484039 210.22350739 8.5247345 210.21589661 C7.72677963 210.20306137 6.92882477 210.19022614 6.10668945 210.17700195 C5.05914238 210.16223564 5.05914238 210.16223564 3.99043274 210.14717102 C-1.30742518 209.7554516 -3.44680824 208.00872917 -7 204 C-10.80573509 199.2281629 -10.54717644 194.40489357 -10.67260742 188.55541992 C-10.72191926 186.92566239 -10.72191926 186.92566239 -10.77222729 185.26298046 C-11.21305129 168.88511406 -11.20619365 152.49588672 -11.23828125 136.11328125 C-11.2423426 134.32753169 -11.24645985 132.54178225 -11.25063133 130.75603294 C-11.26953699 122.38933233 -11.28381997 114.02263994 -11.2922433 105.65592223 C-11.30208455 96.0479546 -11.32864196 86.44021308 -11.36874419 76.83232528 C-11.39887439 69.35492968 -11.41370756 61.87759941 -11.41702431 54.40014428 C-11.41936989 49.95238701 -11.42827357 45.50487565 -11.45348549 41.05718422 C-11.4767297 36.89291809 -11.48101449 32.72906102 -11.47072411 28.56474686 C-11.47022845 27.04014028 -11.47655767 25.5155136 -11.49028015 23.9909687 C-11.50798778 21.90729187 -11.5009021 19.82508757 -11.48774719 17.7414093 C-11.49013555 16.57739247 -11.4925239 15.41337564 -11.49498463 14.21408558 C-10.76103965 9.44835782 -8.4639994 6.33090854 -4.9375 3.125 C-3 2 -3 2 0 2 C0 1.34 0 0.68 0 0 Z M0 16 C-1.17285914 18.59704523 -1.02436678 19.86514973 -0.5140667 22.68924522 C0.03075437 26.19806801 0.11407933 29.48433672 0.10006714 33.03457642 C0.09817373 34.06096271 0.09817373 34.06096271 0.09624207 35.10808408 C0.0908886 37.3880157 0.07836788 39.66785086 0.06591797 41.94775391 C0.06072176 43.58744668 0.05601424 45.22714106 0.05175781 46.86683655 C0.04183515 50.39118542 0.02899276 53.91550737 0.01403427 57.43983841 C-0.00905825 63.01142606 -0.02234045 68.58301011 -0.03366089 74.15463257 C-0.06707368 89.99571309 -0.10881522 105.83674032 -0.17138672 121.67773438 C-0.20588169 130.43153718 -0.22970767 139.18530102 -0.24159515 147.93916452 C-0.24970219 153.47941857 -0.27096844 159.01941787 -0.30180001 164.55958962 C-0.31778462 168.00250262 -0.32121988 171.44534195 -0.32102966 174.8882885 C-0.32345519 176.48628703 -0.33105008 178.0842872 -0.34415817 179.68223381 C-0.36129195 181.86152691 -0.35997826 184.04005638 -0.35403442 186.21939087 C-0.35809862 187.43942621 -0.36216282 188.65946156 -0.36635017 189.91646767 C0.02899552 193.24405239 0.62780214 194.6672594 3 197 C3.66 197 4.32 197 5 197 C5 197.66 5 198.32 5 199 C16.22 199 27.44 199 39 199 C39 198.34 39 197.68 39 197 C39.639375 196.896875 40.27875 196.79375 40.9375 196.6875 C41.618125 196.460625 42.29875 196.23375 43 196 C44.17359546 192.47921362 44.13186904 189.70202115 44.14044189 185.98451233 C44.14341302 185.2660661 44.14638414 184.54761988 44.1494453 183.80740255 C44.15813482 181.39380677 44.15964074 178.98026058 44.16113281 176.56665039 C44.16576072 174.83872878 44.17078535 173.11080819 44.17617798 171.38288879 C44.1893046 166.68460099 44.19574718 161.98632747 44.20018864 157.28802419 C44.20311829 154.35437721 44.20722284 151.42073416 44.21169281 148.48708916 C44.22536699 139.31300342 44.23503465 130.13892663 44.2388947 120.96483141 C44.24337865 110.36562033 44.2609425 99.76653801 44.2898953 89.16736609 C44.31148689 80.97962238 44.32159759 72.79191497 44.32293582 64.60414308 C44.32398545 59.71128069 44.32992695 54.81853935 44.34775543 49.92570686 C44.36419307 45.32514153 44.36641268 40.72478881 44.35761642 36.12420464 C44.35684379 34.43430386 44.3612184 32.74439186 44.37107468 31.05451965 C44.38372805 28.75024802 44.37795408 26.44673701 44.36749268 24.14247131 C44.36895924 22.85217042 44.3704258 21.56186953 44.3719368 20.23246861 C43.97915887 16.81887164 43.4477626 15.37375643 41 13 C40.34 13 39.68 13 39 13 C39 12.34 39 11.68 39 11 C34.24952648 10.87608124 29.50000039 10.78551439 24.74829102 10.7253418 C23.13321539 10.70025041 21.51825274 10.66616874 19.90356445 10.62280273 C17.57735294 10.56190714 15.25264641 10.53373876 12.92578125 10.51171875 C12.20787918 10.48591232 11.48997711 10.4601059 10.75032043 10.43351746 C5.4297811 10.43056399 3.26624969 11.89114695 0 16 Z M55 27 C54.97630313 41.46823005 54.95884502 55.93645742 54.94818783 70.40470314 C54.94310097 77.12739398 54.9360759 83.85007005 54.92456055 90.57275391 C54.83996322 128.14503944 54.83996322 128.14503944 55.44140625 165.7109375 C55.46093794 166.51358662 55.48046963 167.31623573 55.50059319 168.14320755 C55.55598045 170.33318044 55.61889159 172.52275433 55.68579102 174.71240234 C55.72205093 175.91488617 55.75831085 177.11737 55.79566956 178.35629272 C55.70567002 180.92250831 55.70567002 180.92250831 57 182 C59.64363835 182.11084318 62.26552206 182.16164522 64.91015625 182.17578125 C66.5566531 182.19900138 68.20313749 182.22311957 69.84960938 182.24804688 C72.44759178 182.28300608 75.0451228 182.31240959 77.64331055 182.32592773 C80.14948804 182.34152386 82.65433554 182.38182935 85.16015625 182.42578125 C85.92505875 182.42387283 86.68996124 182.42196442 87.4780426 182.41999817 C92.51378577 182.53268656 95.98869757 183.63992004 100.36546326 186.14518738 C101.98795185 187.15447423 101.98795185 187.15447423 104 187 C104.2475 187.61875 104.495 188.2375 104.75 188.875 C105.82143729 191.13746494 105.82143729 191.13746494 108 192 C110.51617591 193.25808796 110.80485792 194.5300397 112 197 C112.99 197.33 113.98 197.66 115 198 C115.309375 198.66 115.61875 199.32 115.9375 200 C116.82027141 202.20605562 116.82027141 202.20605562 119.125 202.75 C119.74375 202.8325 120.3625 202.915 121 203 C121 203.66 121 204.32 121 205 C129.91133189 210.08224397 137.76872762 212.98717067 147.89453125 214.4921875 C151 215 151 215 152 216 C154.13353174 216.10003289 156.27037542 216.13081048 158.40625 216.1328125 C160.35724609 216.13474609 160.35724609 216.13474609 162.34765625 216.13671875 C163.36883545 216.13357666 163.36883545 216.13357666 164.41064453 216.13037109 C166.49128515 216.1250224 168.57170989 216.1303168 170.65234375 216.13671875 C171.95300781 216.13542969 173.25367188 216.13414062 174.59375 216.1328125 C175.79708984 216.13168457 177.00042969 216.13055664 178.24023438 216.12939453 C180.90984482 216.31455977 180.90984482 216.31455977 182 215 C182.30521929 212.96319008 182.56774565 210.91995691 182.8125 208.875 C184.31514403 198.03841388 187.22213087 187.7470521 191 177.5 C191.23686523 176.85369629 191.47373047 176.20739258 191.71777344 175.54150391 C192.97508717 172.24809257 194.40767458 169.1894736 196.1875 166.15625 C198.1659957 163.31754727 198.1659957 163.31754727 198 161 C198.66 160.67 199.32 160.34 200 160 C201.23877744 158.24339642 202.41856377 156.44478999 203.5625 154.625 C204.18253906 153.64789063 204.80257812 152.67078125 205.44140625 151.6640625 C207.10347125 149.03310512 207.10347125 149.03310512 208 146 C204.83760418 142.80823908 201.66931241 139.6223919 198.5 136.4375 C197.613125 135.54224609 196.72625 134.64699219 195.8125 133.72460938 C187.42702208 124.37923356 187.42702208 124.37923356 177 118 C176.67 117.34 176.34 116.68 176 116 C173.03 117.65 170.06 119.3 167 121 C167 121.66 167 122.32 167 123 C166.38511719 123.13277344 165.77023438 123.26554687 165.13671875 123.40234375 C163.92435547 123.66724609 163.92435547 123.66724609 162.6875 123.9375 C161.48673828 124.19853516 161.48673828 124.19853516 160.26171875 124.46484375 C157.854599 124.99886159 157.854599 124.99886159 155 126 C155 126.66 155 127.32 155 128 C134.14569544 130.15355305 116.03888031 131.04796391 96.34375 123.2421875 C93.12580236 121.82587924 93.12580236 121.82587924 90 122 C90 121.34 90 120.68 90 120 C88.68 119.67 87.36 119.34 86 119 C86 116.69 86 114.38 86 112 C86.66 112 87.32 112 88 112 C88 111.34 88 110.68 88 110 C90.97 110 93.94 110 97 110 C97 110.66 97 111.32 97 112 C97.7734375 112.25394531 98.546875 112.50789063 99.34375 112.76953125 C108.86894459 115.91708936 108.86894459 115.91708936 113.3125 117.6875 C124.44462876 121.64978312 136.65368867 120.54666707 148 118 C148 117.34 148 116.68 148 116 C149.051875 115.87625 150.10375 115.7525 151.1875 115.625 C154.45958771 115.08859218 157.00536076 114.36119965 160 113 C160 112.34 160 111.68 160 111 C161.11375 110.814375 161.11375 110.814375 162.25 110.625 C164.80141485 110.04513299 166.7267573 109.26291261 169 108 C169 107.34 169 106.68 169 106 C170.72880982 105.94550162 172.45812712 105.90698312 174.1875 105.875 C175.63189453 105.84019531 175.63189453 105.84019531 177.10546875 105.8046875 C183.10526235 106.20953187 185.99707701 108.69685778 190 113 C192.37970005 115.43919256 194.66483503 117.74421621 197.375 119.8125 C199.66232698 121.71860581 201.39803315 123.55507877 203.3125 125.8125 C206.17640128 129.1598376 209.19119502 131.97374787 212.55859375 134.80078125 C214.59717609 136.63713622 216.50294794 138.51168709 218.41015625 140.48046875 C219.02109131 141.10872559 219.63202637 141.73698242 220.26147461 142.38427734 C221.48319809 143.64841622 222.69660846 144.9206543 223.90063477 146.20166016 C227.37058533 149.78067329 229.98288923 151.86390653 235 153 C235 153.66 235 154.32 235 155 C247.13673641 159.98764033 247.13673641 159.98764033 260 161 C260.33 160.67 260.66 160.34 261 160 C263.1423694 159.58582845 265.28908638 159.19408046 267.4375 158.8125 C276.96493254 156.82559901 283.83348962 152.41214086 291 146 C290.58071383 141.10832797 288.55713565 139.23375968 285 136 C283.32488379 134.34117986 281.66016502 132.67371586 280 131 C279.30975739 130.30490326 278.61951477 129.60980652 277.90835571 128.89364624 C276.24831064 127.22178078 274.58846885 125.54971346 272.92878723 123.87748718 C269.57985762 120.50542963 266.22728865 117.13701194 262.873456 113.76983166 C260.32892709 111.21480589 257.78632977 108.65791391 255.24780273 106.09692383 C252.78251363 103.60997145 250.31242942 101.12787761 247.83888817 98.64913368 C246.44064909 97.24539507 245.04748074 95.83661154 243.65437317 94.42778015 C242.80977036 93.58302628 241.96516754 92.7382724 241.0949707 91.86791992 C240.35060257 91.11911057 239.60623444 90.37030121 238.83930969 89.59880066 C237.15459963 87.78132042 237.15459963 87.78132042 235 88 C234.79375 87.46890625 234.5875 86.9378125 234.375 86.390625 C232.42038808 82.99226564 229.77876283 80.48944072 227 77.75 C226.18015625 76.91855469 226.18015625 76.91855469 225.34375 76.0703125 C222.67399232 73.00784225 222.67399232 73.00784225 219 72 C218.97287934 70.56260487 218.95354933 69.12506137 218.9375 67.6875 C218.92589844 66.88699219 218.91429687 66.08648437 218.90234375 65.26171875 C219 63 219 63 220 60 C221.98 60 223.96 60 226 60 C226.26167969 60.59941406 226.52335938 61.19882813 226.79296875 61.81640625 C228.07220188 64.13061764 229.26250442 65.29659445 231.3125 66.9375 C234.39041836 69.47375571 237.21378659 72.14046519 240 75 C240.825 75.825 241.65 76.65 242.5 77.5 C248.33333333 83.33333333 254.16666667 89.16666667 260 95 C260.86625 95.845625 261.7325 96.69125 262.625 97.5625 C265 100 265 100 266.4375 102.3125 C267.97991811 104.36103682 267.97991811 104.36103682 271.1875 104.25 C272.115625 104.1675 273.04375 104.085 274 104 C274 103.34 274 102.68 274 102 C274.83402344 101.93941406 275.66804687 101.87882812 276.52734375 101.81640625 C277.65269531 101.73261719 278.77804687 101.64882812 279.9375 101.5625 C281.03964844 101.48128906 282.14179688 101.40007812 283.27734375 101.31640625 C285.17857485 101.15481158 287.08069033 100.98952553 288.97290039 100.74389648 C295.8393131 99.85308871 302.64687772 99.88774732 309.5625 99.9375 C310.76197266 99.94201172 311.96144531 99.94652344 313.19726562 99.95117188 C316.13156359 99.96286231 319.06575449 99.97924862 322 100 C320.24407595 96.20752477 318.03540142 93.89421996 315 91 C285 61 285 61 282.6875 58.5625 C274.78138868 50.76508849 274.78138868 50.76508849 265 47 C265 46.34 265 45.68 265 45 C255.07116927 38.69931124 255.07116927 38.69931124 244 36 C244 35.34 244 34.68 244 34 C242.46279297 33.60167969 242.46279297 33.60167969 240.89453125 33.1953125 C239.53381011 32.83870972 238.17313547 32.48192949 236.8125 32.125 C236.13896484 31.95097656 235.46542969 31.77695312 234.77148438 31.59765625 C232.00935117 30.87006994 229.33521226 30.1462369 226.71351624 29.0025177 C210.99712237 23.19604312 190.96948072 25.72055629 174.38819814 25.76428056 C170.29773584 25.77317204 166.20727603 25.77130163 162.11680603 25.7709198 C155.26933858 25.77185016 148.42191602 25.78045687 141.57446289 25.79418945 C133.66024092 25.81000277 125.74606766 25.81518398 117.83183104 25.8144539 C109.37648244 25.81377934 100.92115254 25.82070411 92.46580958 25.8299005 C90.03587635 25.83203062 87.60594613 25.83274145 85.17601204 25.83313942 C81.36980846 25.83414208 77.56364588 25.84023232 73.75745583 25.85030556 C72.36061606 25.85322964 70.96377157 25.85445611 69.56692886 25.85387802 C67.66404535 25.85338837 65.76116364 25.85965352 63.85829163 25.86628723 C62.26040346 25.868801 62.26040346 25.868801 60.63023472 25.87136555 C57.88995657 25.88695377 57.88995657 25.88695377 55 27 Z M281 112 C280.67 112.99 280.34 113.98 280 115 C281.28548409 116.33929505 282.57858155 117.67128643 283.875 119 C284.95394531 120.11375 284.95394531 120.11375 286.0546875 121.25 C287.81170957 123.22293325 287.81170957 123.22293325 290 123 C290 123.66 290 124.32 290 125 C290.5350415 124.83918945 291.07008301 124.67837891 291.62133789 124.51269531 C296.77830535 123.40116584 302.18411503 123.77178698 307.4375 123.75 C308.64599609 123.729375 309.85449219 123.70875 311.09960938 123.6875 C319.47857905 123.65159654 326.92925882 124.806982 335 127 C336.9373585 127.47973846 338.87483739 127.95899132 340.8125 128.4375 C346.4955801 130.0248147 351.30792795 132.48028191 356.421875 135.3671875 C357.23140625 135.82351562 358.0409375 136.27984375 358.875 136.75 C359.61492187 137.17796875 360.35484375 137.6059375 361.1171875 138.046875 C362.94567911 139.15055018 362.94567911 139.15055018 365 139 C365 139.66 365 140.32 365 141 C366.91887775 142.4856249 366.91887775 142.4856249 369.3125 143.9375 C371.65149527 145.41020073 373.72518151 146.72131989 375.66796875 148.69140625 C376.92657203 150.23360103 376.92657203 150.23360103 379 150 C379.4021875 150.9590625 379.4021875 150.9590625 379.8125 151.9375 C380.88667752 154.33131686 380.88667752 154.33131686 384 155 C384.71402992 156.30858072 385.37393625 157.64712661 386 159 C387.07421899 160.43950757 388.18099948 161.85506809 389.3125 163.25 C396.73053719 172.69532686 401.28683982 182.57228329 405 194 C405.66 194 406.32 194 407 194 C407.06058594 194.75023437 407.12117187 195.50046875 407.18359375 196.2734375 C407.26738281 197.29695313 407.35117187 198.32046875 407.4375 199.375 C407.52773438 200.48230469 407.61796875 201.58960938 407.7109375 202.73046875 C407.94634298 205.39309559 408.241765 208.03456339 408.5625 210.6875 C410.34384081 229.08495422 408.98717573 248.16429333 401.98828125 265.3828125 C400.8233676 268.00150084 400.8233676 268.00150084 401 271 C400.34 271 399.68 271 399 271 C398.505 272.093125 398.01 273.18625 397.5 274.3125 C395.09391003 279.18570395 391.8980523 283.37080009 388.609375 287.6796875 C386.81002364 289.80326193 386.81002364 289.80326193 387 292 C386.0409375 292.4021875 386.0409375 292.4021875 385.0625 292.8125 C382.66868314 293.88667752 382.66868314 293.88667752 382 297 C380.66666667 297.66666667 379.33333333 298.33333333 378 299 C377.67 299.99 377.34 300.98 377 302 C375.33333333 302.66666667 373.66666667 303.33333333 372 304 C371.67 304.99 371.34 305.98 371 307 C368.5625 308.125 368.5625 308.125 366 309 C365.34 309.33 364.68 309.66 364 310 C364 310.66 364 311.32 364 312 C362.4221875 312.4021875 362.4221875 312.4021875 360.8125 312.8125 C357.35455603 313.88956452 355.05316737 315.13831258 352 317 C349.35892793 318.08808213 346.69253055 319.04164167 344 320 C344 320.66 344 321.32 344 322 C342.783125 322.103125 341.56625 322.20625 340.3125 322.3125 C336.50284241 322.71521843 333.00315598 323.51874767 329.3125 324.53125 C320.76808918 326.53946135 312.40501954 326.32979397 303.6875 326.1875 C302.06055941 326.17241019 300.43360511 326.15872947 298.80664062 326.14648438 C294.87074729 326.11385481 290.93553062 326.06231656 287 326 C287 325.34 287 324.68 287 324 C284.91798472 323.49453964 282.83432933 322.99583165 280.75 322.5 C279.58984375 322.2215625 278.4296875 321.943125 277.234375 321.65625 C273.89669288 320.86743548 273.89669288 320.86743548 270 321 C270 320.34 270 319.68 270 319 C269.21496094 318.68546875 268.42992187 318.3709375 267.62109375 318.046875 C257.98181583 314.12019982 257.98181583 314.12019982 253.875 311.6875 C251.26813788 309.83126648 251.26813788 309.83126648 249 310 C248.67 309.01 248.34 308.02 248 307 C245.49552484 305.78130071 245.49552484 305.78130071 243 305 C243 304.34 243 303.68 243 303 C240.36315253 300.60179695 240.36315253 300.60179695 237 300 C236.731875 299.360625 236.46375 298.72125 236.1875 298.0625 C235.11332248 295.66868314 235.11332248 295.66868314 232 295 C231.28359673 293.6927171 230.62928493 292.35137807 230 291 C228.56252082 288.87708191 227.10765687 286.77809436 225.625 284.6875 C218.11761043 273.93017753 212.3880699 263.02583584 210 250 C209.34 250 208.68 250 208 250 C207.00505244 231.75470674 207.02200748 214.19414175 209 196 C209.66 196 210.32 196 211 196 C211.21914062 195.18917969 211.43828125 194.37835938 211.6640625 193.54296875 C214.63349833 183.17408509 219.19444743 174.51720373 225.1171875 165.55859375 C226.1642825 164.0085029 226.1642825 164.0085029 226 162 C225.4225 161.7525 224.845 161.505 224.25 161.25 C221.6997003 159.83316683 219.98214299 158.12372463 218 156 C208.69876358 159.92364791 204.82372479 173.31056216 201 182 C200.58363281 182.93585938 200.16726562 183.87171875 199.73828125 184.8359375 C196.4042555 192.69382718 194.62830875 200.45110134 195 209 C194.34 209 193.68 209 193 209 C191.84786795 219.63664767 191.23108263 230.38649578 193 241 C193.33 241.33 193.66 241.66 194 242 C194.29527356 243.6696764 194.58548315 245.34041794 194.84912109 247.01538086 C196.8842317 259.70325294 201.35024113 270.99073154 208 282 C208.51949219 282.91265625 209.03898437 283.8253125 209.57421875 284.765625 C211.6727505 288.45605487 211.6727505 288.45605487 214 292 C214.66 292 215.32 292 216 292 C216.20625 292.66 216.4125 293.32 216.625 294 C219.18538044 299.5862846 222.80850373 304.61606923 228 308 C228.66 308 229.32 308 230 308 C230.33 308.99 230.66 309.98 231 311 C233.7782409 313.60666308 236.91558722 315.77014314 240 318 C241.35544922 318.98419922 241.35544922 318.98419922 242.73828125 319.98828125 C262.40497728 333.69375954 284.3561028 340.42842363 308.3125 340.3125 C309.48731934 340.30903564 310.66213867 340.30557129 311.87255859 340.30200195 C320.90937915 340.1893684 329.26097765 339.33617429 338 337 C338.8146875 336.7834375 339.629375 336.566875 340.46875 336.34375 C349.23702786 333.67514369 358.24229346 329.85360842 366 325 C366.928125 324.484375 367.85625 323.96875 368.8125 323.4375 C369.534375 322.963125 370.25625 322.48875 371 322 C371 321.34 371 320.68 371 320 C371.969375 319.731875 372.93875 319.46375 373.9375 319.1875 C375.4534375 318.5996875 375.4534375 318.5996875 377 318 C377.33 317.01 377.66 316.02 378 315 C379.66666667 314.33333333 381.33333333 313.66666667 383 313 C383.33 312.01 383.66 311.02 384 310 C385.11375 309.566875 385.11375 309.566875 386.25 309.125 C391.92847803 306.80198626 394.7357443 301.94301577 398 297 C399.34416562 295.32525706 400.69926915 293.65926091 402.0625 292 C407.28296062 285.7258425 407.28296062 285.7258425 409 278 C409.66 278 410.32 278 411 278 C416.66182571 264.87032344 416.66182571 264.87032344 420.53125 251.16015625 C420.95427118 249.21073363 421.50142396 247.28925943 422.0625 245.375 C423.89047864 238.79427688 424.15747456 232.40135734 424.125 225.625 C424.12886719 224.82578125 424.13273438 224.0265625 424.13671875 223.203125 C424.12786388 217.73081602 423.68546657 212.42933046 423 207 C422.34 207 421.68 207 421 207 C421.061875 206.071875 421.12375 205.14375 421.1875 204.1875 C421.15210601 186.63207941 409.43912819 167.30437835 399 154 C398.33871094 153.1234375 397.67742187 152.246875 396.99609375 151.34375 C386.38468599 137.5551497 370.19406599 125.4776264 354 119 C352.2984375 118.195625 352.2984375 118.195625 350.5625 117.375 C346.56532885 115.83223219 343.24936021 115.3727509 339 115 C339 114.34 339 113.68 339 113 C328.57962321 110.49910957 318.46653655 109.69889148 307.75 109.6875 C306.59145508 109.68234375 305.43291016 109.6771875 304.23925781 109.671875 C296.33926648 109.7346267 288.77111273 110.59576604 281 112 Z M301 135 C301 140.94 301 146.88 301 153 C299.515 153.495 299.515 153.495 298 154 C295.29151077 156.37505218 295.29151077 156.37505218 293 159 C293 159.66 293 160.32 293 161 C292.05125 161.309375 291.1025 161.61875 290.125 161.9375 C287.13919592 162.87394742 287.13919592 162.87394742 285 164 C285 164.66 285 165.32 285 166 C284.33613281 166.12117188 283.67226563 166.24234375 282.98828125 166.3671875 C281.66376953 166.61855469 281.66376953 166.61855469 280.3125 166.875 C279.00732422 167.11863281 279.00732422 167.11863281 277.67578125 167.3671875 C275.00974493 167.91093167 275.00974493 167.91093167 272.6940918 169.02294922 C269.69802942 170.10951394 267.39829876 170.25837521 264.21875 170.265625 C262.58486328 170.26949219 262.58486328 170.26949219 260.91796875 170.2734375 C259.22607422 170.26183594 259.22607422 170.26183594 257.5 170.25 C256.37207031 170.25773437 255.24414062 170.26546875 254.08203125 170.2734375 C252.99277344 170.27085937 251.90351563 170.26828125 250.78125 170.265625 C249.79189453 170.26336914 248.80253906 170.26111328 247.78320312 170.25878906 C244.84135203 169.98524852 242.70477825 169.14345579 240 168 C239.01 168 238.02 168 237 168 C235.35018628 170.18181886 233.91775158 172.29951309 232.5 174.625 C232.10941406 175.24246094 231.71882812 175.85992187 231.31640625 176.49609375 C219.19980891 195.87449017 213.23571019 219.59154334 218.2421875 242.26171875 C222.58303271 257.94693777 228.60939132 272.09903101 239.55859375 284.36328125 C240.98711403 285.98536796 242.2995136 287.66848692 243.625 289.375 C246.02335773 292.02581644 246.68355588 292.40777784 250 293 C250.33 293.99 250.66 294.98 251 296 C254.75586243 299.52770257 258.70459011 302.66903688 264 303 C264 303.66 264 304.32 264 305 C265.60149886 305.67305018 267.20631029 306.33822227 268.8125 307 C270.15248047 307.556875 270.15248047 307.556875 271.51953125 308.125 C274.0331433 309.16633237 274.0331433 309.16633237 277 309 C277 309.66 277 310.32 277 311 C284.47635985 313.20194688 284.47635985 313.20194688 292.125 314.625 C295 315 295 315 296 316 C312.78271614 317.53184807 330.96736667 316.17333735 346 308 C347.12921875 307.40316406 348.2584375 306.80632812 349.421875 306.19140625 C352.62920044 304.48733993 355.81794798 302.75086634 359 301 C359 300.34 359 299.68 359 299 C359.804375 298.731875 360.60875 298.46375 361.4375 298.1875 C362.283125 297.795625 363.12875 297.40375 364 297 C364.33 296.01 364.66 295.02 365 294 C366.66666667 293.33333333 368.33333333 292.66666667 370 292 C370.33 291.01 370.66 290.02 371 289 C371.58265625 288.72414063 372.1653125 288.44828125 372.765625 288.1640625 C384.56656363 282.01602105 392.28710607 261.4785083 396.2578125 249.53125 C400.64658125 234.56323868 400.58759441 217.18321204 397 202 C396.34 202 395.68 202 395 202 C394.91105469 200.84371094 394.82210937 199.68742187 394.73046875 198.49609375 C394.14223025 193.83022296 392.4964742 190.18694609 390.3125 186.0625 C389.95309326 185.36592285 389.59368652 184.6693457 389.22338867 183.95166016 C386.48572186 178.72703085 383.5385321 173.728211 380 169 C379.38898438 168.17822266 379.38898438 168.17822266 378.765625 167.33984375 C376.06258881 163.90839196 372.98032226 161.15066689 369.6328125 158.3828125 C368 157 368 157 365.8125 154.75 C363.95637028 152.95787475 362.30201754 152.11387946 360 151 C359.60039062 150.5565625 359.20078125 150.113125 358.7890625 149.65625 C346.59849376 138.37065798 324.70471287 133.55680132 308.83984375 133.796875 C305.61763072 133.96757087 305.61763072 133.96757087 301 135 Z M451 312 C448.64823661 312.49229852 446.30057749 312.94447867 443.9375 313.375 C438.33783154 314.44197895 433.27710713 315.85338015 428 318 C426.33806101 318.51549642 424.67098597 319.0146304 423 319.5 C419.22032045 320.6055418 415.56536563 321.88420169 411.89453125 323.3046875 C408.97334208 324.37679404 406.00256609 325.18680502 403 326 C403 326.66 403 327.32 403 328 C401.824375 328.12375 400.64875 328.2475 399.4375 328.375 C395.45879574 328.86435935 391.82233441 329.8055205 388 331 C388 331.66 388 332.32 388 333 C386.906875 333.0825 385.81375 333.165 384.6875 333.25 C380.11972174 333.81392324 376.11284267 335.30483372 371.83203125 336.9453125 C367.61860257 338.51445146 363.32053516 339.76288364 359 341 C359 341.66 359 342.32 359 343 C357.205625 343.0928125 357.205625 343.0928125 355.375 343.1875 C348.55792213 343.93780731 342.36705839 346.57140166 336 349 C329.82175279 351.29869511 323.65857506 353.43593313 317.33203125 355.2890625 C313.8191674 356.35998582 310.41695697 357.65900557 307 359 C306.17242187 359.309375 305.34484375 359.61875 304.4921875 359.9375 C297.73233318 362.52036971 291.82939879 365.42761678 287 371 C287 371.66 287 372.32 287 373 C286.01 373.495 286.01 373.495 285 374 C280.86006442 379.57991317 278.57935461 387.07042068 279 394 C280.80706958 403.12139884 285.87649399 412.24839803 293.5625 417.5625 C299.35933237 421.14696332 304.64653101 422.27780335 311.4375 422.25 C312.69433594 422.25515625 313.95117188 422.2603125 315.24609375 422.265625 C319.17938665 421.98730667 322.27032288 421.21274662 326 420 C326 419.34 326 418.68 326 418 C327.175625 417.87625 328.35125 417.7525 329.5625 417.625 C333.54120426 417.13564065 337.17766559 416.1944795 341 415 C341 414.34 341 413.68 341 413 C342.093125 412.9175 343.18625 412.835 344.3125 412.75 C348.86413333 412.18905927 352.83758943 410.69100209 357.1015625 409.0546875 C361.65131823 407.39911601 366.31216051 406.19689519 371 405 C371 404.34 371 403.68 371 403 C372.175625 402.87625 373.35125 402.7525 374.5625 402.625 C378.54120426 402.13564065 382.17766559 401.1944795 386 400 C386 399.34 386 398.68 386 398 C387.7634375 397.814375 387.7634375 397.814375 389.5625 397.625 C393.54120426 397.13564065 397.17766559 396.1944795 401 395 C401 394.34 401 393.68 401 393 C402.051875 392.87625 403.10375 392.7525 404.1875 392.625 C410.14462125 391.88438493 416.07025197 390.93104276 422 390 C422.25 396.625 422.25 396.625 420 400 C417.28515625 400.87890625 417.28515625 400.87890625 414.0625 401.5625 C410.37052327 402.35652173 408.17242524 402.88504984 405 405 C403.11842662 405.53241558 401.21958705 406.00529205 399.3125 406.4375 C394.33510736 407.624878 389.76098096 409.14402437 385 411 C382.67766145 411.7193477 380.347201 412.36429973 378 413 C378 413.66 378 414.32 378 415 C376.824375 415.12375 375.64875 415.2475 374.4375 415.375 C370.45879574 415.86435935 366.82233441 416.8055205 363 418 C363 418.66 363 419.32 363 420 C361.824375 420.12375 360.64875 420.2475 359.4375 420.375 C355.45879574 420.86435935 351.82233441 421.8055205 348 423 C348 423.66 348 424.32 348 425 C346.824375 425.12375 345.64875 425.2475 344.4375 425.375 C340.45879574 425.86435935 336.82233441 426.8055205 333 428 C333 428.66 333 429.32 333 430 C331.07942708 430.22786458 329.15885417 430.45572917 327.23828125 430.68359375 C324.98870582 430.96736955 324.98870582 430.96736955 322.76953125 431.5234375 C318.96132524 432.17872824 315.23268013 432.19071809 311.375 432.1875 C310.5804541 432.18814453 309.7859082 432.18878906 308.96728516 432.18945312 C302.82047385 432.13453745 296.98125853 431.47555276 291 430 C291 429.34 291 428.68 291 428 C289.865625 427.34 288.73125 426.68 287.5625 426 C280.92231812 422.01353201 275.34441359 415.9651195 271.8125 409.0625 C269.64801674 405.40526967 267.84196065 404.63487687 264 403 C263.56945312 402.55527344 263.13890625 402.11054688 262.6953125 401.65234375 C260.36489687 399.38099396 257.74882984 397.94190988 254.9375 396.3125 C253.87402344 395.68988281 252.81054688 395.06726563 251.71484375 394.42578125 C249.21596729 392.84501376 249.21596729 392.84501376 247 393 C247 392.34 247 391.68 247 391 C244.94178952 389.54557092 242.90716344 388.22856463 240.75 386.9375 C240.16347656 386.57333984 239.57695312 386.20917969 238.97265625 385.83398438 C236.04545178 384.05463874 233.40784065 382.54829119 230 382 C230 381.34 230 380.68 230 380 C226.19572508 377.7986134 226.19572508 377.7986134 222 377 C222 376.34 222 375.68 222 375 C219.48738092 373.28712191 216.97827346 371.68878774 214.375 370.125 C212.94480584 369.25343502 211.51511078 368.38105048 210.0859375 367.5078125 C209.39338867 367.08790039 208.70083984 366.66798828 207.98730469 366.23535156 C206.15506132 365.09638947 204.37695067 363.90465138 202.6015625 362.6796875 C200.23607762 360.81919528 200.23607762 360.81919528 198 361 C198 360.34 198 359.68 198 359 C197.36191406 358.81824219 196.72382813 358.63648438 196.06640625 358.44921875 C195.24011719 358.19785156 194.41382813 357.94648438 193.5625 357.6875 C192.73878906 357.44386719 191.91507812 357.20023437 191.06640625 356.94921875 C190.38449219 356.63597656 189.70257813 356.32273437 189 356 C188.67 355.01 188.34 354.02 188 353 C184.99152582 351.77479736 184.99152582 351.77479736 182 351 C182 350.34 182 349.68 182 349 C178.19572508 346.7986134 178.19572508 346.7986134 174 346 C174 345.34 174 344.68 174 344 C172.88625 343.34 171.7725 342.68 170.625 342 C169.99851563 341.62875 169.37203125 341.2575 168.7265625 340.875 C167.02527333 339.84931652 167.02527333 339.84931652 165 340 C165 339.34 165 338.68 165 338 C157.40419989 334.35401594 148.75671679 333.4075219 140.54296875 335.6796875 C138.46356809 336.52565738 138.46356809 336.52565738 136 338 C136 338.66 136 339.32 136 340 C135.38125 340.144375 134.7625 340.28875 134.125 340.4375 C130.48870972 341.40004743 130.10975562 341.8158938 128.0625 345.25 C127.71703125 345.88035156 127.3715625 346.51070313 127.015625 347.16015625 C126.16620287 348.6989171 125.24715763 350.19897119 124.3125 351.6875 C121.57797206 356.50547779 121.50113579 361.57716128 122 367 C125.28844459 377.23071651 130.95148278 383.61539057 140 389 C141.65041308 390.11827055 143.29639555 391.24311284 144.9375 392.375 C147.72595555 394.45575612 147.72595555 394.45575612 151 395 C151.33 395.99 151.66 396.98 152 398 C154.17968177 399.61501163 154.17968177 399.61501163 156.8125 401.0625 C157.68519531 401.56910156 158.55789062 402.07570313 159.45703125 402.59765625 C161.03084985 403.46555314 162.62239031 404.30304868 164.23828125 405.08984375 C166 406 166 406 167.375 407.5 C169.6393766 409.59019379 172.07651684 410.1554382 175 411 C175 411.66 175 412.32 175 413 C178.22114157 415.31592022 178.22114157 415.31592022 182 416 C182 416.66 182 417.32 182 418 C183.93009324 419.3245153 185.92233397 420.5589053 187.9375 421.75 C189.1311163 422.46202177 190.32382049 423.17557474 191.515625 423.890625 C192.10666016 424.24447266 192.69769531 424.59832031 193.30664062 424.96289062 C196.3819527 426.84638626 199.33616633 428.90611974 202.29296875 430.96875 C203.95291952 432.17236192 203.95291952 432.17236192 206 432 C206 432.66 206 433.32 206 434 C209.22114157 436.31592022 209.22114157 436.31592022 213 437 C213 437.66 213 438.32 213 439 C214.93009324 440.3245153 216.92233397 441.5589053 218.9375 442.75 C220.1311163 443.46202177 221.32382049 444.17557474 222.515625 444.890625 C223.10666016 445.24447266 223.69769531 445.59832031 224.30664062 445.96289062 C227.3819527 447.84638626 230.33616633 449.90611974 233.29296875 451.96875 C234.95291952 453.17236192 234.95291952 453.17236192 237 453 C237 453.66 237 454.32 237 455 C239.17222846 456.61806614 239.17222846 456.61806614 241.9375 458.25 C245.53474738 460.47467411 249.11233311 462.70621549 252.625 465.0625 C253.34042969 465.54074219 254.05585938 466.01898438 254.79296875 466.51171875 C256.36258239 467.57016618 257.9271786 468.63607072 259.48828125 469.70703125 C260.29652344 470.25746094 261.10476563 470.80789063 261.9375 471.375 C262.66839844 471.87773437 263.39929688 472.38046875 264.15234375 472.8984375 C265.92779223 474.17069677 265.92779223 474.17069677 268 474 C268 474.66 268 475.32 268 476 C270.17222846 477.61806614 270.17222846 477.61806614 272.9375 479.25 C276.50087727 481.44529493 280.00370878 483.67020796 283.4375 486.0625 C293.02927557 492.58850296 293.02927557 492.58850296 304 495 C304 495.66 304 496.32 304 497 C317.55670046 501.23646889 333.54226421 501.41541283 346.73828125 495.91015625 C349.80325595 494.67675538 352.92576305 493.66191097 356.0625 492.625 C357.36589402 492.19403643 358.66927929 491.76304642 359.97265625 491.33203125 C360.63410645 491.11369629 361.29555664 490.89536133 361.97705078 490.67041016 C364.0061043 489.99797702 366.0326775 489.31854099 368.05859375 488.63671875 C368.71915771 488.41483887 369.37972168 488.19295898 370.06030273 487.96435547 C371.89457025 487.34793077 373.72854416 486.73063261 375.5625 486.11328125 C379.02450409 484.99206402 382.49564908 483.97889394 386 483 C386 482.34 386 481.68 386 481 C387.7634375 480.814375 387.7634375 480.814375 389.5625 480.625 C393.54120426 480.13564065 397.17766559 479.1944795 401 478 C401 477.34 401 476.68 401 476 C402.7634375 475.814375 402.7634375 475.814375 404.5625 475.625 C408.54120426 475.13564065 412.17766559 474.1944795 416 473 C416 472.34 416 471.68 416 471 C417.7634375 470.814375 417.7634375 470.814375 419.5625 470.625 C423.54120426 470.13564065 427.17766559 469.1944795 431 468 C431 467.34 431 466.68 431 466 C432.7634375 465.814375 432.7634375 465.814375 434.5625 465.625 C438.54120426 465.13564065 442.17766559 464.1944795 446 463 C446 462.34 446 461.68 446 461 C446.94875 460.87625 447.8975 460.7525 448.875 460.625 C457.01885216 460.04579326 457.01885216 460.04579326 464 457 C467.20038909 456.74711401 470.41581342 456.81476318 473.625 456.8125 C474.51574219 456.80025391 475.40648437 456.78800781 476.32421875 456.77539062 C481.59294647 456.76375131 485.9606822 457.28725027 491 459 C491.92425781 459.2578125 492.84851563 459.515625 493.80078125 459.78125 C495.04408203 460.13703125 495.04408203 460.13703125 496.3125 460.5 C497.15425781 460.7371875 497.99601562 460.974375 498.86328125 461.21875 C501 462 501 462 503 464 C506.34730219 463.67606753 507.81646341 462.45436283 510 460 C510.79506755 458.69303964 511.54202732 457.35611668 512.25 456 C516.16565595 448.76658765 520.62293524 441.89759144 525.375 435.1875 C530.23691299 428.3178774 534.70443455 421.19048245 539.21435547 414.08740234 C540.0221541 412.81569372 540.83105998 411.5446877 541.64111328 410.27441406 C542.39857334 409.0866005 543.15362481 407.89724605 543.90576172 406.70605469 C546.08404294 403.29243608 548.46290103 400.15134399 551 397 C551.96139753 395.30153103 552.92167859 393.60229304 553.859375 391.890625 C555.13812478 389.77105344 556.5954072 387.88290443 558.125 385.9375 C560.57311176 382.76608249 562.01670233 379.93319068 563 376 C563.66 376 564.32 376 565 376 C566.26220902 374.38073829 566.26220902 374.38073829 567.4375 372.3125 C567.87320312 371.58417969 568.30890625 370.85585938 568.7578125 370.10546875 C569.37269531 369.06326172 569.37269531 369.06326172 570 368 C570.598125 367.05125 571.19625 366.1025 571.8125 365.125 C573.16260712 363.1147343 573.16260712 363.1147343 573 361 C573.66 361 574.32 361 575 361 C575 360.34 575 359.68 575 359 C571.19572508 356.7986134 571.19572508 356.7986134 567 356 C567 355.34 567 354.68 567 354 C566.14728516 353.52820313 566.14728516 353.52820313 565.27734375 353.046875 C564.11912109 352.40492188 564.11912109 352.40492188 562.9375 351.75 C562.12023437 351.29753906 561.30296875 350.84507812 560.4609375 350.37890625 C558.31134414 349.17445156 556.18583904 347.93731348 554.0625 346.6875 C551.29082894 344.83913175 551.29082894 344.83913175 549 345 C549 344.34 549 343.68 549 343 C545.19572508 340.7986134 545.19572508 340.7986134 541 340 C541 339.34 541 338.68 541 338 C540.50113281 337.731875 540.00226563 337.46375 539.48828125 337.1875 C534.78908689 334.62276915 530.22212838 331.90893541 525.6875 329.0625 C519.62564402 325.31093179 513.46741235 321.99599962 507 319 C506.20464844 318.63132812 505.40929687 318.26265625 504.58984375 317.8828125 C494.39386974 313.49122436 460.45421664 302.54578336 451 312 Z M594 353 C593.67 353.99 593.34 354.98 593 356 C592.01 356.33 591.02 356.66 590 357 C588.55735054 358.97971738 588.55735054 358.97971738 587.25 361.4375 C584.59100566 366.06097523 581.68667734 370.4050033 578.59765625 374.75 C576.67214826 377.46171786 574.83014899 380.22322222 573 383 C572.39414062 383.90363281 571.78828125 384.80726563 571.1640625 385.73828125 C568.92426549 389.11414858 566.73967365 392.52116296 564.5625 395.9375 C562.11952643 399.76999956 559.6610849 403.5456779 556.9375 407.1875 C554.71634738 409.8425423 554.71634738 409.8425423 555 413 C554.34 413 553.68 413 553 413 C550.68407978 416.22114157 550.68407978 416.22114157 550 420 C549.01 420.495 549.01 420.495 548 421 C546.95046351 422.38036865 545.95745674 423.80424032 545 425.25 C544.484375 426.01828125 543.96875 426.7865625 543.4375 427.578125 C541.91354435 429.97644295 541.91354435 429.97644295 541 432.734375 C540.67 433.48203125 540.34 434.2296875 540 435 C538.515 435.495 538.515 435.495 537 436 C535.88514587 437.58330621 535.88514587 437.58330621 534.9375 439.625 C532.19644315 444.83969352 528.96938573 449.64655004 525.65405273 454.50634766 C520.45654961 461.29712601 520.45654961 461.29712601 518 469 C517.34 469 516.68 469 516 469 C513.68407978 472.22114157 513.68407978 472.22114157 513 476 C512.01 476.495 512.01 476.495 511 477 C507.8968275 481.49531041 507.8968275 481.49531041 506.875 486.6875 C508.50204623 490.03198393 510.79705858 491.23511391 514 493 C514.66 493 515.32 493 516 493 C516 493.66 516 494.32 516 495 C519.80427492 497.2013866 519.80427492 497.2013866 524 498 C524 498.66 524 499.32 524 500 C526.90548882 502.04169485 528.40142046 503 532 503 C532 503.66 532 504.32 532 505 C535.85663417 504.44905226 537.41223782 502.82700812 540 500 C541.16894549 498.38508242 542.28964016 496.73473993 543.375 495.0625 C544.06207031 494.01449219 544.74914062 492.96648437 545.45703125 491.88671875 C546.04605225 490.98445557 546.04605225 490.98445557 546.64697266 490.06396484 C549.42953048 485.81933406 552.24891886 481.59909831 555.0625 477.375 C555.63983887 476.50496338 556.21717773 475.63492676 556.81201172 474.73852539 C560.268551 469.54294234 563.79527891 464.40767117 567.41357422 459.32324219 C569.07126379 456.8956377 570.57867698 454.4120234 572.0625 451.875 C574.35074895 447.9758238 576.88224912 444.42359199 579.640625 440.84765625 C581.2256572 438.69328778 582.51392494 436.41505705 583.7890625 434.06640625 C586.1120303 430.1023741 588.78856206 426.3586059 591.390625 422.57421875 C593.17670486 420.22334136 593.17670486 420.22334136 593 418 C593.66 418 594.32 418 595 418 C596.15635313 416.21182505 597.22446886 414.36628189 598.25 412.5 C600.7998221 407.98877629 603.48265339 403.86916387 606.66796875 399.79296875 C608.32221846 397.56628072 609.60732836 395.21962417 610.93359375 392.7890625 C612.60777487 389.98036304 614.62402897 387.44600635 616.61328125 384.85546875 C618.25188983 382.66296431 619.64273605 380.37521191 621 378 C621.99 376.515 621.99 376.515 623 375 C623.5 372.5 623.5 372.5 623 370 C620.95575462 368.02389614 619.8823175 367 617 367 C617 366.34 617 365.68 617 365 C614.94178952 363.54557092 612.90716344 362.22856463 610.75 360.9375 C610.16347656 360.57333984 609.57695313 360.20917969 608.97265625 359.83398438 C606.04545178 358.05463874 603.40784065 356.54829119 600 356 C600 355.34 600 354.68 600 354 C598.02 353.67 596.04 353.34 594 353 Z " fill="#F9A511" transform="translate(37,28)"/>
<path d="M0 0 C6.53579342 0.91591569 12.61415175 3.41751591 17.1328125 8.30859375 C22.29315285 15.40136281 24.28779735 21.67383292 24.1875 30.5 C24.18105469 31.7478125 24.17460937 32.995625 24.16796875 34.28125 C24.00272196 37.939737 23.58154039 41.38979723 23 45 C22.34 45 21.68 45 21 45 C20.773125 45.886875 20.54625 46.77375 20.3125 47.6875 C18.80889801 51.48230501 17.08494714 53.36650854 14 56 C13.01 56.33 12.02 56.66 11 57 C11 57.66 11 58.32 11 59 C4.5 62 4.5 62 0 62 C0 62.66 0 63.32 0 64 C-0.66 64 -1.32 64 -2 64 C-1.96519531 64.97582031 -1.93039062 65.95164062 -1.89453125 66.95703125 C-1.86746094 68.22933594 -1.84039062 69.50164062 -1.8125 70.8125 C-1.76029297 72.70935547 -1.76029297 72.70935547 -1.70703125 74.64453125 C-2 78 -2 78 -3.3203125 79.92578125 C-5.93711272 81.59931627 -7.98327151 81.38511428 -11 81 C-13.49118953 77.2632157 -13.2065226 75.25548181 -13.125 70.8125 C-13.10695313 69.54019531 -13.08890625 68.26789063 -13.0703125 66.95703125 C-13.04710937 65.98121094 -13.02390625 65.00539063 -13 64 C-13.99 64 -14.98 64 -16 64 C-16 63.34 -16 62.68 -16 62 C-17.03125 61.9175 -18.0625 61.835 -19.125 61.75 C-25.59044854 60.49862286 -29.66483781 56.80382838 -34 52 C-37 47.55172414 -37 47.55172414 -37 45 C-35.35 45 -33.7 45 -32 45 C-31.67 43.35 -31.34 41.7 -31 40 C-28.6875 40.1875 -28.6875 40.1875 -26 41 C-24.97388051 42.65071396 -23.97691857 44.31970006 -23 46 C-16.4481288 51.01845454 -11.04511842 51.50838031 -3 51 C1.01677368 50.05058077 3.29816961 49.08780615 6 46 C6.99 45.34 7.98 44.68 9 44 C11.5089423 39.18283077 12.60109385 34.57995775 13.47265625 29.234375 C14 27 14 27 16 24 C14.68 23.67 13.36 23.34 12 23 C12 22.34 12 21.68 12 21 C11.34 21 10.68 21 10 21 C9.4225 20.0925 8.845 19.185 8.25 18.25 C5.8397297 14.76849846 3.5960588 13.15763528 0 11 C-1 10 -1 10 -1.1328125 7.96875 C-1.13023437 7.1540625 -1.12765625 6.339375 -1.125 5.5 C-1.12886719 4.27796875 -1.12886719 4.27796875 -1.1328125 3.03125 C-1 1 -1 1 0 0 Z " fill="#F9A511" transform="translate(353,249)"/>
<path d="M0 0 C3.39487957 3.39487957 2.46690079 8.19237919 2.65625 12.8125 C2.67271607 16.09085835 2.67271607 16.09085835 5 18 C6.88512349 18.57783755 8.78325326 19.11369661 10.6875 19.625 C18.95046352 22.27033724 22.95310436 27.54519224 27 35 C27.66 35.99 28.32 36.98 29 38 C29.30078125 40.41015625 29.30078125 40.41015625 29.3125 43.0625 C29.32925781 43.94035156 29.34601563 44.81820312 29.36328125 45.72265625 C29.24339844 46.47417969 29.12351562 47.22570312 29 48 C26 50 26 50 23.4375 49.6875 C21 49 21 49 19 48 C17.40107702 44.9758532 15.98002646 41.88552993 14.53515625 38.78515625 C13.15093849 35.76773637 13.15093849 35.76773637 10 34 C10 33.34 10 32.68 10 32 C2.05204946 29.10983617 -7.14358599 28.50826044 -15 32 C-15 32.66 -15 33.32 -15 34 C-15.7425 34.66 -16.485 35.32 -17.25 36 C-20.9578802 39.59134682 -22.75601993 44.04656128 -24 49 C-24.02785213 51.88269568 -23.63075484 54.1616032 -23 57 C-25.46115371 59.27183419 -26.73620199 59.9736202 -30.125 60.3125 C-33 60 -33 60 -35 58 C-36.04915377 47.92812378 -35.69738267 39.64190154 -30 31 C-29.5875 30.0925 -29.175 29.185 -28.75 28.25 C-23.70740933 21.76666914 -16.86345827 19.24816798 -9 18 C-9.05220703 16.42798828 -9.05220703 16.42798828 -9.10546875 14.82421875 C-9.13360937 13.44532853 -9.16090924 12.06642098 -9.1875 10.6875 C-9.21263672 9.99720703 -9.23777344 9.30691406 -9.26367188 8.59570312 C-9.33750433 3.50126383 -9.33750433 3.50126383 -7.6796875 1.0390625 C-5.0850561 -0.56598855 -2.97066924 -0.31602864 0 0 Z " fill="#F9A511" transform="translate(348,176)"/>
</svg>
