<?xml version="1.0" encoding="UTF-8"?>
<svg version="1.1" xmlns="http://www.w3.org/2000/svg" width="726" height="676">
<path d="M0 0 C1.7479235 0.00295249 3.49584878 0.00498547 5.24377441 0.00610352 C11.6169709 0.0164512 17.99012916 0.04437225 24.36328125 0.0703125 C38.65640625 0.1115625 52.94953125 0.1528125 67.67578125 0.1953125 C67.67578125 29.2353125 67.67578125 58.2753125 67.67578125 88.1953125 C36.05078125 88.5078125 36.05078125 88.5078125 26.09130859 88.58325195 C23.48143074 88.61554187 20.87156597 88.64891558 18.26171875 88.68359375 C17.58903961 88.68650925 16.91636047 88.68942474 16.22329712 88.69242859 C14.22606168 88.70222608 12.22895767 88.73227605 10.23193359 88.76293945 C9.10830414 88.77404251 7.98467468 88.78514557 6.82699585 88.79658508 C2.57558413 89.33452192 -0.66193513 90.94859978 -4.07421875 93.5078125 C-8.94482842 100.08313556 -8.4803994 109.56928743 -8.640625 117.41015625 C-8.66860168 118.54958679 -8.66860168 118.54958679 -8.69714355 119.71203613 C-8.76485716 122.51885614 -8.8253762 125.32584602 -8.88671875 128.1328125 C-9.03109375 134.4234375 -9.17546875 140.7140625 -9.32421875 147.1953125 C16.41578125 147.5253125 42.15578125 147.8553125 68.67578125 148.1953125 C67.02578125 182.8453125 67.02578125 182.8453125 65.67578125 184.1953125 C65.47985401 185.92992718 65.34830982 187.67186094 65.24267578 189.41430664 C65.17235138 190.52959244 65.10202698 191.64487823 65.02957153 192.79396057 C64.95664886 194.01050827 64.8837262 195.22705597 64.80859375 196.48046875 C64.64367548 199.03844027 64.47829605 201.5963821 64.3125 204.15429688 C64.05406409 208.20039048 63.80064905 212.24674067 63.55615234 216.29370117 C63.31795436 220.19007598 63.0643416 224.08521176 62.80859375 227.98046875 C62.70528244 229.78403587 62.70528244 229.78403587 62.59988403 231.6240387 C62.16814806 238.03201851 61.47047743 243.37544331 58.67578125 249.1953125 C55.82007426 250.623166 53.39863769 250.31472736 50.20654297 250.30883789 C49.21124069 250.30905693 49.21124069 250.30905693 48.1958313 250.3092804 C45.99901072 250.30858281 43.80227455 250.30079764 41.60546875 250.29296875 C40.08375088 250.29110402 38.56203241 250.28968038 37.04031372 250.28868103 C33.03227078 250.28486017 29.02426399 250.27503354 25.01623535 250.26397705 C20.92749521 250.25375368 16.83874924 250.24918142 12.75 250.24414062 C4.72524381 250.2334109 -3.29948297 250.21633963 -11.32421875 250.1953125 C-11.32780128 252.07881314 -11.32780128 252.07881314 -11.33145618 254.0003643 C-11.38876943 283.78218451 -11.46146662 313.56392358 -11.55320503 343.34565579 C-11.5644737 347.00826888 -11.57561207 350.67088236 -11.58666992 354.33349609 C-11.58887361 355.06268148 -11.59107729 355.79186686 -11.59334775 356.54314877 C-11.62875649 368.36259688 -11.65360039 380.18204492 -11.67456577 392.00152646 C-11.6962994 404.12209171 -11.72932646 416.2425879 -11.77292031 428.36309445 C-11.79947923 435.84699911 -11.8171433 443.33081766 -11.82356479 450.81476714 C-11.82942377 456.54562992 -11.85096658 462.27634924 -11.87849426 468.00714493 C-11.88732621 470.36384979 -11.89098651 472.72058027 -11.88922691 475.07730103 C-11.88758875 478.28230474 -11.90414814 481.48669929 -11.92549133 484.69161987 C-11.91821997 486.10696842 -11.91821997 486.10696842 -11.91080171 487.55090988 C-11.92025825 488.40484049 -11.92971479 489.25877111 -11.93945789 490.13857841 C-11.9413565 490.87903306 -11.9432551 491.6194877 -11.94521123 492.38238037 C-12.32421875 494.1953125 -12.32421875 494.1953125 -15.32421875 496.1953125 C-17.20266056 496.44699478 -17.20266056 496.44699478 -19.35401917 496.44927979 C-20.17142578 496.45491943 -20.9888324 496.46055908 -21.83100891 496.46636963 C-22.72410263 496.46232117 -23.61719635 496.45827271 -24.53735352 496.45410156 C-25.48067535 496.4576062 -26.42399719 496.46111084 -27.39590454 496.46472168 C-30.51921917 496.47353641 -33.642308 496.46769117 -36.765625 496.4609375 C-38.93131046 496.46228411 -41.09699563 496.46422461 -43.26268005 496.46673584 C-47.8029976 496.46968666 -52.34323651 496.46539035 -56.88354492 496.45605469 C-62.71366151 496.44465343 -68.54359411 496.45122422 -74.37370396 496.46319962 C-78.8456919 496.47041352 -83.31763593 496.46813256 -87.78962517 496.46294403 C-89.9399003 496.46160659 -92.09017937 496.46325854 -94.24044991 496.46790314 C-97.24056748 496.47296139 -100.2403835 496.46526829 -103.24047852 496.45410156 C-104.13559647 496.45815002 -105.03071442 496.46219849 -105.95295715 496.46636963 C-112.09568975 496.4238415 -112.09568975 496.4238415 -114.32421875 494.1953125 C-114.57902777 492.38238037 -114.57902777 492.38238037 -114.58593178 490.13857841 C-114.59339727 489.2846478 -114.60086276 488.43071718 -114.60855448 487.55090988 C-114.60661975 486.60734418 -114.60468501 485.66377847 -114.60269165 484.69161987 C-114.61138025 483.19447643 -114.61138025 483.19447643 -114.62024438 481.66708767 C-114.63733599 478.30130107 -114.64012874 474.93565081 -114.64306641 471.56982422 C-114.65235826 469.16561544 -114.66252581 466.76140991 -114.67350769 464.35720825 C-114.69522059 459.17015945 -114.71080612 453.98313014 -114.72087479 448.79604721 C-114.73544299 441.29634477 -114.7609745 433.7967114 -114.78920607 426.29704942 C-114.83470796 414.13018012 -114.87130869 401.96330089 -114.90234375 389.79638672 C-114.93251541 377.97540544 -114.96685928 366.15444846 -115.00683594 354.33349609 C-115.00929749 353.60519462 -115.01175903 352.87689315 -115.01429518 352.12652193 C-115.02666951 348.47294958 -115.03912609 344.81937751 -115.05162358 341.16580558 C-115.15524222 310.84234114 -115.24428089 280.51884915 -115.32421875 250.1953125 C-115.88132034 250.19975372 -116.43842194 250.20419495 -117.0124054 250.20877075 C-122.80341022 250.25296985 -128.59436724 250.28316464 -134.38549805 250.30517578 C-136.54762722 250.31524201 -138.70974275 250.32889604 -140.87182617 250.34619141 C-143.977085 250.37041228 -147.08216405 250.38178931 -150.1875 250.390625 C-151.15633621 250.40094757 -152.12517242 250.41127014 -153.12336731 250.42190552 C-154.02407455 250.42205658 -154.9247818 250.42220764 -155.8527832 250.42236328 C-157.0419207 250.42902512 -157.0419207 250.42902512 -158.25508118 250.43582153 C-160.32421875 250.1953125 -160.32421875 250.1953125 -163.32421875 248.1953125 C-163.69336224 246.38747978 -163.69336224 246.38747978 -163.6849823 244.15841675 C-163.68910629 243.31425201 -163.69323029 242.47008728 -163.69747925 241.6003418 C-163.68669342 240.6724585 -163.67590759 239.7445752 -163.66479492 238.78857422 C-163.665233 237.81292511 -163.66567108 236.837276 -163.66612244 235.83206177 C-163.66402669 232.59617333 -163.64065846 229.3607983 -163.6171875 226.125 C-163.61159435 223.88583662 -163.60732293 221.64666958 -163.60432434 219.40750122 C-163.59285352 213.50549232 -163.56336703 207.60370385 -163.5302124 201.70178223 C-163.49417323 194.62502091 -163.48036104 187.54818601 -163.46285248 180.47135925 C-163.43373112 169.71252355 -163.37625909 158.9541718 -163.32421875 148.1953125 C-147.15421875 148.1953125 -130.98421875 148.1953125 -114.32421875 148.1953125 C-114.33582031 144.34101563 -114.34742188 140.48671875 -114.359375 136.515625 C-114.36718649 132.75911542 -114.37325134 129.00260676 -114.37915039 125.24609375 C-114.38416146 122.64680574 -114.39097209 120.04752052 -114.3996582 117.44824219 C-114.41186557 113.69986275 -114.41747948 109.95152077 -114.421875 106.203125 C-114.42703629 105.05167999 -114.43219757 103.90023499 -114.43751526 102.71389771 C-114.43814682 93.51289841 -114.00637422 85.03064815 -111.32421875 76.1953125 C-110.77692693 73.64524988 -110.27724974 71.08931812 -109.7890625 68.52734375 C-109.36416469 66.39571357 -108.8706017 64.29864508 -108.32421875 62.1953125 C-107.66421875 62.1953125 -107.00421875 62.1953125 -106.32421875 62.1953125 C-106.18693359 60.93847656 -106.18693359 60.93847656 -106.046875 59.65625 C-105.21617662 55.6778783 -103.63957532 52.3826622 -101.76171875 48.8203125 C-101.43236328 48.17964844 -101.10300781 47.53898437 -100.76367188 46.87890625 C-99.95782393 45.31392618 -99.14203382 43.75407229 -98.32421875 42.1953125 C-97.66421875 42.1953125 -97.00421875 42.1953125 -96.32421875 42.1953125 C-96.22109375 41.6384375 -96.11796875 41.0815625 -96.01171875 40.5078125 C-95.18243467 37.7184024 -93.98122819 35.5814061 -92.32421875 33.1953125 C-91.66421875 33.1953125 -91.00421875 33.1953125 -90.32421875 33.1953125 C-89.99421875 32.2053125 -89.66421875 31.2153125 -89.32421875 30.1953125 C-87.72265625 28.58203125 -87.72265625 28.58203125 -85.69921875 26.8828125 C-84.98121094 26.27695313 -84.26320313 25.67109375 -83.5234375 25.046875 C-82.43482422 24.13035156 -82.43482422 24.13035156 -81.32421875 23.1953125 C-80.67066406 22.60492188 -80.01710938 22.01453125 -79.34375 21.40625 C-78.43689453 20.59027344 -78.43689453 20.59027344 -77.51171875 19.7578125 C-76.96902344 19.26410156 -76.42632812 18.77039063 -75.8671875 18.26171875 C-74.32421875 17.1953125 -74.32421875 17.1953125 -71.32421875 17.1953125 C-71.32421875 16.5353125 -71.32421875 15.8753125 -71.32421875 15.1953125 C-47.19155787 3.53073129 -47.19155787 3.53073129 -40.32421875 4.1953125 C-40.32421875 3.5353125 -40.32421875 2.8753125 -40.32421875 2.1953125 C-26.82808797 0.48923105 -13.59506786 -0.07829253 0 0 Z " fill="#F9A511" transform="translate(410.32421875,93.8046875)"/>
</svg>
