<?xml version="1.0" encoding="UTF-8"?>
<svg version="1.1" xmlns="http://www.w3.org/2000/svg" width="726" height="676">
<path d="M0 0 C2.17173299 1.19296357 3.9764981 2.36318931 5.86401367 3.95654297 C6.48743652 4.47490723 7.11085938 4.99327148 7.75317383 5.52734375 C8.41236816 6.08405762 9.0715625 6.64077148 9.75073242 7.21435547 C15.25412213 11.77742923 20.81994051 16.20684497 26.56323242 20.46435547 C32.70064781 25.02192304 38.74153189 29.68172775 44.73901367 34.42138672 C55.31071295 42.77536815 65.96587698 51.02905093 76.66870117 59.21435547 C78.38962121 60.53477931 80.10224838 61.86617805 81.80151367 63.21435547 C82.48600586 63.75060547 83.17049805 64.28685547 83.87573242 64.83935547 C84.43131836 65.28279297 84.9869043 65.72623047 85.55932617 66.18310547 C91.99116434 70.14115973 99.1442864 70.12765605 106.43823242 69.33935547 C115.37250276 66.87899487 122.58926408 59.6282513 129.59057617 53.84863281 C132.26783817 51.66168333 135.00347548 49.56295452 137.75073242 47.46435547 C143.00009529 43.44823775 148.22417177 39.40120061 153.43823242 35.33935547 C159.61157403 30.53194516 165.80056453 25.74649763 172.00854492 20.98388672 C174.67888649 18.93008698 177.33721024 16.86125635 179.99291992 14.78857422 C180.79020508 14.16660156 181.58749023 13.54462891 182.40893555 12.90380859 C183.9685041 11.68630625 185.52715461 10.46762665 187.0847168 9.24755859 C191.46218669 5.830711 195.89556195 2.53360792 200.43823242 -0.66064453 C206.10363485 2.36986059 210.98727154 5.96073415 216.00073242 9.96435547 C221.87282417 14.59497379 227.78743069 19.08149891 233.90844727 23.37792969 C239.24769465 27.15152174 244.43607155 31.11343593 249.62573242 35.08935547 C257.23427068 40.917726 264.89640316 46.6618561 272.62451172 52.33056641 C278.24262226 56.45259122 283.8249449 60.61922999 289.3918457 64.81005859 C294.44295688 68.60683342 299.53066627 72.35185629 304.62573242 76.08935547 C311.45258646 81.10091227 318.21260433 86.19284171 324.93823242 91.33935547 C334.68373278 98.79458717 344.53856862 106.09064767 354.43823242 113.33935547 C365.23699225 121.24639718 375.96145507 129.23545055 386.59082031 137.36914062 C393.21602497 142.43039267 399.90336844 147.40033518 406.62573242 152.33154297 C411.58621563 155.97089246 416.52295183 159.63920558 421.43823242 163.33935547 C428.18982375 168.42038818 434.98398491 173.44199784 441.79370117 178.44482422 C443.28220332 179.53878363 444.76923652 180.6347452 446.25463867 181.73291016 C447.75537964 182.83698838 449.26366129 183.93086689 450.77807617 185.01611328 C451.51155273 185.54817383 452.2450293 186.08023438 453.00073242 186.62841797 C453.66202148 187.10230957 454.32331055 187.57620117 455.00463867 188.06445312 C455.47772461 188.4851709 455.95081055 188.90588867 456.43823242 189.33935547 C456.43823242 189.99935547 456.43823242 190.65935547 456.43823242 191.33935547 C452.91247491 192.9318117 450.16893193 193.58945702 446.30777401 193.5900538 C445.28843673 193.59506083 444.26909946 193.60006787 443.21887317 193.60522664 C441.54610207 193.59820314 441.54610207 193.59820314 439.83953762 193.59103775 C438.04975876 193.59539807 438.04975876 193.59539807 436.22382274 193.59984648 C432.90063668 193.60590354 429.57767568 193.60296425 426.25450508 193.59629058 C422.64344382 193.59122869 419.03240067 193.59773243 415.42134196 193.60277724 C409.08879981 193.61001165 402.75629175 193.60977473 396.42374802 193.60468292 C387.00723991 193.59713189 377.59076066 193.60097816 368.17425276 193.60709954 C351.35870056 193.61764348 334.54316353 193.61671331 317.72760987 193.61094171 C303.01289411 193.60591581 288.29818392 193.60459476 273.58346748 193.606987 C272.60840355 193.60713977 271.63333961 193.60729254 270.62872828 193.60744994 C266.67089891 193.60807259 262.71306955 193.60870939 258.75524018 193.60936947 C221.60895143 193.61549092 184.46267235 193.60993499 147.31638509 193.59917567 C114.29311222 193.58968334 81.26985477 193.59053395 48.24658203 193.60009766 C11.167864 193.61079988 -25.91084547 193.61505758 -62.98956484 193.60887313 C-66.93998269 193.60823167 -70.89040055 193.60760599 -74.84081841 193.606987 C-75.81355415 193.60682884 -76.78628989 193.60667069 -77.78850248 193.60650774 C-92.49691865 193.60422996 -107.20532865 193.60689861 -121.91374397 193.61194611 C-138.63212294 193.61765466 -155.35048431 193.61625624 -172.06886107 193.60538462 C-181.43288224 193.59949675 -190.79686536 193.59915067 -200.16088557 193.60667697 C-206.40761033 193.61114532 -212.65430444 193.60840049 -218.90102464 193.59966743 C-222.46551981 193.59488798 -226.0299391 193.59332827 -229.594432 193.60047939 C-233.42596696 193.60808826 -237.25738067 193.60038365 -241.08891392 193.59103775 C-242.20643582 193.59572008 -243.32395771 193.60040241 -244.47534391 193.60522664 C-246.00059455 193.59771608 -246.00059455 193.59771608 -247.55665833 193.5900538 C-248.43339858 193.58991828 -249.31013884 193.58978276 -250.21344698 193.58964314 C-252.7419701 193.3201492 -254.37948234 192.61253968 -256.56176758 191.33935547 C-255.22238727 188.22312758 -253.94902082 186.59132456 -251.16723633 184.66748047 C-250.46993408 184.17642822 -249.77263184 183.68537598 -249.05419922 183.17944336 C-248.29357178 182.65471436 -247.53294434 182.12998535 -246.74926758 181.58935547 C-245.10424552 180.42913295 -243.46109112 179.26625891 -241.81958008 178.10107422 C-240.95751953 177.48925293 -240.09545898 176.87743164 -239.20727539 176.24707031 C-234.77882751 173.053651 -230.45361603 169.72773385 -226.12426758 166.40185547 C-218.722714 160.72739871 -211.26225744 155.1466034 -203.73706055 149.63745117 C-197.68420517 145.19461244 -191.70937886 140.65563872 -185.74926758 136.08935547 C-179.55299672 131.34365669 -173.32112651 126.68477448 -166.9362793 122.19677734 C-161.65053766 118.45624086 -156.51474236 114.52620689 -151.37426758 110.58935547 C-140.76043624 102.46168114 -130.01342052 94.52780427 -119.2277832 86.63037109 C-109.2064164 79.28806643 -99.26681403 71.85236276 -89.40039062 64.30297852 C-82.8710395 59.31518774 -76.28119085 54.41693253 -69.65551758 49.55810547 C-63.92896752 45.35609453 -58.23807775 41.10895179 -52.56176758 36.83935547 C-45.34752037 31.41295656 -38.10437603 26.02909568 -30.80737305 20.71435547 C-26.42475645 17.50707281 -22.12541561 14.22047438 -17.87817383 10.83544922 C-16.92934326 10.08706787 -15.9805127 9.33868652 -15.00292969 8.56762695 C-13.15700282 7.10704832 -11.32263037 5.63171988 -9.50146484 4.14038086 C-8.25127563 3.15606079 -8.25127563 3.15606079 -6.97583008 2.15185547 C-5.87682373 1.26433594 -5.87682373 1.26433594 -4.75561523 0.35888672 C-2.56176758 -0.66064453 -2.56176758 -0.66064453 0 0 Z " fill="#F9A511" transform="translate(263.561767578125,478.66064453125)"/>
<path d="M0 0 C1.10794922 -0.04350586 1.10794922 -0.04350586 2.23828125 -0.08789062 C7.66745215 -0.1501298 11.30528498 1.15457236 15.75 4.3125 C16.74918457 5.01330688 16.74918457 5.01330688 17.76855469 5.72827148 C20.03393753 7.35385062 22.26872591 9.01543782 24.5 10.6875 C26.19263339 11.94541334 27.88534389 13.20322295 29.578125 14.4609375 C30.43728516 15.1012793 31.29644531 15.74162109 32.18164062 16.40136719 C36.19349015 19.38661035 40.22211621 22.34894891 44.25 25.3125 C45.83342345 26.47904436 47.41675656 27.64571135 49 28.8125 C50.175625 29.67875 50.175625 29.67875 51.375 30.5625 C53.75 32.3125 56.125 34.0625 58.5 35.8125 C59.67598755 36.6789917 59.67598755 36.6789917 60.87573242 37.56298828 C62.45668983 38.72793849 64.03758192 39.89297734 65.6184082 41.05810547 C69.61255828 44.0017698 73.6078843 46.94381346 77.60546875 49.8828125 C78.415 50.47835937 79.22453125 51.07390625 80.05859375 51.6875 C81.55684887 52.78966468 83.05549202 53.89130226 84.5546875 54.9921875 C85.61623047 55.77335937 85.61623047 55.77335937 86.69921875 56.5703125 C87.8037162 57.35481529 87.8037162 57.35481529 88.93052673 58.15516663 C91.0723994 59.79403068 92.96380572 61.4229146 94.91871643 63.26023865 C106.37708788 73.54776149 116.28828413 73.92476607 131.203125 73.52734375 C133.43834897 73.5146688 135.67361477 73.50807499 137.90887451 73.50721741 C143.75142414 73.49217994 149.59087926 73.41007546 155.43249512 73.30859375 C164.79174983 73.1548746 174.15159384 73.09356828 183.51192474 73.05319405 C186.7586435 73.02788537 190.00320766 72.96699591 193.24932861 72.90135193 C207.23219999 72.71138423 217.59358981 73.99606607 228.71484375 83.30078125 C236.96792596 91.45881837 241.67376362 101.61949879 241.77604675 113.28253174 C241.73159927 114.32270447 241.68715179 115.3628772 241.64135742 116.43457031 C241.59609421 117.62310608 241.55083099 118.81164185 241.50419617 120.03619385 C241.45511612 121.30815613 241.40603607 122.58011841 241.35546875 123.890625 C241.25948099 127.30923323 241.18370705 130.72832138 241.10676098 134.14740372 C241.02255914 137.70915866 240.91307342 141.26665836 240.7487793 144.82568359 C239.3867382 159.69123749 239.3867382 159.69123749 243.04220581 173.52478027 C246.64143984 177.40116152 250.93936185 179.28537368 255.75 181.3125 C258.09594727 182.91699219 258.09594727 182.91699219 259.94921875 184.421875 C260.81703979 185.07712158 260.81703979 185.07712158 261.70239258 185.74560547 C262.27497803 186.18018066 262.84756348 186.61475586 263.4375 187.0625 C271.68630636 193.28344512 280.00264251 199.4105078 288.32666016 205.53027344 C292.30322518 208.45480746 296.27646271 211.38385433 300.25 214.3125 C301.83331696 215.47918888 303.41665031 216.64585553 305 217.8125 C314.5 224.8125 314.5 224.8125 316.87744141 226.56445312 C318.45244018 227.72487618 320.02763386 228.88503474 321.60302734 230.04492188 C325.69056089 233.05491759 329.7740685 236.07016481 333.8515625 239.09375 C334.69267578 239.71636719 335.53378906 240.33898437 336.40039062 240.98046875 C337.99151509 242.1584283 339.5814589 243.33798517 341.16992188 244.51953125 C346.2584652 248.283167 351.45390007 251.8473241 356.75 255.3125 C355.64466585 258.62850246 355.1251416 259.03627495 352.3828125 260.95703125 C351.6719751 261.46161865 350.9611377 261.96620605 350.22875977 262.48608398 C349.45201904 263.02692627 348.67527832 263.56776855 347.875 264.125 C346.21938948 265.29854494 344.56446298 266.47305537 342.91015625 267.6484375 C342.05437988 268.25397461 341.19860352 268.85951172 340.31689453 269.48339844 C336.28108874 272.35920755 332.29618246 275.30261472 328.3125 278.25 C326.72399088 279.42322115 325.13544902 280.59639798 323.546875 281.76953125 C322.75732422 282.35299316 321.96777344 282.93645508 321.15429688 283.53759766 C318.7351429 285.32346782 316.31333981 287.10568282 313.890625 288.88671875 C306.48669982 294.33080335 299.09430598 299.78816862 291.75 305.3125 C283.6001105 311.44278521 275.3897739 317.48960259 267.17333984 323.53027344 C262.41496606 327.02978267 257.66096627 330.53523182 252.90649414 334.04003906 C248.77588618 337.08450252 244.6433219 340.12625948 240.5078125 343.1640625 C239.21907227 344.11152344 239.21907227 344.11152344 237.90429688 345.078125 C236.26299432 346.28470417 234.62110189 347.4904815 232.97851562 348.6953125 C232.23537109 349.241875 231.49222656 349.7884375 230.7265625 350.3515625 C230.03336914 350.86106445 229.34017578 351.37056641 228.62597656 351.89550781 C227.01009149 353.11604359 225.4481847 354.4074515 223.8984375 355.7109375 C221.75 357.3125 221.75 357.3125 218.75 357.3125 C218.75276538 356.05813172 218.75553076 354.80376345 218.75837994 353.51138401 C218.82338523 323.72007833 218.87283743 293.92879098 218.90319599 264.13743174 C218.90694801 260.4688183 218.91083098 256.80020501 218.91479492 253.1315918 C218.91558185 252.40125197 218.91636878 251.67091215 218.91717956 250.91844081 C218.93022542 239.10045398 218.95387474 227.28251103 218.98145839 215.4645502 C219.00953543 203.33382636 219.02618112 191.20312547 219.03226548 179.07237047 C219.03637717 171.5899813 219.04935297 164.10771617 219.0737494 156.62536519 C219.09151573 150.88316536 219.09335981 145.14104461 219.08932304 139.39882278 C219.09014769 137.04664917 219.09610592 134.69447081 219.10761642 132.34232521 C219.12257932 129.12669127 219.11893942 125.91158469 219.11076355 122.69593811 C219.11950207 121.76887135 219.1282406 120.84180459 219.13724393 119.8866449 C219.08725941 112.59499664 218.0622379 106.09904312 213.3125 100.375 C208.7079093 96.66886603 205.78141412 96.06194561 199.82738781 96.05523109 C199.12757128 96.05172502 198.42775474 96.04821895 197.70673165 96.04460663 C195.35007892 96.03526595 192.99367186 96.04022275 190.63700867 96.04507446 C188.93500069 96.04133954 187.23299443 96.03673865 185.5309909 96.03134382 C180.84467303 96.01907881 176.15842636 96.0193784 171.47209609 96.02173257 C166.42153098 96.02213985 161.37098898 96.01111004 156.32043457 96.00161743 C146.42186055 95.98498721 136.52331034 95.97950697 126.62472352 95.97839268 C118.58044284 95.97744315 110.53617004 95.97333762 102.49189186 95.96699142 C79.69658087 95.9493734 56.90128873 95.94015342 34.10597088 95.94165237 C32.26167814 95.94177224 32.26167814 95.94177224 30.38012695 95.94189453 C29.14910123 95.94197629 27.91807551 95.94205805 26.64974598 95.94214229 C6.6957629 95.94295532 -13.25814472 95.92381478 -33.21210597 95.8956178 C-53.6892265 95.86690934 -74.16631021 95.85307638 -94.64345139 95.85480535 C-106.1444115 95.85546996 -117.6452925 95.84994651 -129.14623451 95.82844925 C-138.93808045 95.81026425 -148.72981143 95.80586803 -158.52166692 95.8194681 C-163.51897497 95.82601133 -168.5160623 95.82606612 -173.51334953 95.8087616 C-178.08732041 95.79308564 -182.66089456 95.79583827 -187.23485544 95.81332986 C-188.89030208 95.81641187 -190.54577794 95.81272236 -192.20119015 95.80160971 C-194.45122893 95.78750474 -196.69987303 95.79806043 -198.94986439 95.81472206 C-200.19963403 95.81428733 -201.44940366 95.81385259 -202.73704511 95.81340468 C-208.34698026 96.61042385 -212.05731577 98.8059515 -215.625 103.3125 C-217.73590247 107.20955071 -218.37304955 110.26303009 -218.3886652 114.66218185 C-218.39413964 115.53054476 -218.39961409 116.39890766 -218.40525442 117.29358459 C-218.40623253 118.24299745 -218.40721064 119.19241031 -218.40821838 120.17059326 C-218.41315636 121.18264839 -218.41809434 122.19470353 -218.42318195 123.237427 C-218.43857534 126.63842622 -218.4469226 130.03940653 -218.45532227 133.44042969 C-218.46489934 135.87448799 -218.47490932 138.30854462 -218.48532104 140.74259949 C-218.50678171 145.98799689 -218.52522242 151.23339574 -218.54092598 156.47881317 C-218.56363591 164.06281152 -218.59177719 171.64678205 -218.62124526 179.23075679 C-218.66890739 191.53517323 -218.71217531 203.83960105 -218.75268555 216.14404297 C-218.79204749 228.09685145 -218.83347539 240.04964983 -218.87768555 252.00244141 C-218.88177196 253.10754693 -218.88177196 253.10754693 -218.88594092 254.23497781 C-218.89962051 257.930961 -218.91334076 261.62694404 -218.92708123 265.322927 C-219.04102434 295.98609707 -219.14776537 326.64928852 -219.25 357.3125 C-222.87156024 355.56345927 -226.0622782 353.41636646 -229.3125 351.0625 C-229.91465332 350.62921387 -230.51680664 350.19592773 -231.13720703 349.74951172 C-242.919778 341.24598243 -254.58532151 332.58190841 -266.19750977 323.84765625 C-273.70115433 318.2099285 -281.26488679 312.65409497 -288.82666016 307.09472656 C-292.80322518 304.17019254 -296.77646271 301.24114567 -300.75 298.3125 C-302.33331696 297.14581112 -303.91665031 295.97914447 -305.5 294.8125 C-308.66666667 292.47916667 -311.83333333 290.14583333 -315 287.8125 C-315.78463623 287.23435547 -316.56927246 286.65621094 -317.37768555 286.06054688 C-318.95209982 284.90043509 -320.52648163 283.74027924 -322.10083008 282.58007812 C-326.19535219 279.56274922 -330.29053061 276.54631688 -334.38671875 273.53125 C-335.65515625 272.59732422 -335.65515625 272.59732422 -336.94921875 271.64453125 C-338.55187158 270.46455609 -340.15472083 269.28484764 -341.7578125 268.10546875 C-343.21177953 267.03479707 -344.66415896 265.96196522 -346.11474609 264.88671875 C-347.59454512 263.79573497 -349.08246369 262.71571176 -350.57666016 261.64453125 C-351.31062012 261.11214844 -352.04458008 260.57976562 -352.80078125 260.03125 C-353.46376221 259.55623047 -354.12674316 259.08121094 -354.80981445 258.59179688 C-355.28507568 258.16962891 -355.76033691 257.74746094 -356.25 257.3125 C-356.25 256.6525 -356.25 255.9925 -356.25 255.3125 C-354.34522989 253.80857058 -352.4381421 252.42969127 -350.4375 251.0625 C-349.14220156 250.15771937 -347.84798773 249.25138459 -346.5546875 248.34375 C-345.85698242 247.85519531 -345.15927734 247.36664063 -344.44042969 246.86328125 C-340.60825695 244.15017813 -336.83718048 241.35476133 -333.0625 238.5625 C-332.26094482 237.97049805 -331.45938965 237.37849609 -330.63354492 236.76855469 C-328.99063924 235.5550207 -327.34798099 234.34115169 -325.70556641 233.12695312 C-321.72350788 230.18455315 -317.73656062 227.2487956 -313.75 224.3125 C-312.16664211 223.14586666 -310.5833088 221.97919996 -309 220.8125 C-299.5 213.8125 -299.5 213.8125 -297.12426758 212.06201172 C-295.54331017 210.89706151 -293.96241808 209.73202266 -292.3815918 208.56689453 C-288.38744172 205.6232302 -284.3921157 202.68118654 -280.39453125 199.7421875 C-266.19056699 189.38042368 -266.19056699 189.38042368 -252.20402527 178.73020935 C-250.25 177.3125 -250.25 177.3125 -248.17858887 176.22599792 C-245.70740969 174.80154087 -244.05989024 173.53167599 -242.25 171.3125 C-241.09396367 166.65789201 -241.25062714 162.10564825 -241.35546875 157.33203125 C-241.35556754 155.9544778 -241.35169926 154.57691893 -241.34407043 153.1993866 C-241.33265078 149.57793773 -241.36619077 145.95840605 -241.4119873 142.33728027 C-241.4785934 136.56167161 -241.48100279 130.78590083 -241.47530556 125.00998497 C-241.48033564 123.00995942 -241.50843258 121.01003375 -241.53715515 119.01020813 C-241.59969214 106.13307337 -239.20051541 94.642825 -230.10546875 85.05078125 C-220.71587256 76.39699669 -212.07012075 72.96109316 -199.40600586 73.15234375 C-198.44236115 73.15836105 -197.47871643 73.16437836 -196.48587036 73.170578 C-194.40155764 73.18372912 -192.31726691 73.20084026 -190.23301506 73.22149658 C-185.78363949 73.2603019 -181.33448569 73.2622432 -176.88496494 73.26629639 C-168.61407162 73.27400916 -160.34394714 73.29539506 -152.07348633 73.38427734 C-146.30721855 73.44482022 -140.54262055 73.45598471 -134.77609444 73.43557739 C-132.59099433 73.43684612 -130.40582283 73.45590215 -128.22105217 73.49386597 C-113.68711275 73.7361358 -105.06777722 72.2308385 -94.25 62.3125 C-92.64707387 61.10919208 -91.03187374 59.92166639 -89.39453125 58.765625 C-87.94973542 57.6989797 -86.50572649 56.63126773 -85.0625 55.5625 C-83.43361496 54.35934628 -81.80470808 53.15622214 -80.17578125 51.953125 C-79.36061035 51.35048828 -78.54543945 50.74785156 -77.70556641 50.12695312 C-73.72350788 47.18455315 -69.73656062 44.2487956 -65.75 41.3125 C-64.16664211 40.14586666 -62.5833088 38.97919996 -61 37.8125 C-57.83333333 35.47916667 -54.66666667 33.14583333 -51.5 30.8125 C-50.7152832 30.2342749 -49.93056641 29.6560498 -49.12207031 29.06030273 C-47.54855175 27.90089358 -45.97498454 26.74155046 -44.40136719 25.58227539 C-40.29245361 22.55512576 -36.18454784 19.52662149 -32.078125 16.49609375 C-31.22798828 15.86896484 -30.37785156 15.24183594 -29.50195312 14.59570312 C-27.88575153 13.40342326 -26.26984507 12.21074319 -24.65429688 11.01757812 C-22.52241614 9.44524614 -20.38672529 7.87823913 -18.25 6.3125 C-17.59193359 5.82539551 -16.93386719 5.33829102 -16.25585938 4.83642578 C-10.71742154 0.78698681 -6.72672677 0.08624009 0 0 Z " fill="#F9A511" transform="translate(363.25,5.6875)"/>
<path d="M0 0 C0 124.41 0 248.82 0 377 C-10.11269615 370.25820257 -10.11269615 370.25820257 -13.8046875 367.40625 C-14.62557861 366.77557617 -15.44646973 366.14490234 -16.29223633 365.49511719 C-17.14454834 364.83672852 -17.99686035 364.17833984 -18.875 363.5 C-25.80551972 358.18178655 -32.76830464 352.91680639 -39.8125 347.75 C-46.22262163 343.0482767 -52.60255104 338.31045146 -58.95361328 333.52929688 C-64.00472446 329.73252205 -69.09243385 325.98749918 -74.1875 322.25 C-81.01435404 317.2384432 -87.77437191 312.14651375 -94.5 307 C-104.24550035 299.5447683 -114.1003362 292.2487078 -124 285 C-134.79875983 277.09295829 -145.52322265 269.10390492 -156.15258789 260.97021484 C-162.77779255 255.90896279 -169.46513602 250.93902029 -176.1875 246.0078125 C-181.80528421 241.88622208 -187.3871286 237.71981221 -192.95361328 233.52929688 C-198.00472164 229.73252416 -203.09226911 225.98727164 -208.1875 222.25 C-216.10878846 216.43985963 -223.93348214 210.51031137 -231.70776367 204.50488281 C-236.9995168 200.43933727 -242.39647542 196.62432123 -248 193 C-246.69255345 190.00381806 -245.48247286 188.31017893 -242.83203125 186.40625 C-241.87490234 185.70628906 -241.87490234 185.70628906 -240.8984375 184.9921875 C-240.21007812 184.49976563 -239.52171875 184.00734375 -238.8125 183.5 C-237.34871385 182.42919428 -235.88650989 181.35622284 -234.42578125 180.28125 C-233.68408691 179.73597656 -232.94239258 179.19070313 -232.17822266 178.62890625 C-228.88594854 176.16689628 -225.69189143 173.59002602 -222.5 171 C-217.41351024 166.88629219 -212.25154704 162.90071374 -207 159 C-201.04418955 154.57485812 -195.2141095 150.02047575 -189.43798828 145.36376953 C-183.36834434 140.47437868 -177.19332318 135.73111709 -171 131 C-160.62972437 123.0472536 -150.31086875 115.02955158 -140 107 C-130.82011989 99.85120171 -121.63545618 92.71004717 -112.40625 85.625 C-108.25758632 82.43372025 -104.12967519 79.215787 -100 76 C-94.84442648 71.98534375 -89.68315772 67.97898977 -84.5 64 C-76.30301626 57.70570383 -68.15396006 51.34986678 -60 45 C-50.82525587 37.85520133 -41.64551636 30.71832157 -32.421875 23.63671875 C-26.71549587 19.24706429 -21.04003895 14.81737042 -15.359375 10.39453125 C-14.65103516 9.84490723 -13.94269531 9.2952832 -13.21289062 8.72900391 C-11.64156121 7.50127278 -10.07857809 6.26282617 -8.52148438 5.01708984 C-7.71517578 4.37594238 -6.90886719 3.73479492 -6.078125 3.07421875 C-5.3449707 2.48600342 -4.61181641 1.89778809 -3.85644531 1.29174805 C-2 0 -2 0 0 0 Z " fill="#F9A511" transform="translate(726,276)"/>
<path d="M0 0 C7.86460674 4.494061 7.86460674 4.494061 10.62109375 6.8125 C11.23807129 7.32441895 11.85504883 7.83633789 12.49072266 8.36376953 C13.13315918 8.90372559 13.7755957 9.44368164 14.4375 10 C19.90103671 14.5178017 25.43115947 18.90091804 31.125 23.125 C37.26223501 27.68281591 43.30329245 32.34236674 49.30078125 37.08203125 C53.53796775 40.43034607 57.7991723 43.74756885 62.0625 47.0625 C62.83319824 47.66175293 63.60389648 48.26100586 64.39794922 48.87841797 C69.78949594 53.06699663 75.19821247 57.23250443 80.61328125 61.390625 C88.55529415 67.50023229 96.44687755 73.67552606 104.35253906 79.83203125 C115.40698713 88.44092749 115.40698713 88.44092749 126.5 97 C135.4852752 103.89960906 144.41442988 110.87151119 153.35253906 117.83203125 C164.40698713 126.44092749 164.40698713 126.44092749 175.5 135 C184.4852752 141.89960906 193.41442988 148.87151119 202.35253906 155.83203125 C213.44180727 164.46754056 213.44180727 164.46754056 224.5625 173.0625 C226.07070313 174.22458984 226.07070313 174.22458984 227.609375 175.41015625 C230.25156156 177.43696176 232.91305717 179.43698635 235.578125 181.43359375 C236.36243896 182.02454834 237.14675293 182.61550293 237.95483398 183.22436523 C239.5050796 184.3919055 241.05918616 185.55433993 242.61743164 186.71118164 C243.6672522 187.50383423 243.6672522 187.50383423 244.73828125 188.3125 C245.36774658 188.78300781 245.99721191 189.25351562 246.64575195 189.73828125 C247.09265381 190.15464844 247.53955566 190.57101562 248 191 C248 191.66 248 192.32 248 193 C246.37841797 194.24414063 246.37841797 194.24414063 244.1171875 195.65625 C238.90850283 199.01616686 234.0279911 202.71271506 229.125 206.5 C222.25346185 211.77130028 215.35492131 216.99793583 208.375 222.125 C207.59833984 222.69557129 206.82167969 223.26614258 206.02148438 223.85400391 C202.90457756 226.14116059 199.78526072 228.4250183 196.66601562 230.70898438 C186.64383116 238.05188811 176.70274282 245.48735999 166.83642578 253.03857422 C160.33791947 258.00379241 153.77367691 262.87114613 147.17504883 267.70214844 C141.12220487 272.14481102 135.14752041 276.68378637 129.1875 281.25 C122.99122915 285.99569878 116.75935893 290.65458099 110.37451172 295.14257812 C105.08877008 298.88311461 99.95297479 302.81314858 94.8125 306.75 C84.19866866 314.87767433 73.45165294 322.8115512 62.66601562 330.70898438 C53.54636127 337.3906359 44.47962379 344.13094685 35.5 351 C28.56212479 356.30691114 21.59239203 361.56545462 14.5625 366.75 C13.78777344 367.32234375 13.01304688 367.8946875 12.21484375 368.484375 C11.48523437 369.020625 10.755625 369.556875 10.00390625 370.109375 C9.37299072 370.57311523 8.7420752 371.03685547 8.09204102 371.51464844 C5.43498066 373.40116439 2.71137504 375.19241664 0 377 C0 252.59 0 128.18 0 0 Z " fill="#F9A511" transform="translate(1,276)"/>
<path d="M0 0 C1.48517104 1.26381105 2.96451459 2.53450729 4.4375 3.8125 C5.35402344 4.50988281 6.27054688 5.20726562 7.21484375 5.92578125 C7.94832031 6.54839844 8.68179688 7.17101562 9.4375 7.8125 C9.4375 8.4725 9.4375 9.1325 9.4375 9.8125 C10.0975 9.8125 10.7575 9.8125 11.4375 9.8125 C22.81453151 22.1788386 30.87613928 37.42237029 34.4375 53.8125 C34.66050781 54.79347656 34.88351562 55.77445312 35.11328125 56.78515625 C39.6779947 79.85714327 34.64200955 102.94485142 22.47265625 122.84375 C9.67375707 141.51392923 -6.91237545 156.11886757 -29.6796875 160.3984375 C-38.17462674 161.61857782 -46.59594811 161.17051922 -53.90234375 156.23046875 C-57.55630357 153.19761602 -60.40575504 150.58407296 -61.5625 145.8125 C-62.27212891 146.37517578 -62.27212891 146.37517578 -62.99609375 146.94921875 C-73.83468708 155.33698006 -85.20884107 161.5694106 -99.2578125 160.6328125 C-110.30242562 159.09097192 -120.26243225 153.19554483 -127.5625 144.8125 C-130.68039676 140.31318635 -133.19092805 135.74301415 -135.5625 130.8125 C-136.02011719 129.86246094 -136.47773438 128.91242188 -136.94921875 127.93359375 C-142.7757359 112.90731267 -141.52936052 92.57365495 -135.5625 77.8125 C-135.18867188 76.78511719 -134.81484375 75.75773437 -134.4296875 74.69921875 C-126.95747671 55.22693435 -113.74866949 39.97398035 -94.8046875 31.22265625 C-83.7716876 26.42396593 -71.80766259 26.14742557 -60.4609375 30.40625 C-53.90129465 33.58882605 -47.70436252 37.72871505 -43.5625 43.8125 C-43.36914062 42.95785156 -43.17578125 42.10320312 -42.9765625 41.22265625 C-42.71617187 40.11792969 -42.45578125 39.01320312 -42.1875 37.875 C-41.93226563 36.77285156 -41.67703125 35.67070312 -41.4140625 34.53515625 C-41.13304687 33.63667969 -40.85203125 32.73820312 -40.5625 31.8125 C-36.55950128 29.81100064 -31.46333269 30.62764791 -27.0625 30.625 C-25.45568359 30.60663086 -25.45568359 30.60663086 -23.81640625 30.58789062 C-22.79417969 30.58595703 -21.77195312 30.58402344 -20.71875 30.58203125 C-19.77837891 30.57792236 -18.83800781 30.57381348 -17.86914062 30.56958008 C-15.5625 30.8125 -15.5625 30.8125 -13.5625 32.8125 C-13.99236066 42.05805784 -16.6940423 51.46426142 -18.70652962 60.49414062 C-19.23663968 62.87531136 -19.76063439 65.25775842 -20.2830658 67.640625 C-21.76706069 74.40556332 -23.25947665 81.16861502 -24.76098633 87.9296875 C-25.68508458 92.09276174 -26.60042029 96.25768722 -27.51058769 100.42382812 C-27.85531456 101.99357408 -28.20327775 103.56261347 -28.5547657 105.13085938 C-30.62438973 114.36847829 -32.16197316 123.31700144 -32.5625 132.8125 C-25.06898441 134.2896745 -20.92249795 131.77446594 -14.5625 127.8125 C-1.08772876 117.75898274 7.62288879 102.89541221 10.96875 86.46484375 C12.46762675 74.78609571 12.35843462 63.0038316 8.4375 51.8125 C7.94443359 50.34103516 7.94443359 50.34103516 7.44140625 48.83984375 C1.70472294 33.45600442 -9.8577795 21.02834428 -24.5625 13.8125 C-50.60410979 2.7209522 -78.10328812 1.10331518 -104.77734375 11.34057617 C-113.86378977 15.0218836 -121.94297283 19.7156965 -129.0390625 26.52734375 C-130.5625 27.8125 -130.5625 27.8125 -132.5625 27.8125 C-132.96082031 28.69808594 -132.96082031 28.69808594 -133.3671875 29.6015625 C-134.59340304 31.86966052 -135.89601588 33.34602098 -137.6875 35.1875 C-156.45202748 56.29271698 -160.46256369 84.68695412 -159.5625 111.8125 C-158.10833109 132.35782931 -149.04463947 151.95547808 -133.4375 165.5 C-115.44537828 179.55169837 -91.97717015 184.87366565 -69.5625 185.8125 C-68.72203125 185.85375 -67.8815625 185.895 -67.015625 185.9375 C-40.79032527 186.58906024 -16.05534953 180.70879824 4.4375 163.8125 C4.98792969 163.24144531 5.53835938 162.67039062 6.10546875 162.08203125 C7.4375 160.8125 7.4375 160.8125 9.4375 160.8125 C9.685 160.255625 9.9325 159.69875 10.1875 159.125 C10.6 158.361875 11.0125 157.59875 11.4375 156.8125 C11.8603125 155.94625 12.283125 155.08 12.71875 154.1875 C17.22932464 150.2472279 22.42787167 151.29178207 28.1875 151.5 C29.94900391 151.53383789 29.94900391 151.53383789 31.74609375 151.56835938 C34.64451637 151.6272704 37.54036427 151.70948369 40.4375 151.8125 C41.56835938 156.50341797 41.56835938 156.50341797 40.390625 159.28515625 C22.92759554 185.84017582 -2.81873185 201.20215159 -33.4296875 208.05078125 C-43.27198324 209.99536166 -53.19112089 210.01691998 -63.1875 210 C-64.25780457 209.99859512 -64.25780457 209.99859512 -65.34973145 209.99716187 C-75.54626326 209.96811477 -85.52418176 209.83926404 -95.5625 207.8125 C-96.31821289 207.66184082 -97.07392578 207.51118164 -97.85253906 207.35595703 C-119.61512278 202.87339873 -138.39346237 194.24298452 -154.5625 178.8125 C-155.30113281 178.17183594 -156.03976562 177.53117188 -156.80078125 176.87109375 C-175.08005117 160.28014005 -183.23919566 133.74556557 -184.6887207 109.72045898 C-185.97311863 73.94080239 -174.33038112 42.32688799 -152.19140625 14.5078125 C-151.65386719 13.94835937 -151.11632812 13.38890625 -150.5625 12.8125 C-149.9025 12.8125 -149.2425 12.8125 -148.5625 12.8125 C-148.2325 11.8225 -147.9025 10.8325 -147.5625 9.8125 C-110.48167871 -25.4895365 -41.25314209 -32.7473396 0 0 Z M-98.4609375 63.88671875 C-109.04929267 78.62775596 -114.64954022 97.65299896 -111.875 115.75 C-109.99625839 124.08073583 -106.78296054 130.0198799 -99.5625 134.8125 C-93.37264794 137.64951553 -87.94398531 137.50994483 -81.625 135.1875 C-68.50933736 129.48417397 -60.83048116 118.85341013 -55.5625 105.8125 C-51.10075582 92.51014817 -48.4470677 77.04629549 -54.5625 63.8125 C-57.8091817 57.86025021 -62.01303301 53.99565566 -68.5625 51.8125 C-81.6674199 50.52590197 -89.99769497 53.79362917 -98.4609375 63.88671875 Z " fill="#F9A511" transform="translate(434.5625,207.1875)"/>
</svg>
