<?xml version="1.0" encoding="UTF-8"?>
<svg version="1.1" xmlns="http://www.w3.org/2000/svg" width="1290" height="1411">
<path d="M0 0 C1.14981857 -0.00095673 2.29963715 -0.00191345 3.48429871 -0.00289917 C5.90204931 -0.00357558 8.31980178 -0.00175916 10.73754883 0.00244141 C14.39734063 0.0077824 18.0570089 0.00248553 21.71679688 -0.00390625 C47.51560028 -0.01225915 47.51560028 -0.01225915 55.60546875 1.1328125 C55.93546875 1.4628125 56.26546875 1.7928125 56.60546875 2.1328125 C58.8181916 2.50376621 61.04066145 2.81687515 63.265625 3.10546875 C63.9300914 3.19283798 64.5945578 3.28020721 65.27915955 3.370224 C67.40826431 3.64924097 69.53808192 3.92233612 71.66796875 4.1953125 C73.10877465 4.38307495 74.54953062 4.57122099 75.99023438 4.75976562 C79.52807653 5.22190576 83.06658147 5.67873682 86.60546875 6.1328125 C86.60546875 6.7928125 86.60546875 7.4528125 86.60546875 8.1328125 C87.73984375 8.1946875 88.87421875 8.2565625 90.04296875 8.3203125 C100.50407885 9.47897976 111.08131479 13.23752754 120.72265625 17.3359375 C122.31981153 18.01191193 123.96015365 18.58437413 125.60546875 19.1328125 C125.60546875 19.7928125 125.60546875 20.4528125 125.60546875 21.1328125 C126.30671875 21.2565625 127.00796875 21.3803125 127.73046875 21.5078125 C130.78203262 22.17119595 133.65887813 23.10493205 136.60546875 24.1328125 C136.60546875 24.7928125 136.60546875 25.4528125 136.60546875 26.1328125 C137.40984375 26.3596875 138.21421875 26.5865625 139.04296875 26.8203125 C143.51832614 28.46912838 147.49268193 30.73825662 151.60546875 33.1328125 C151.60546875 33.7928125 151.60546875 34.4528125 151.60546875 35.1328125 C152.26546875 35.3596875 152.92546875 35.5865625 153.60546875 35.8203125 C159.9230205 38.58424139 164.8549847 42.12554552 169.60546875 47.1328125 C170.43046875 47.7721875 171.25546875 48.4115625 172.10546875 49.0703125 C175.028675 51.48195766 177.21141911 54.2001017 179.60546875 57.1328125 C180.45109375 57.9784375 181.29671875 58.8240625 182.16796875 59.6953125 C184.60546875 62.1328125 184.60546875 62.1328125 186.73046875 64.8203125 C188.57107948 67.32434919 188.57107948 67.32434919 191.60546875 69.1328125 C191.93546875 70.1228125 192.26546875 71.1128125 192.60546875 72.1328125 C194.00577607 73.66042049 195.47999232 75.02370256 197.04296875 76.3828125 C198.84472212 78.40077628 200.06146706 80.59534066 201.35546875 82.9609375 C203.47282423 86.63984264 205.86549051 90.1457864 208.21484375 93.6796875 C209.60546875 96.1328125 209.60546875 96.1328125 209.60546875 99.1328125 C210.26546875 99.1328125 210.92546875 99.1328125 211.60546875 99.1328125 C211.82460937 99.63167969 212.04375 100.13054687 212.26953125 100.64453125 C212.58664062 101.36253906 212.90375 102.08054687 213.23046875 102.8203125 C213.76994141 104.04234375 213.76994141 104.04234375 214.3203125 105.2890625 C215.24777 107.34130888 216.20165566 109.38168284 217.171875 111.4140625 C217.70683594 112.538125 218.24179688 113.6621875 218.79296875 114.8203125 C219.30214844 115.87605469 219.81132813 116.93179688 220.3359375 118.01953125 C221.5900592 121.09502354 222.19662434 123.84727975 222.60546875 127.1328125 C223.26546875 127.1328125 223.92546875 127.1328125 224.60546875 127.1328125 C225.79834286 131.00965337 226.60546875 134.04903173 226.60546875 138.1328125 C227.26546875 138.1328125 227.92546875 138.1328125 228.60546875 138.1328125 C228.87101562 139.15761719 229.1365625 140.18242188 229.41015625 141.23828125 C229.76675903 142.59900239 230.12353926 143.95967703 230.48046875 145.3203125 C230.65449219 145.99384766 230.82851562 146.66738281 231.0078125 147.36132812 C231.76558065 150.23804056 232.55402729 153.009353 233.69921875 155.7578125 C234.75760548 158.53151565 235.01681781 160.98980783 235.23046875 163.9453125 C235.30523438 164.92113281 235.38 165.89695312 235.45703125 166.90234375 C235.50601563 167.63839844 235.555 168.37445312 235.60546875 169.1328125 C236.26546875 169.1328125 236.92546875 169.1328125 237.60546875 169.1328125 C239.90159631 180.65445259 239.90159631 180.65445259 239.60546875 186.1328125 C240.26546875 186.1328125 240.92546875 186.1328125 241.60546875 186.1328125 C241.77151611 187.37200439 241.77151611 187.37200439 241.94091797 188.63623047 C242.35959094 191.74904876 242.78115963 194.86145835 243.20458984 197.97363281 C243.47451299 199.96389797 243.74119938 201.95460124 244.0078125 203.9453125 C244.88555531 210.38209309 245.86037982 216.74941879 247.19482422 223.10742188 C248.92878037 231.65968122 248.72970582 240.45002164 248.60546875 249.1328125 C249.26546875 249.1328125 249.92546875 249.1328125 250.60546875 249.1328125 C250.92215094 254.73675044 251.23420439 260.34093274 251.54296875 265.9453125 C251.58904266 266.78016174 251.63511658 267.61501099 251.68258667 268.47515869 C252.34671635 280.57775563 252.91127488 292.67583658 253.26342773 304.79223633 C253.31092163 306.3027356 253.31092163 306.3027356 253.359375 307.84375 C253.38330322 308.70274902 253.40723145 309.56174805 253.43188477 310.44677734 C253.5561872 313.1624081 253.5561872 313.1624081 254.10880184 315.91999149 C254.98267272 321.97739394 254.73941027 328.11848435 254.72572327 334.22398376 C254.72615962 335.66958067 254.7270357 337.1151775 254.72831243 338.56077391 C254.73054486 342.52411788 254.72655324 346.48743475 254.72153437 350.45077527 C254.71721209 354.72812913 254.71867756 359.00548148 254.71943665 363.28283691 C254.71996075 370.69066161 254.71682577 378.09847749 254.71119881 385.50629997 C254.70306849 396.21674085 254.70046701 406.92717748 254.69921082 417.63762111 C254.69702271 435.01500829 254.69036915 452.39239077 254.6809082 469.76977539 C254.67172785 486.64933244 254.66465006 503.52888822 254.66040039 520.40844727 C254.66013767 521.44906966 254.65987494 522.48969205 254.65960426 523.56184845 C254.65829921 528.78239487 254.65703551 534.0029413 254.65579236 539.22348773 C254.64542725 582.52659924 254.62781548 625.82970563 254.60546875 669.1328125 C237.98055598 669.3084969 221.35555562 669.474455 204.73046875 669.6328125 C203.48410645 669.64468975 202.23774414 669.656567 200.95361328 669.66880417 C162.8370888 670.02932368 124.72371389 670.22586209 86.60546875 670.1953125 C85.5294767 670.19445648 84.45348465 670.19360046 83.34488678 670.19271851 C70.43172903 670.18165306 57.5185978 670.16210135 44.60546875 670.1328125 C44.60411222 669.48450863 44.60275569 668.83620477 44.60135806 668.16825533 C44.52022852 629.51098516 44.42908525 590.85374974 44.32541714 552.19653317 C44.31290233 547.52669288 44.30046893 542.85685237 44.28808594 538.18701172 C44.28438695 536.79283259 44.28438695 536.79283259 44.28061323 535.37048823 C44.24118282 520.43614929 44.20830608 505.50180306 44.17796893 490.56744319 C44.14655381 475.17642108 44.1078236 459.78542913 44.06267869 444.39444113 C44.03760428 435.77782051 44.01565558 427.16121806 44.00212479 418.54457092 C46.10832981 352.30143742 46.10832981 352.30143742 39.1484375 286.94140625 C38.43902386 283.27184936 37.94906978 279.58986423 37.48046875 275.8828125 C37.34910522 274.87190552 37.34910522 274.87190552 37.21508789 273.84057617 C36.73270739 269.91400864 36.51950042 266.08735568 36.60546875 262.1328125 C35.94546875 262.1328125 35.28546875 262.1328125 34.60546875 262.1328125 C34.42371094 261.22660156 34.24195313 260.32039063 34.0546875 259.38671875 C30.98028506 244.48769152 25.95256283 230.51501958 18.60546875 217.1328125 C17.94546875 216.8028125 17.28546875 216.4728125 16.60546875 216.1328125 C15.64649093 214.41326606 14.68847087 212.69316819 13.73828125 210.96875 C12.07187048 208.2680153 9.92430131 206.28197438 7.60546875 204.1328125 C6.71859375 203.2253125 5.83171875 202.3178125 4.91796875 201.3828125 C2.81933562 199.11341108 2.81933562 199.11341108 0.60546875 198.1328125 C0.60546875 197.4728125 0.60546875 196.8128125 0.60546875 196.1328125 C-1.37453125 195.4728125 -3.35453125 194.8128125 -5.39453125 194.1328125 C-5.39453125 193.4728125 -5.39453125 192.8128125 -5.39453125 192.1328125 C-6.01199219 191.95105469 -6.62945313 191.76929688 -7.265625 191.58203125 C-14.05762584 189.56614059 -20.805456 187.45124831 -27.45703125 185.0078125 C-35.06342122 182.74207932 -42.90520227 182.97965858 -50.76953125 183.0078125 C-52.37828125 183.00201172 -52.37828125 183.00201172 -54.01953125 182.99609375 C-64.81868855 182.19433839 -64.81868855 182.19433839 -74.39453125 185.1328125 C-76.46926873 185.53428006 -78.55510228 185.87908726 -80.64453125 186.1953125 C-82.35382813 186.46021484 -82.35382813 186.46021484 -84.09765625 186.73046875 C-86.91343387 187.07410038 -89.56426308 187.21261329 -92.39453125 187.1328125 C-92.39453125 187.7928125 -92.39453125 188.4528125 -92.39453125 189.1328125 C-97.83953125 190.1228125 -97.83953125 190.1228125 -103.39453125 191.1328125 C-103.39453125 191.7928125 -103.39453125 192.4528125 -103.39453125 193.1328125 C-106.69453125 194.1228125 -109.99453125 195.1128125 -113.39453125 196.1328125 C-113.39453125 196.7928125 -113.39453125 197.4528125 -113.39453125 198.1328125 C-114.52890625 198.4009375 -115.66328125 198.6690625 -116.83203125 198.9453125 C-118.00765625 199.3371875 -119.18328125 199.7290625 -120.39453125 200.1328125 C-120.72453125 201.1228125 -121.05453125 202.1128125 -121.39453125 203.1328125 C-122.79541507 204.10008942 -124.20247541 205.06009237 -125.64453125 205.96484375 C-130.79762798 209.40407572 -137.41296893 214.18812555 -139.39453125 220.1328125 C-140.72786458 221.46614583 -142.06119792 222.79947917 -143.39453125 224.1328125 C-144.62965204 226.26590442 -144.62965204 226.26590442 -145.39453125 228.1328125 C-146.05453125 228.1328125 -146.71453125 228.1328125 -147.39453125 228.1328125 C-148.38453125 231.1028125 -148.38453125 231.1028125 -149.39453125 234.1328125 C-150.05453125 234.1328125 -150.71453125 234.1328125 -151.39453125 234.1328125 C-151.51828125 234.8546875 -151.64203125 235.5765625 -151.76953125 236.3203125 C-152.38502435 239.09003144 -153.27897499 241.5298479 -154.39453125 244.1328125 C-155.05453125 244.1328125 -155.71453125 244.1328125 -156.39453125 244.1328125 C-157.05453125 247.1028125 -157.71453125 250.0728125 -158.39453125 253.1328125 C-159.05453125 253.1328125 -159.71453125 253.1328125 -160.39453125 253.1328125 C-160.58015625 254.834375 -160.58015625 254.834375 -160.76953125 256.5703125 C-161.481893 262.24914 -162.6599116 267.77536254 -164.36281776 273.24011707 C-169.62936619 291.76764585 -167.70468367 312.91904829 -167.71120548 332.02018273 C-167.71494395 336.56997719 -167.73012067 341.1197365 -167.74382019 345.66950989 C-167.76595901 353.52834506 -167.78105217 361.38716751 -167.79118729 369.24602699 C-167.80585093 380.60823603 -167.83140861 391.97040067 -167.85951857 403.33258345 C-167.90484793 421.77257311 -167.94151961 440.21256921 -167.97265625 458.65258789 C-168.00289883 476.55201344 -168.03727507 494.45142328 -168.07714844 512.35083008 C-168.07960999 513.45647524 -168.08207153 514.5621204 -168.08460768 515.70126996 C-168.09698338 521.2486613 -168.1094397 526.79605245 -168.12193608 532.34344351 C-168.22529612 578.27321123 -168.31456745 624.20299848 -168.39453125 670.1328125 C-195.6274454 670.28655064 -222.86038533 670.4345882 -250.09336758 670.5757761 C-262.73714758 670.64146106 -275.38091229 670.70903534 -288.0246582 670.78100586 C-299.04060596 670.84370591 -310.0565659 670.90291365 -321.07255512 670.95786804 C-326.90933926 670.98710898 -332.74610187 671.01813912 -338.58285332 671.05334663 C-344.06972703 671.08638862 -349.55660462 671.11478278 -355.04352188 671.13951874 C-357.0636456 671.14946221 -359.08376157 671.16114465 -361.10386467 671.17464256 C-363.84918695 671.19273341 -366.59446787 671.2047263 -369.33982849 671.21510315 C-370.55527152 671.22530883 -370.55527152 671.22530883 -371.79526895 671.23572069 C-373.66200101 671.23953677 -375.52873356 671.19199138 -377.39453125 671.1328125 C-379.34382922 669.18351453 -378.54924166 665.43405194 -378.55274963 662.77304077 C-378.55768779 661.98684667 -378.56262594 661.20065258 -378.56771374 660.39063442 C-378.58323581 657.71273635 -378.59150713 655.034863 -378.59985352 652.35693359 C-378.60945117 650.42143938 -378.61945957 648.48594716 -378.62984371 646.550457 C-378.65733567 641.1569376 -378.67821512 635.76340943 -378.69784164 630.36985636 C-378.7155996 625.67321362 -378.73672663 620.97658815 -378.75775301 616.27995908 C-378.81602309 603.21588677 -378.86600141 590.15179195 -378.9121834 577.08767259 C-378.91710773 575.69468394 -378.92203326 574.3016953 -378.92695999 572.90870667 C-378.93063307 571.86991194 -378.93063307 571.86991194 -378.93438035 570.81013147 C-378.95918527 563.83319031 -378.9861487 556.85625785 -379.01308916 549.87932467 C-379.36951804 457.31344009 -379.45446813 364.74769928 -379.44555664 145.01318359 C-379.44530536 144.02361319 -379.44505407 143.03404278 -379.44479518 142.01448539 C-379.4342968 101.05392465 -379.41338199 60.09337087 -379.39453125 19.1328125 C-314.38453125 19.1328125 -249.37453125 19.1328125 -182.39453125 19.1328125 C-182.06453125 45.5328125 -181.73453125 71.9328125 -181.39453125 99.1328125 C-180.40453125 97.1528125 -179.41453125 95.1728125 -178.39453125 93.1328125 C-176.83203125 91.4453125 -176.83203125 91.4453125 -175.39453125 90.1328125 C-174.40453125 88.6478125 -174.40453125 88.6478125 -173.39453125 87.1328125 C-172.73453125 87.1328125 -172.07453125 87.1328125 -171.39453125 87.1328125 C-171.23984375 86.17375 -171.23984375 86.17375 -171.08203125 85.1953125 C-170.74171875 84.174375 -170.74171875 84.174375 -170.39453125 83.1328125 C-169.40453125 82.8028125 -168.41453125 82.4728125 -167.39453125 82.1328125 C-166.02118508 79.84390222 -165.24202309 77.67528803 -164.39453125 75.1328125 C-162.7578125 73.5546875 -162.7578125 73.5546875 -160.70703125 71.8828125 C-157.99374926 69.58955815 -155.58511842 67.31664307 -153.33203125 64.5703125 C-150.81549603 61.51059071 -148.07012251 58.99835385 -145.0078125 56.4921875 C-143.3778033 55.16090411 -143.3778033 55.16090411 -141.94140625 53.66015625 C-140.17711765 51.91814402 -138.30850371 50.44152062 -136.33203125 48.9453125 C-135.63980469 48.41550781 -134.94757813 47.88570312 -134.234375 47.33984375 C-132.39453125 46.1328125 -132.39453125 46.1328125 -130.39453125 46.1328125 C-130.06453125 45.1428125 -129.73453125 44.1528125 -129.39453125 43.1328125 C-127.33203125 42.4453125 -127.33203125 42.4453125 -125.39453125 42.1328125 C-125.39453125 41.4728125 -125.39453125 40.8128125 -125.39453125 40.1328125 C-123.77392578 38.89599609 -123.77392578 38.89599609 -121.52734375 37.53125 C-120.72425781 37.04140625 -119.92117188 36.5515625 -119.09375 36.046875 C-117.81951172 35.28503906 -117.81951172 35.28503906 -116.51953125 34.5078125 C-115.67777344 33.9921875 -114.83601563 33.4765625 -113.96875 32.9453125 C-107.66501323 29.1328125 -107.66501323 29.1328125 -105.39453125 29.1328125 C-105.39453125 28.4728125 -105.39453125 27.8128125 -105.39453125 27.1328125 C-102.09453125 26.1428125 -98.79453125 25.1528125 -95.39453125 24.1328125 C-95.39453125 23.4728125 -95.39453125 22.8128125 -95.39453125 22.1328125 C-92.75453125 21.4728125 -90.11453125 20.8128125 -87.39453125 20.1328125 C-87.39453125 19.4728125 -87.39453125 18.8128125 -87.39453125 18.1328125 C-84.09453125 17.4728125 -80.79453125 16.8128125 -77.39453125 16.1328125 C-77.39453125 15.4728125 -77.39453125 14.8128125 -77.39453125 14.1328125 C-75.64636267 13.62644643 -73.89590862 13.12796631 -72.14453125 12.6328125 C-71.17 12.354375 -70.19546875 12.0759375 -69.19140625 11.7890625 C-66.39453125 11.1328125 -66.39453125 11.1328125 -62.39453125 11.1328125 C-62.39453125 10.4728125 -62.39453125 9.8128125 -62.39453125 9.1328125 C-60.83336306 8.79329631 -59.27051787 8.46148706 -57.70703125 8.1328125 C-56.83691406 7.9471875 -55.96679688 7.7615625 -55.0703125 7.5703125 C-52.45740161 7.14309203 -50.03640087 7.05665049 -47.39453125 7.1328125 C-47.39453125 6.4728125 -47.39453125 5.8128125 -47.39453125 5.1328125 C-46.70302979 5.04717041 -46.01152832 4.96152832 -45.29907227 4.87329102 C-42.18448914 4.48504949 -39.07076948 4.09027045 -35.95703125 3.6953125 C-34.86841797 3.56060547 -33.77980469 3.42589844 -32.65820312 3.28710938 C-31.62373047 3.15498047 -30.58925781 3.02285156 -29.5234375 2.88671875 C-28.5651001 2.76627197 -27.6067627 2.6458252 -26.61938477 2.52172852 C-24.42852705 2.35840333 -24.42852705 2.35840333 -23.39453125 1.1328125 C-15.6547114 -0.03382234 -7.80803538 -0.01462785 0 0 Z " fill="#F9A511" transform="translate(880.39453125,523.8671875)"/>
<path d="M0 0 C1.21101478 3.63304434 1.14382555 6.95834792 1.1386652 10.7404213 C1.14150742 11.54114223 1.14434964 12.34186316 1.14727798 13.16684836 C1.15565829 15.87412087 1.15689601 18.58135075 1.15821838 21.28863525 C1.16278246 23.24188423 1.16778226 25.19513224 1.17318195 27.14837909 C1.18680801 32.53946146 1.19419556 37.9305375 1.20060861 43.32163262 C1.20860103 49.13639077 1.22231015 54.95113571 1.23532104 60.7658844 C1.26001503 72.20818596 1.27939114 83.65049082 1.29707379 95.09280512 C1.31167859 104.47645321 1.3285731 113.86009504 1.34705925 123.24373627 C1.34837686 123.91340326 1.34969446 124.58307025 1.351052 125.27303017 C1.35641177 127.99386598 1.36178594 130.71470176 1.36717889 133.43553751 C1.41652467 158.33283205 1.46108863 183.2301328 1.50268555 208.12744141 C1.54136691 231.27751271 1.58277371 254.42757664 1.62768555 277.57763672 C1.63043702 278.99741354 1.63318824 280.41719035 1.6359392 281.83696717 C1.64143269 284.6714794 1.64692797 287.50599162 1.65242489 290.34050384 C1.65378308 291.04086384 1.65514126 291.74122384 1.65654061 292.46280687 C1.65928173 293.87600598 1.66202373 295.28920508 1.66476661 296.70240418 C2.00828705 473.72694366 2.00828705 473.72694366 2 653 C-25.3633271 653.02332551 -52.72665272 653.04097746 -80.08998775 653.05181217 C-92.79428883 653.05697587 -105.49858374 653.06401997 -118.20288086 653.07543945 C-129.27158425 653.08538404 -140.34028318 653.09185289 -151.40899092 653.09408849 C-157.27370828 653.09539599 -163.13841287 653.09848425 -169.00312614 653.10573006 C-174.51628528 653.11248673 -180.02942631 653.11461769 -185.54258919 653.11310768 C-187.57237979 653.11338417 -189.60217097 653.11539138 -191.63195801 653.11920547 C-194.39043917 653.12413721 -197.1488508 653.12300022 -199.90733337 653.12025452 C-200.72151967 653.12316736 -201.53570598 653.1260802 -202.37456459 653.12908131 C-207.88587879 653.11412121 -207.88587879 653.11412121 -209 652 C-209.10391779 649.53584192 -209.14206455 647.09945187 -209.1386652 644.63454914 C-209.14150742 643.85005169 -209.14434964 643.06555424 -209.14727798 642.25728413 C-209.15568773 639.59308739 -209.15689829 636.92893378 -209.15821838 634.26472473 C-209.16278054 632.34706429 -209.16778004 630.42940485 -209.17318195 628.51174659 C-209.18683115 623.20947088 -209.19420224 617.90720161 -209.20060861 612.60491288 C-209.2085915 606.88882764 -209.22230434 601.17275589 -209.23532104 595.4566803 C-209.2600365 584.20158973 -209.27940324 572.9464958 -209.29707379 561.69139222 C-209.31703275 549.11184907 -209.34184634 536.53231711 -209.36717889 523.95278383 C-209.41654925 499.43475667 -209.46110194 474.91672315 -209.50268555 450.39868164 C-209.54131845 427.62230803 -209.58272053 404.84594209 -209.62768555 382.06958008 C-209.63043705 380.67431319 -209.63318827 379.27904631 -209.6359392 377.88377942 C-209.64143289 375.09801203 -209.64692818 372.31224465 -209.65242489 369.52647727 C-209.65378308 368.83811158 -209.65514126 368.14974589 -209.65654061 367.44052063 C-209.65928176 366.05146775 -209.66202376 364.66241488 -209.66476661 363.273362 C-210.01706405 184.81836588 -210.01706405 184.81836588 -210 2 C-182.07257383 1.32345586 -154.1547878 0.83276548 -126.21950769 0.69667697 C-121.74608475 0.67405089 -117.27268765 0.64705528 -112.79928589 0.62062073 C-104.41433121 0.5716861 -96.02936143 0.52640102 -87.64437854 0.48259836 C-78.06185663 0.43234924 -68.47936068 0.37777085 -58.89686418 0.32291877 C-39.26460047 0.2106322 -19.63231195 0.10348998 0 0 Z " fill="#F9A511" transform="translate(379,542)"/>
<path d="M0 0 C1.0374939 0.00303635 1.0374939 0.00303635 2.09594727 0.00613403 C2.80243408 0.00517731 3.5089209 0.00422058 4.23681641 0.00323486 C5.7331552 0.00255321 7.22949694 0.00440649 8.72583008 0.00857544 C11.02374884 0.01392396 13.32147213 0.00863003 15.61938477 0.00222778 C17.06990603 0.00288857 18.52042718 0.00416974 19.97094727 0.00613403 C20.66260986 0.0041098 21.35427246 0.00208557 22.06689453 0 C26.91849503 0.0239943 26.91849503 0.0239943 28.03344727 1.13894653 C29.58798035 1.50503619 31.15461982 1.82012228 32.72485352 2.11160278 C34.14121094 2.37747192 34.14121094 2.37747192 35.58618164 2.64871216 C36.5794043 2.8311145 37.57262695 3.01351685 38.59594727 3.20144653 C39.59303711 3.38771606 40.59012695 3.5739856 41.61743164 3.76589966 C44.08881056 4.22706606 46.56081023 4.68458251 49.03344727 5.13894653 C49.03344727 5.79894653 49.03344727 6.45894653 49.03344727 7.13894653 C52.33344727 7.79894653 55.63344727 8.45894653 59.03344727 9.13894653 C59.03344727 9.79894653 59.03344727 10.45894653 59.03344727 11.13894653 C59.75532227 11.26269653 60.47719727 11.38644653 61.22094727 11.51394653 C63.99066621 12.12943963 66.43048266 13.02339028 69.03344727 14.13894653 C69.03344727 14.79894653 69.03344727 15.45894653 69.03344727 16.13894653 C71.34344727 16.79894653 73.65344727 17.45894653 76.03344727 18.13894653 C76.03344727 18.79894653 76.03344727 19.45894653 76.03344727 20.13894653 C77.20907227 20.60300903 77.20907227 20.60300903 78.40844727 21.07644653 C81.03344727 22.13894653 81.03344727 22.13894653 83.03344727 23.13894653 C83.03344727 23.79894653 83.03344727 24.45894653 83.03344727 25.13894653 C83.77594727 25.38644653 84.51844727 25.63394653 85.28344727 25.88894653 C88.31298622 27.26600969 89.76282846 28.73071446 92.03344727 31.13894653 C93.09020524 31.97954946 94.15302267 32.81257631 95.22094727 33.63894653 C98.03159333 36.13729859 98.41729168 36.68847526 99.03344727 40.13894653 C100.02344727 40.46894653 101.01344727 40.79894653 102.03344727 41.13894653 C103.85766602 43.09988403 103.85766602 43.09988403 105.72094727 45.51394653 C106.34356445 46.30543091 106.96618164 47.09691528 107.60766602 47.91238403 C109.03344727 50.13894653 109.03344727 50.13894653 109.03344727 53.13894653 C110.02344727 53.46894653 111.01344727 53.79894653 112.03344727 54.13894653 C112.36344727 55.78894653 112.69344727 57.43894653 113.03344727 59.13894653 C113.69344727 59.13894653 114.35344727 59.13894653 115.03344727 59.13894653 C118.03344727 65.76394653 118.03344727 65.76394653 118.03344727 69.13894653 C118.69344727 69.13894653 119.35344727 69.13894653 120.03344727 69.13894653 C121.34971418 72.75868055 122.03344727 75.23461784 122.03344727 79.13894653 C122.69344727 79.13894653 123.35344727 79.13894653 124.03344727 79.13894653 C126.31916155 87.56751796 126.31916155 87.56751796 126.03344727 92.13894653 C126.69344727 92.13894653 127.35344727 92.13894653 128.03344727 92.13894653 C130.46524184 110.50768052 130.46524184 127.77021254 128.03344727 146.13894653 C127.37344727 146.13894653 126.71344727 146.13894653 126.03344727 146.13894653 C125.99219727 147.27332153 125.95094727 148.40769653 125.90844727 149.57644653 C125.0895725 157.41244812 121.78322524 164.81461439 119.03344727 172.13894653 C118.37344727 172.13894653 117.71344727 172.13894653 117.03344727 172.13894653 C116.69313477 173.34550903 116.69313477 173.34550903 116.34594727 174.57644653 C114.19521955 180.41413605 111.53155468 185.79119368 107.03344727 190.13894653 C106.70344727 190.79894653 106.37344727 191.45894653 106.03344727 192.13894653 C105.37344727 192.13894653 104.71344727 192.13894653 104.03344727 192.13894653 C103.69313477 192.91238403 103.69313477 192.91238403 103.34594727 193.70144653 C100.1303559 199.67325908 96.42629943 203.95673465 91.03344727 208.13894653 C89.99095995 209.05467981 88.94928135 209.97133462 87.90844727 210.88894653 C85.27147486 212.95266407 84.12998647 213.45082671 81.03344727 214.13894653 C80.70344727 215.12894653 80.37344727 216.11894653 80.03344727 217.13894653 C78.10766602 218.49050903 78.10766602 218.49050903 75.72094727 219.76394653 C74.94106445 220.18933716 74.16118164 220.61472778 73.35766602 221.05300903 C71.23796125 222.0433921 69.31733173 222.66858131 67.03344727 223.13894653 C67.03344727 223.79894653 67.03344727 224.45894653 67.03344727 225.13894653 C64.12744465 226.39559631 62.23740142 227.13894653 59.03344727 227.13894653 C59.03344727 227.79894653 59.03344727 228.45894653 59.03344727 229.13894653 C57.45231807 229.64587345 55.86843344 230.14421097 54.28344727 230.63894653 C52.96086914 231.05660278 52.96086914 231.05660278 51.61157227 231.48269653 C49.03344727 232.13894653 49.03344727 232.13894653 45.03344727 232.13894653 C45.03344727 232.79894653 45.03344727 233.45894653 45.03344727 234.13894653 C38.60316185 235.46282882 32.60396387 236.38689056 26.03344727 236.13894653 C26.03344727 236.79894653 26.03344727 237.45894653 26.03344727 238.13894653 C21.92172167 238.16360399 17.81002449 238.18178612 13.69824219 238.19387817 C12.29849498 238.19891733 10.89875306 238.2057487 9.49902344 238.21438599 C7.4909895 238.22646973 5.48291769 238.2316446 3.47485352 238.23660278 C2.26514893 238.2418396 1.05544434 238.24707642 -0.19091797 238.25247192 C-2.96655273 238.13894653 -2.96655273 238.13894653 -3.96655273 237.13894653 C-6.90224664 236.59715347 -9.83061574 236.10028214 -12.77905273 235.63894653 C-14.41080036 235.38002036 -16.04231983 235.11965136 -17.67358398 234.85769653 C-18.76376831 234.68657349 -18.76376831 234.68657349 -19.87597656 234.51199341 C-21.93645331 234.14431754 -23.94283896 233.67076699 -25.96655273 233.13894653 C-25.96655273 232.47894653 -25.96655273 231.81894653 -25.96655273 231.13894653 C-26.9681543 231.0371106 -27.96975586 230.93527466 -29.00170898 230.83035278 C-33.13230139 230.24026815 -36.62851482 228.79841144 -40.40405273 227.07644653 C-41.04020508 226.79478638 -41.67635742 226.51312622 -42.33178711 226.22293091 C-43.88018324 225.53604841 -45.4238863 224.83860246 -46.96655273 224.13894653 C-46.96655273 223.47894653 -46.96655273 222.81894653 -46.96655273 222.13894653 C-48.20405273 221.79863403 -48.20405273 221.79863403 -49.46655273 221.45144653 C-55.06431954 219.35228398 -59.7952657 216.41942956 -63.96655273 212.13894653 C-65.80996225 210.58764045 -67.67196482 209.0618721 -69.54077148 207.54129028 C-70.2465332 206.84713013 -70.2465332 206.84713013 -70.96655273 206.13894653 C-70.96655273 205.47894653 -70.96655273 204.81894653 -70.96655273 204.13894653 C-71.5350293 203.90562622 -72.10350586 203.67230591 -72.68920898 203.43191528 C-87.90179294 194.79492508 -98.07432205 171.20632346 -102.96655273 155.13894653 C-103.54966623 152.82506304 -104.06660542 150.51412464 -104.53295898 148.17410278 C-104.98144226 145.9021186 -104.98144226 145.9021186 -106.02905273 142.82644653 C-112.56355013 117.12409011 -106.69740062 88.67527289 -95.96655273 65.13894653 C-95.30655273 65.13894653 -94.64655273 65.13894653 -93.96655273 65.13894653 C-93.80606445 64.0367981 -93.80606445 64.0367981 -93.64233398 62.91238403 C-92.91998067 59.94781263 -91.91513085 58.23391432 -90.15405273 55.76394653 C-88.26698664 53.06941243 -86.56698875 50.45158595 -85.09155273 47.51394653 C-82.77439546 43.83375557 -80.29636844 41.63258605 -76.97436523 38.89285278 C-75.07118842 37.23035008 -73.54705266 35.54127567 -71.96655273 33.57644653 C-68.83490397 29.77373018 -65.16482052 26.72031389 -60.96655273 24.13894653 C-60.30655273 24.13894653 -59.64655273 24.13894653 -58.96655273 24.13894653 C-58.96655273 23.47894653 -58.96655273 22.81894653 -58.96655273 22.13894653 C-54.58193735 19.13894653 -54.58193735 19.13894653 -51.96655273 19.13894653 C-51.96655273 18.47894653 -51.96655273 17.81894653 -51.96655273 17.13894653 C-49.65655273 16.47894653 -47.34655273 15.81894653 -44.96655273 15.13894653 C-44.96655273 14.47894653 -44.96655273 13.81894653 -44.96655273 13.13894653 C-42.06055012 11.88229676 -40.17050689 11.13894653 -36.96655273 11.13894653 C-36.96655273 10.47894653 -36.96655273 9.81894653 -36.96655273 9.13894653 C-36.09772461 8.87339966 -35.22889648 8.60785278 -34.33374023 8.33425903 C-32.60510742 7.80445435 -32.60510742 7.80445435 -30.84155273 7.26394653 C-29.70459961 6.91589966 -28.56764648 6.56785278 -27.39624023 6.20925903 C-25.22968886 5.53313708 -23.07267395 4.82488101 -20.93139648 4.07254028 C-17.83805672 3.09848468 -14.85969711 2.55150467 -11.65405273 2.07644653 C-7.33191666 1.43317659 -4.32294596 0.02137976 0 0 Z " fill="#F9A511" transform="translate(262.966552734375,217.86105346679688)"/>
</svg>
