<?xml version="1.0" encoding="UTF-8"?>
<svg version="1.1" xmlns="http://www.w3.org/2000/svg" width="698" height="572">
<path d="M0 0 C0 0.66 0 1.32 0 2 C0.93972656 2.09152344 1.87945312 2.18304688 2.84765625 2.27734375 C7.93817879 3.0118608 12.62906344 4.79028942 17.4375 6.5625 C18.40453857 6.91602539 19.37157715 7.26955078 20.36791992 7.63378906 C27.71041887 10.3806232 34.67705705 13.59589469 41.61328125 17.234375 C45.67174986 19.3502087 49.79490123 21.19781481 54 23 C54 23.66 54 24.32 54 25 C54.68835938 25.25523438 55.37671875 25.51046875 56.0859375 25.7734375 C65.28240025 29.64433469 73.72065919 35.27888294 81.6640625 41.25390625 C83.53322027 42.65108606 85.4046706 43.94229183 87.375 45.1875 C90.27840087 47.19222917 92.50662044 49.50662044 95 52 C96.31963709 53.01800576 97.6540711 54.01701822 99 55 C102.31377883 57.42969231 105.12567628 60.05381819 108 63 C109.28593879 64.11083223 110.57816227 65.21441134 111.875 66.3125 C115.16381373 69.16889563 118.00079378 72.16973278 120.80859375 75.4921875 C122.63722924 77.58485057 124.50196485 79.61358966 126.41015625 81.6328125 C127.02938965 82.28830078 127.64862305 82.94378906 128.28662109 83.61914062 C129.5297182 84.93089067 130.77601432 86.23961841 132.02587891 87.54492188 C135.44680972 91.16341405 138.3312007 94.77143577 141 99 C141.96621725 100.32206196 142.94402346 101.63579805 143.9375 102.9375 C152 113.6259542 152 113.6259542 152 116 C152.66 116 153.32 116 154 116 C155.62109375 118.4140625 155.62109375 118.4140625 157.4375 121.625 C158.03433594 122.66914063 158.63117187 123.71328125 159.24609375 124.7890625 C164 133.4922049 164 133.4922049 164 136 C164.66 136 165.32 136 166 136 C167.58397998 139.47887261 169.1670636 142.95815244 170.75 146.4375 C171.1934375 147.41138672 171.636875 148.38527344 172.09375 149.38867188 C172.97990864 151.33691771 173.86410221 153.28605855 174.74633789 155.23608398 C175.5224239 156.94710048 176.30432197 158.65550965 177.09545898 160.35961914 C179.6688705 165.97235594 181.66976959 171.68865573 183.5625 177.5625 C184.14566173 179.35594861 184.7302768 181.14892535 185.31640625 182.94140625 C185.59822754 183.80531982 185.88004883 184.6692334 186.17041016 185.55932617 C186.9062469 187.72417607 187.71211373 189.83770599 188.55859375 191.9609375 C190.42465234 196.86775182 191.45324761 201.92880758 192.5 207.0625 C192.71430664 208.1038208 192.92861328 209.1451416 193.14941406 210.21801758 C202.30969077 256.09884546 203.76772298 310.35833488 186.83618164 354.73388672 C184.9307255 359.89781195 183.29484321 365.16063896 181.60546875 370.3984375 C180.04552226 375.15386908 178.39604317 379.60238418 176 384 C171.89160936 382.54997977 168.49655387 380.6020866 165 378 C165 377.34 165 376.68 165 376 C163.99839844 375.60941406 163.99839844 375.60941406 162.9765625 375.2109375 C160.10190338 374.04145676 157.26556399 372.80018123 154.43066406 371.5378418 C130.5328855 360.92575224 102.7791458 355.53240373 77.37158203 364.97705078 C69.31538664 368.15986511 61.41558463 371.50745164 54 376 C53.34 376 52.68 376 52 376 C52 376.66 52 377.32 52 378 C50.62443908 379.01645431 49.19577013 379.96116416 47.75 380.875 C30.75802187 392.46810848 17.61990318 410.8661585 12.5703125 430.88671875 C12 433 12 433 11 435.46484375 C4.27573995 452.51189365 6.32300523 477.39059883 12.875 494.25 C13.57971618 495.83494658 14.28819996 497.41822212 15 499 C15.36996094 499.96421875 15.73992187 500.9284375 16.12109375 501.921875 C19.35912547 510.28767499 23.72486689 517.05304472 29.4375 523.9375 C31 526 31 526 31 529 C30.34 529 29.68 529 29 529 C29 529.66 29 530.32 29 531 C28.16339844 531.28721924 27.32679688 531.57443848 26.46484375 531.87036133 C23.32602619 532.94856949 20.18755958 534.02778772 17.04931641 535.10766602 C15.69756517 535.57258213 14.34567998 536.037109 12.99365234 536.5012207 C11.03707075 537.172937 9.08099151 537.84609887 7.125 538.51953125 C6.48608826 538.73860138 5.84717651 538.95767151 5.18890381 539.18338013 C2.07389443 540.2574352 -0.9987872 541.38666027 -4.046875 542.63671875 C-9.89558407 544.85668391 -16.12341945 545.83713311 -22.25 547 C-22.92950714 547.12973206 -23.60901428 547.25946411 -24.30911255 547.39312744 C-70.86880492 556.2015163 -127.71705119 558.49658838 -172 539 C-174.41232037 538.18015727 -176.83949107 537.41784821 -179.27001953 536.65380859 C-189.12089515 533.54689688 -198.1406942 529.7511065 -207.24707031 524.90917969 C-211.40697833 522.75158951 -215.71321275 520.88909269 -220 519 C-220 518.34 -220 517.68 -220 517 C-220.68835938 516.74476563 -221.37671875 516.48953125 -222.0859375 516.2265625 C-231.28240025 512.35566531 -239.72065919 506.72111706 -247.6640625 500.74609375 C-249.53322027 499.34891394 -251.4046706 498.05770817 -253.375 496.8125 C-256.27840087 494.80777083 -258.50662044 492.49337956 -261 490 C-262.31963709 488.98199424 -263.6540711 487.98298178 -265 487 C-268.31377883 484.57030769 -271.12567628 481.94618181 -274 479 C-275.28593879 477.88916777 -276.57816227 476.78558866 -277.875 475.6875 C-281.16381373 472.83110437 -284.00079378 469.83026722 -286.80859375 466.5078125 C-288.63722924 464.41514943 -290.50196485 462.38641034 -292.41015625 460.3671875 C-293.02938965 459.71169922 -293.64862305 459.05621094 -294.28662109 458.38085938 C-295.5297182 457.06910933 -296.77601432 455.76038159 -298.02587891 454.45507812 C-301.44643578 450.83698149 -304.33337282 447.22961671 -307 443 C-307.90363699 441.76122292 -308.81908129 440.53090832 -309.75 439.3125 C-325.99015748 417.78198819 -325.99015748 417.78198819 -329 408 C-329.66 407.67 -330.32 407.34 -331 407 C-332.32423245 404.60206556 -333.55560809 402.21172378 -334.75 399.75 C-335.07226562 399.1003125 -335.39453125 398.450625 -335.7265625 397.78125 C-336.83548899 395.52901171 -337.92043624 393.26646548 -339 391 C-339.47115234 390.01467285 -339.94230469 389.0293457 -340.42773438 388.01416016 C-353.42340963 360.40459016 -360.84040818 331.29149952 -364 301 C-364.0942627 300.11038574 -364.18852539 299.22077148 -364.28564453 298.30419922 C-365.11866489 289.54332858 -365.24314792 280.79261021 -365.25 272 C-365.25067474 271.21442719 -365.25134949 270.42885437 -365.25204468 269.61947632 C-365.20459231 234.51581391 -358.32461687 201.93335035 -346.8125 168.9375 C-346.44447266 167.88111328 -346.07644531 166.82472656 -345.69726562 165.73632812 C-344.7987128 163.15736482 -343.89961347 160.57859347 -343 158 C-342.34 158 -341.68 158 -341 158 C-340.4740625 156.2365625 -340.4740625 156.2365625 -339.9375 154.4375 C-337.60044595 147.35826832 -334.22527419 140.70680304 -331 134 C-330.34 134 -329.68 134 -329 134 C-328.74605469 133.13890625 -328.49210937 132.2778125 -328.23046875 131.390625 C-323.7255021 118.97693913 -314.16721038 107.53586007 -305.9140625 97.38671875 C-304.15359314 95.19152124 -302.47387737 92.95804907 -300.8125 90.6875 C-298.44417673 87.49790334 -295.84775208 84.77829471 -293 82 C-291.82413295 80.67477339 -290.65814267 79.34074399 -289.5 78 C-283.85607638 71.51009211 -277.6808884 65.42748279 -271 60 C-270.34 60 -269.68 60 -269 60 C-268.7628125 59.41734375 -268.525625 58.8346875 -268.28125 58.234375 C-266.7273194 55.52447163 -264.98070569 54.13469198 -262.5 52.25 C-261.7059375 51.63640625 -260.911875 51.0228125 -260.09375 50.390625 C-258 49 -258 49 -256 49 C-255.67 48.01 -255.34 47.02 -255 46 C-252.69620587 44.29272399 -250.41243419 42.72528937 -248 41.1875 C-246.6223435 40.29174716 -245.24473911 39.39591416 -243.8671875 38.5 C-242.86510254 37.85417969 -242.86510254 37.85417969 -241.84277344 37.1953125 C-239.57956913 35.72728808 -237.35227479 34.209339 -235.125 32.6875 C-223.58279915 25 -223.58279915 25 -220 25 C-220 24.34 -220 23.68 -220 23 C-216.37777789 21.32724698 -212.7517834 19.66283749 -209.125 18 C-207.57619141 17.28457031 -207.57619141 17.28457031 -205.99609375 16.5546875 C-205.00996094 16.10351562 -204.02382812 15.65234375 -203.0078125 15.1875 C-202.09660645 14.76855469 -201.18540039 14.34960938 -200.24658203 13.91796875 C-198 13 -198 13 -196 13 C-196 12.34 -196 11.68 -196 11 C-195.16339844 10.71278076 -194.32679688 10.42556152 -193.46484375 10.12963867 C-190.32602619 9.05143051 -187.18755958 7.97221228 -184.04931641 6.89233398 C-182.69756517 6.42741787 -181.34567998 5.962891 -179.99365234 5.4987793 C-178.03707059 4.82706295 -176.08094784 4.15402852 -174.125 3.48046875 C-173.48835419 3.26176117 -172.85170837 3.04305359 -172.19577026 2.81771851 C-169.02063026 1.72124592 -165.87758924 0.57659335 -162.7578125 -0.66796875 C-157.87018645 -2.40048485 -152.95083681 -3.46891265 -147.875 -4.5 C-146.83255127 -4.71430664 -145.79010254 -4.92861328 -144.71606445 -5.14941406 C-134.21067388 -7.25160193 -123.64502841 -8.80458006 -113 -10 C-111.78884521 -10.14356934 -111.78884521 -10.14356934 -110.55322266 -10.29003906 C-73.38431986 -14.23830629 -35.99259662 -9.27552736 0 0 Z M-122.93945312 108.390625 C-125.23651641 109.06994608 -127.54595391 109.69125343 -129.859375 110.3125 C-140.97389102 113.37432675 -150.91108101 117.4529046 -161 123 C-162.13308594 123.6084375 -163.26617187 124.216875 -164.43359375 124.84375 C-166.96609291 126.21162216 -169.48798765 127.59497614 -172 129 C-172 129.66 -172 130.32 -172 131 C-172.87527344 131.25136719 -173.75054687 131.50273437 -174.65234375 131.76171875 C-182.1737564 134.54385155 -188.53503398 140.23963041 -194 146 C-195.24612412 147.04630021 -196.49658881 148.08744044 -197.75 149.125 C-202.8399652 153.53566534 -206.8432351 158.72747188 -211 164 C-211.69351563 164.83917969 -212.38703125 165.67835938 -213.1015625 166.54296875 C-221.39895083 176.61836887 -227.49646828 187.46707337 -233.1171875 199.18261719 C-233.8541644 200.6997787 -234.6260458 202.19992111 -235.40625 203.6953125 C-241.67755256 216.19771696 -245.01100553 230.99470191 -246.67578125 244.83203125 C-247 247 -247 247 -248 248 C-249.21611246 255.26241804 -249.15294444 262.65992638 -249.125 270 C-249.12886719 271.01578125 -249.13273437 272.0315625 -249.13671875 273.078125 C-249.90240208 283.65398629 -249.90240208 283.65398629 -247 293 C-246.7031073 294.70232718 -246.41242996 296.40595713 -246.15209961 298.11425781 C-243.6439616 314.3495379 -239.03089732 329.29621696 -231.16381836 343.75878906 C-228.08741337 349.67661618 -227.49286785 353.52142968 -229 360 C-229.18780029 360.86085205 -229.37560059 361.7217041 -229.5690918 362.60864258 C-230.19638111 365.35380238 -230.87089282 368.08287949 -231.5625 370.8125 C-232.02634939 372.65128587 -232.48615045 374.49109891 -232.94140625 376.33203125 C-233.14451416 377.13358643 -233.34762207 377.9351416 -233.55688477 378.76098633 C-234.12942734 381.27357572 -234.12942734 381.27357572 -234 385 C-234.66 385.33 -235.32 385.66 -236 386 C-236.79022355 388.10338368 -236.79022355 388.10338368 -237.39453125 390.6953125 C-237.65057129 391.69208008 -237.90661133 392.68884766 -238.17041016 393.71582031 C-238.4441748 394.79959961 -238.71793945 395.88337891 -239 397 C-239.60599978 399.26878392 -240.21413166 401.53699926 -240.82421875 403.8046875 C-241.44609026 406.16125323 -242.06717566 408.51802653 -242.6875 410.875 C-243.00783203 412.07125 -243.32816406 413.2675 -243.65820312 414.5 C-243.96048828 415.65242188 -244.26277344 416.80484375 -244.57421875 417.9921875 C-244.84838623 419.02714355 -245.12255371 420.06209961 -245.4050293 421.12841797 C-245.96879971 423.84941409 -246.11609577 426.2321496 -246 429 C-246.66 429 -247.32 429 -248 429 C-248.66 431.97 -249.32 434.94 -250 438 C-245.14266636 437.61903266 -240.88158787 436.71832114 -236.24609375 435.20703125 C-228.33366172 432.72664155 -220.31802004 430.82938063 -212.25 428.9375 C-200.53723578 426.2381372 -200.53723578 426.2381372 -189.05761719 422.70336914 C-185.09496994 421.34879075 -181.051073 420.30327898 -177 419.25 C-176.16210938 419.01667969 -175.32421875 418.78335937 -174.4609375 418.54296875 C-165.78588526 416.30034689 -159.17869905 417.07339569 -151 420.8125 C-149.88625 421.31394531 -148.7725 421.81539063 -147.625 422.33203125 C-145.71589008 423.21046868 -143.80799309 424.09188309 -141.91235352 424.99902344 C-136.3683478 427.58545416 -130.89472348 429.26557384 -124.9375 430.625 C-124.03080566 430.83737305 -123.12411133 431.04974609 -122.18994141 431.26855469 C-115.17722975 432.85759351 -108.20367786 433.90964439 -101.0546875 434.640625 C-98 435 -98 435 -95 436 C-93.17766025 436.09387113 -91.3520984 436.13070591 -89.52734375 436.1328125 C-87.93116211 436.13474609 -87.93116211 436.13474609 -86.30273438 436.13671875 C-85.19220703 436.13285156 -84.08167969 436.12898438 -82.9375 436.125 C-81.82310547 436.12886719 -80.70871094 436.13273437 -79.56054688 436.13671875 C-78.49771484 436.13542969 -77.43488281 436.13414062 -76.33984375 436.1328125 C-75.36394287 436.13168457 -74.38804199 436.13055664 -73.38256836 436.12939453 C-70.98356611 436.15763793 -70.98356611 436.15763793 -69 435 C-67.5705087 434.77061567 -66.13392682 434.58451382 -64.6953125 434.421875 C-39.69023079 431.42975542 -19.54031054 424.30653194 3 413 C3 412.34 3 411.68 3 411 C4.09441406 410.5978125 4.09441406 410.5978125 5.2109375 410.1875 C7.94600957 409.02298752 10.18011903 407.68033057 12.625 406 C13.38039063 405.484375 14.13578125 404.96875 14.9140625 404.4375 C15.60242188 403.963125 16.29078125 403.48875 17 403 C17.99 402.34 18.98 401.68 20 401 C20 400.34 20 399.68 20 399 C20.58652344 398.73058594 21.17304688 398.46117187 21.77734375 398.18359375 C36.37210721 390.41168984 48.11701141 373.50991306 57 360 C57.65871094 359.06285156 58.31742187 358.12570312 58.99609375 357.16015625 C61.38748197 353.38894169 63.22183973 349.49830157 65.0625 345.4375 C68.68848094 337.48796845 68.68848094 337.48796845 70.55859375 334.55859375 C72.68856015 330.77775908 73.78708118 326.77702008 75 322.625 C75.26127686 321.74610107 75.52255371 320.86720215 75.79174805 319.96166992 C77.74080138 313.25583182 79.23894942 306.54871572 80.45703125 299.67578125 C81 297 81 297 82 296 C85.42634218 276.64464111 84.94714552 256.00054122 80 237 C79.67988731 235.6000942 79.36507016 234.19897021 79.0546875 232.796875 C76.58516176 221.70858156 73.80592534 210.97137339 68.4921875 200.85546875 C67.29252234 198.55977443 66.14004245 196.25480279 65.0078125 193.92578125 C64.6562207 193.20680664 64.30462891 192.48783203 63.94238281 191.74707031 C63.242534 190.31471735 62.54643254 188.88052601 61.85449219 187.44433594 C60.20620483 184.10048098 58.62213018 181.60014257 56 179 C55.195625 177.515 55.195625 177.515 54.375 176 C51.3102105 170.4647338 47.09437978 165.7911543 43 161 C42.29746094 160.17242187 41.59492188 159.34484375 40.87109375 158.4921875 C30.55610711 146.67649378 19.29295137 137.26266905 6 129 C5.05769531 128.401875 4.11539063 127.80375 3.14453125 127.1875 C-5.84015125 121.32846635 -5.84015125 121.32846635 -16 119 C-16 118.34 -16 117.68 -16 117 C-31.7686839 111.48930675 -31.7686839 111.48930675 -47.9921875 107.60546875 C-51 107 -51 107 -54.15234375 105.99609375 C-59.30198645 104.66293752 -64.39483664 104.28289951 -69.6875 103.875 C-70.71939453 103.78863281 -71.75128906 103.70226562 -72.81445312 103.61328125 C-89.51505313 102.24775523 -106.85837968 103.55813998 -122.93945312 108.390625 Z " fill="#F9A511" transform="translate(432,17)"/>
<path d="M0 0 C26.66435316 -0.66144132 53.1954203 5.94966302 76.71777344 18.19189453 C79.30419606 19.53136706 81.91117285 20.82889622 84.51953125 22.125 C84.51953125 22.785 84.51953125 23.445 84.51953125 24.125 C85.23109375 24.37636719 85.94265625 24.62773437 86.67578125 24.88671875 C93.80890775 27.99276422 100.27913741 33.43542954 105.51953125 39.125 C106.62277248 40.18846089 107.72697274 41.25092759 108.83203125 42.3125 C111.51953125 45.125 111.51953125 45.125 111.51953125 47.125 C112.17953125 47.125 112.83953125 47.125 113.51953125 47.125 C118.17146669 52.69322576 122.0257347 58.78440627 125.51953125 65.125 C125.98359375 65.7025 126.44765625 66.28 126.92578125 66.875 C128.98837057 69.78689081 130.33109751 72.91583534 131.70703125 76.1875 C132.11598633 77.12432617 132.11598633 77.12432617 132.53320312 78.08007812 C133.74877467 80.934691 134.51953125 82.98939599 134.51953125 86.125 C135.17953125 86.455 135.83953125 86.785 136.51953125 87.125 C142.91502921 101.83029462 145.96610101 119.17177185 146.51953125 135.125 C146.55949219 135.94871094 146.59945313 136.77242187 146.640625 137.62109375 C146.95690183 149.84426296 145.39421985 162.29280989 142.64453125 174.1875 C142.49532227 174.84057129 142.34611328 175.49364258 142.19238281 176.16650391 C139.90277845 185.42558905 135.74569167 194.08559572 131.70703125 202.6875 C131.30677734 203.56857422 130.90652344 204.44964844 130.49414062 205.35742188 C127.92193067 210.82892029 124.96315385 215.43048127 121.14086914 220.11279297 C119.35697631 222.26217619 119.35697631 222.26217619 117.41015625 225.31640625 C115.27824823 228.4834349 112.86253787 231.2746773 110.26953125 234.0625 C109.78500488 234.58610107 109.30047852 235.10970215 108.80126953 235.64916992 C100.79360435 244.2008269 91.53804147 252.0161523 81.51953125 258.125 C80.85953125 258.125 80.19953125 258.125 79.51953125 258.125 C79.51953125 258.785 79.51953125 259.445 79.51953125 260.125 C78.38515625 260.65609375 77.25078125 261.1871875 76.08203125 261.734375 C74.56117319 262.44786397 73.04034126 263.16140862 71.51953125 263.875 C70.77574219 264.22304688 70.03195312 264.57109375 69.265625 264.9296875 C68.52441406 265.27773438 67.78320312 265.62578125 67.01953125 265.984375 C66.26591309 266.33773926 65.51229492 266.69110352 64.73583984 267.05517578 C62.64697903 268.06348026 60.60716548 269.13949204 58.55859375 270.2265625 C54.16639932 272.4324298 49.66216814 273.62367402 44.89453125 274.75 C44.00918701 274.96164795 43.12384277 275.1732959 42.21166992 275.39135742 C13.32460476 282.14155438 -15.2904979 279.83325717 -43.48046875 271.125 C-43.48046875 270.465 -43.48046875 269.805 -43.48046875 269.125 C-44.12757813 269.04121094 -44.7746875 268.95742188 -45.44140625 268.87109375 C-49.60558983 267.84878133 -53.25389214 266.04427541 -57.10546875 264.1875 C-58.25015625 263.64706055 -58.25015625 263.64706055 -59.41796875 263.09570312 C-62.60712991 261.57665531 -65.53192234 260.09069761 -68.48046875 258.125 C-70.53756471 257.88444532 -70.53756471 257.88444532 -72.66796875 258 C-74.55515625 258.061875 -74.55515625 258.061875 -76.48046875 258.125 C-76.48046875 258.785 -76.48046875 259.445 -76.48046875 260.125 C-77.60018066 260.38716309 -78.71989258 260.64932617 -79.87353516 260.91943359 C-84.04509843 261.89692151 -88.21578847 262.87809177 -92.38623047 263.86035156 C-94.18807918 264.28420177 -95.9901602 264.70706571 -97.79248047 265.12890625 C-100.38962161 265.73696138 -102.9858945 266.34861008 -105.58203125 266.9609375 C-106.7823851 267.24074966 -106.7823851 267.24074966 -108.00698853 267.5262146 C-112.24816012 268.53045869 -116.36544845 269.66891589 -120.48046875 271.125 C-121.96356266 266.37170457 -120.84579629 262.42311423 -119.609375 257.76171875 C-119.40819565 256.96973587 -119.2070163 256.17775299 -118.9997406 255.36177063 C-118.35741311 252.84267868 -117.70042997 250.32767981 -117.04296875 247.8125 C-116.60384429 246.10116094 -116.16568221 244.38957463 -115.72851562 242.67773438 C-114.65696301 238.4905428 -113.57225425 234.30695948 -112.48046875 230.125 C-111.82046875 230.125 -111.16046875 230.125 -110.48046875 230.125 C-108.71134084 223.30675521 -108.95079162 218.27018943 -112.37646484 212.16650391 C-114.01768777 209.44026113 -115.68637401 206.73168081 -117.36181641 204.02636719 C-119.94435849 199.63683473 -121.64466448 194.85836101 -123.48046875 190.125 C-123.8259375 189.36832031 -124.17140625 188.61164063 -124.52734375 187.83203125 C-135.21528536 163.94859249 -135.68905208 132.11346894 -129.48046875 107.125 C-129.31949707 106.40876465 -129.15852539 105.6925293 -128.99267578 104.95458984 C-126.5663313 94.1887059 -122.75651166 85.07318168 -117.2734375 75.50390625 C-115.24610272 72.32085419 -115.24610272 72.32085419 -115.48046875 69.125 C-114.35732205 68.0018533 -113.22577982 66.88649296 -112.06640625 65.80078125 C-110.15546668 63.78158648 -108.6794809 61.60478408 -107.10546875 59.3125 C-101.35147821 51.23499328 -94.38284842 44.22008104 -87.48046875 37.125 C-86.86800293 36.48916992 -86.25553711 35.85333984 -85.62451172 35.19824219 C-82.51448467 32.01530424 -79.54007412 29.22560757 -75.73046875 26.875 C-72.71263305 25.00720041 -72.71263305 25.00720041 -70.07348633 22.66772461 C-68.44917998 21.09469904 -66.96588906 20.14120673 -64.9765625 19.08203125 C-64.31849609 18.73076172 -63.66042969 18.37949219 -62.98242188 18.01757812 C-62.30115234 17.66115234 -61.61988281 17.30472656 -60.91796875 16.9375 C-59.89026367 16.38545898 -59.89026367 16.38545898 -58.84179688 15.82226562 C-53.74251362 13.125 -53.74251362 13.125 -51.48046875 13.125 C-51.48046875 12.465 -51.48046875 11.805 -51.48046875 11.125 C-34.33507367 5.03058229 -18.25564394 0.91996946 0 0 Z M-65.48046875 70.125 C-74.22197893 82.18291645 -78.59655962 93.12398201 -77.48046875 108.125 C-76.8756202 110.4751164 -76.20574253 112.80921356 -75.48046875 115.125 C-75.17109375 116.24777344 -74.86171875 117.37054688 -74.54296875 118.52734375 C-71.43676665 128.86231766 -66.57942323 137.26506457 -60.48046875 146.125 C-59.76117188 147.17171875 -59.041875 148.2184375 -58.30078125 149.296875 C-54.33975806 154.87621505 -50.06435669 160.05257978 -45.48046875 165.125 C-44.27064886 166.51954508 -43.0623114 167.91537762 -41.85546875 169.3125 C-37.15673604 174.66614457 -32.07847777 179.45133748 -26.73046875 184.1484375 C-25.38646431 185.32910807 -24.05017614 186.51879458 -22.73046875 187.7265625 C-14.45848607 195.46350225 -14.45848607 195.46350225 -4.48046875 199.125 C-4.48046875 199.785 -4.48046875 200.445 -4.48046875 201.125 C-1.38081472 202.6344588 1.72494528 204.13090667 4.83203125 205.625 C5.71310547 206.05425781 6.59417969 206.48351562 7.50195312 206.92578125 C8.34951172 207.33183594 9.19707031 207.73789062 10.0703125 208.15625 C11.24074097 208.72182617 11.24074097 208.72182617 12.43481445 209.29882812 C14.6106179 210.30921148 14.6106179 210.30921148 17.51953125 210.125 C17.51953125 210.785 17.51953125 211.445 17.51953125 212.125 C20.72600501 213.11032735 23.93501129 214.08714519 27.14453125 215.0625 C28.04816406 215.34029297 28.95179688 215.61808594 29.8828125 215.90429688 C43.88224597 220.14500117 57.78600005 221.01529893 71.51953125 215.125 C78.41597627 211.02825858 84.4813153 206.72053986 87.51953125 199.125 C87.51953125 198.135 87.51953125 197.145 87.51953125 196.125 C88.17953125 196.125 88.83953125 196.125 89.51953125 196.125 C91.00734581 190.75091121 91.80034686 185.61731101 90.51953125 180.125 C87.5172772 176.66288209 83.65020272 174.93841526 79.51953125 173.125 C78.75882324 172.78984375 77.99811523 172.4546875 77.21435547 172.109375 C73.09240357 170.31743371 68.94948124 168.59329615 64.77734375 166.921875 C61.48937704 165.58270315 58.50926267 164.05752601 55.51953125 162.125 C52.65249206 160.6914804 50.6965457 160.77548914 47.51953125 161.125 C45.02767881 163.03270998 45.02767881 163.03270998 42.95703125 165.6875 C42.19390625 166.59628906 41.43078125 167.50507813 40.64453125 168.44140625 C35.7887924 173.76061431 35.7887924 173.76061431 33.51953125 180.125 C25.47143029 183.07392249 20.19583069 180.60468927 12.51953125 177.125 C9.33224624 175.34129004 6.4484903 173.30018282 3.51953125 171.125 C2.37484375 170.37476563 2.37484375 170.37476563 1.20703125 169.609375 C-13.16360131 160.12107273 -26.84098464 146.73918807 -34.48046875 131.125 C-35.15320306 127.1240012 -34.86583923 125.7074992 -32.6171875 122.30859375 C-31.40482422 120.94927734 -31.40482422 120.94927734 -30.16796875 119.5625 C-23.93292088 112.74553333 -23.93292088 112.74553333 -21.48046875 104.125 C-22.24855902 101.18461845 -23.37613298 98.42735255 -24.54296875 95.625 C-24.86297852 94.83053467 -25.18298828 94.03606934 -25.51269531 93.2175293 C-27.90516326 87.34225749 -30.47533712 81.56367251 -33.2109375 75.83984375 C-34.26746036 73.58051024 -35.17422238 71.33445255 -36.04296875 69 C-37.78127265 65.5233922 -38.85159703 64.4959071 -42.48046875 63.125 C-50.92064187 62.42165224 -59.71872072 63.30590991 -65.48046875 70.125 Z " fill="#F9A511" transform="translate(342.48046875,146.875)"/>
<path d="M0 0 C2.73828125 1.7421875 2.73828125 1.7421875 5.3125 3.875 C6.60607422 4.92300781 6.60607422 4.92300781 7.92578125 5.9921875 C10 8 10 8 11 11 C16.29784057 12.18368238 21.38244486 13.06165506 26.8125 13.3125 C30.45016076 13.63060292 31.85433367 13.90592383 35 15.9375 C38.39861927 21.14163576 39.51883739 26.869137 40.875 32.875 C42.26424373 36.73401036 43.65513006 37.67313395 47 40 C48.41098918 41.14829062 49.80591206 42.31649817 51.1875 43.5 C51.86167969 44.0671875 52.53585937 44.634375 53.23046875 45.21875 C56.22626046 48.23438139 57.29808074 50.96463248 57.375 55.1875 C57.30101773 59.67822396 55.97004351 62.93116842 53.875 66.859375 C52.47582352 70.28236032 52.57795053 72.87893109 53.875 76.32421875 C54.431875 77.49404297 54.431875 77.49404297 55 78.6875 C57.09576132 83.81639953 58.63817046 88.53048006 57 94 C53.56380901 98.2377215 49.2890511 101.19738328 44.6875 104.0625 C41.25032174 107.81941577 40.63418118 111.58682447 39.54003906 116.3972168 C38.16959921 122.11986279 36.35278935 125.11027334 32 129 C28.75765154 130.08078282 26.09544997 130.209909 22.6875 130.375 C16.96713769 130.80624683 12.53779076 131.15928992 8.52734375 135.6484375 C7.51302686 136.87806974 6.50128344 138.10982958 5.4921875 139.34375 C3.22627947 141.85878928 1.21517669 142.97114346 -2 144 C-7.73535888 144.26018393 -10.64535223 142.68470196 -15 139 C-20.84890305 136.79286677 -26.34723671 136.26944734 -32.5 137.5 C-37.24676283 138.44935257 -41.33144712 138.89248177 -45.6875 136.5625 C-47.78033752 134.24340977 -48.94963391 132.36041131 -50.375 129.625 C-53.46862415 123.73838601 -57.24783099 120.10086761 -63.4375 117.625 C-64.7059375 117.315625 -64.7059375 117.315625 -66 117 C-66 116.34 -66 115.68 -66 115 C-66.928125 114.9175 -67.85625 114.835 -68.8125 114.75 C-72 114 -72 114 -73.8125 112.1875 C-76.62997972 106.99740578 -76.02693798 101.66607242 -75.78515625 95.93164062 C-75.69088868 91.35966334 -76.20335444 88.63563923 -79 85 C-79.99247209 83.99252833 -80.99188132 82.99181487 -82 82 C-84.81786687 77.58000147 -87.08076464 73.29574675 -86 68 C-83.56504961 63.7270548 -80.6349948 59.81880909 -77.625 55.9375 C-75.14351922 51.63558865 -75.75133602 46.57708926 -75.97119141 41.77319336 C-76.13991803 37.66899226 -75.97663899 34.64047653 -74 31 C-70.34505165 27.90735139 -67.06448148 26.69115971 -62.5 25.3125 C-56.20097127 23.13600633 -54.03179772 19.71737163 -51 14 C-50.13862341 12.51285865 -49.26432405 11.03309911 -48.375 9.5625 C-48.01148438 8.92441406 -47.64796875 8.28632813 -47.2734375 7.62890625 C-45.69280575 5.60705521 -44.40850512 4.86562661 -42 4 C-39.89278434 4.20068721 -37.78571241 4.41187466 -35.6875 4.69140625 C-25.530132 5.85773194 -16.90586886 5.33921123 -8.09765625 -0.1953125 C-5.03193142 -1.37136337 -3.13502431 -0.88209809 0 0 Z M9.4375 51.1875 C8.88642578 51.57486328 8.33535156 51.96222656 7.76757812 52.36132812 C4.16212197 54.94887377 1.09970218 57.83871433 -2 61 C-3.37245062 62.1330993 -4.76786028 63.23911387 -6.1875 64.3125 C-8.71109588 66.22942174 -11.19421902 68.16189728 -13.62890625 70.19140625 C-14.49386719 70.91199219 -15.35882812 71.63257813 -16.25 72.375 C-17.03890625 73.04273438 -17.8278125 73.71046875 -18.640625 74.3984375 C-21.23028411 76.15631868 -22.87170325 76.8837628 -26 77 C-27.80859375 75.84765625 -27.80859375 75.84765625 -29.4375 74.0625 C-30.03175781 73.41796875 -30.62601563 72.7734375 -31.23828125 72.109375 C-32.9494481 70.06052777 -34.54964128 67.96697516 -36.125 65.8125 C-39.18908732 61.63788367 -41.66234966 58.38960839 -47 57.5 C-50.83337103 58.13889517 -52.48403209 59.02658338 -55 62 C-55.27333251 65.55332268 -54.82261718 67.80681086 -52.77734375 70.7734375 C-50.92605911 72.92947907 -48.9792773 74.96033797 -47 77 C-45.46429153 78.62837155 -43.93677886 80.26396096 -42.41333008 81.90380859 C-41.36918517 83.02645944 -40.31976453 84.14423331 -39.2644043 85.25634766 C-36.85023604 87.83256445 -34.67785626 90.36472843 -32.76171875 93.3359375 C-31.27054973 96.07279813 -31.27054973 96.07279813 -29 97 C-23.25321403 97.55257557 -20.47825256 96.60207271 -16 93 C-15.236875 92.236875 -14.47375 91.47375 -13.6875 90.6875 C-10.80922434 87.80922434 -7.75895183 85.42622315 -4.53125 82.95703125 C1.88774488 77.99419725 8.1369221 72.80886005 14.23828125 67.4609375 C15.57183798 66.35506118 16.95378202 65.30720311 18.35546875 64.2890625 C23.24985829 60.7297909 23.24985829 60.7297909 26.75 55.875 C27.06571075 52.24432639 26.25029348 50.81286685 24 48 C18.33291272 45.16645636 14.0668124 47.74686852 9.4375 51.1875 Z " fill="#F9A511" transform="translate(555,407)"/>
<path d="M0 0 C0.99 0.495 0.99 0.495 2 1 C1.67 1.66 1.34 2.32 1 3 C0.67 2.01 0.34 1.02 0 0 Z " fill="#F9A511" transform="translate(451,187)"/>
<path d="M0 0 C2 1 2 1 2 1 Z " fill="#F9A511" transform="translate(447,418)"/>
<path d="M0 0 C2 1 2 1 2 1 Z " fill="#F9A511" transform="translate(284,412)"/>
<path d="M0 0 C2 1 2 1 2 1 Z " fill="#F9A511" transform="translate(424,405)"/>
<path d="" fill="#F9A511" transform="translate(0,0)"/>
<path d="" fill="#F9A511" transform="translate(0,0)"/>
<path d="M0 0 C2 1 2 1 2 1 Z " fill="#F9A511" transform="translate(413,359)"/>
<path d="" fill="#F9A511" transform="translate(0,0)"/>
<path d="" fill="#F9A511" transform="translate(0,0)"/>
<path d="M0 0 C2 1 2 1 2 1 Z " fill="#F9A511" transform="translate(483,192)"/>
<path d="M0 0 C2 1 2 1 2 1 Z " fill="#F9A511" transform="translate(447,184)"/>
<path d="" fill="#F9A511" transform="translate(0,0)"/>
<path d="" fill="#F9A511" transform="translate(0,0)"/>
<path d="" fill="#F9A511" transform="translate(0,0)"/>
<path d="" fill="#F9A511" transform="translate(0,0)"/>
<path d="" fill="#F9A511" transform="translate(0,0)"/>
<path d="" fill="#F9A511" transform="translate(0,0)"/>
<path d="" fill="#F9A511" transform="translate(0,0)"/>
<path d="" fill="#F9A511" transform="translate(0,0)"/>
<path d="" fill="#F9A511" transform="translate(0,0)"/>
<path d="" fill="#F9A511" transform="translate(0,0)"/>
<path d="" fill="#F9A511" transform="translate(0,0)"/>
<path d="" fill="#F9A511" transform="translate(0,0)"/>
<path d="" fill="#F9A511" transform="translate(0,0)"/>
<path d="" fill="#F9A511" transform="translate(0,0)"/>
<path d="" fill="#F9A511" transform="translate(0,0)"/>
<path d="" fill="#F9A511" transform="translate(0,0)"/>
<path d="" fill="#F9A511" transform="translate(0,0)"/>
<path d="" fill="#F9A511" transform="translate(0,0)"/>
<path d="" fill="#F9A511" transform="translate(0,0)"/>
<path d="" fill="#F9A511" transform="translate(0,0)"/>
<path d="" fill="#F9A511" transform="translate(0,0)"/>
<path d="" fill="#F9A511" transform="translate(0,0)"/>
<path d="" fill="#F9A511" transform="translate(0,0)"/>
<path d="" fill="#F9A511" transform="translate(0,0)"/>
<path d="" fill="#F9A511" transform="translate(0,0)"/>
<path d="" fill="#F9A511" transform="translate(0,0)"/>
<path d="" fill="#F9A511" transform="translate(0,0)"/>
<path d="" fill="#F9A511" transform="translate(0,0)"/>
</svg>
